<svg width="108" height="24" viewBox="0 0 108 24" fill="none" xmlns="http://www.w3.org/2000/svg">
<path d="M9.60146 18.2549H5.44277V18.5273C5.88539 18.5662 6.13346 18.6245 6.19669 18.7072C6.25992 18.7899 6.2891 18.9115 6.2891 19.072V22.5108C5.97295 22.6568 5.6276 22.7249 5.25308 22.7249C4.87855 22.7249 4.51862 22.6373 4.1976 22.4573C3.87658 22.2822 3.59933 22.0001 3.37073 21.6159C3.14212 21.2316 2.96215 20.7306 2.84055 20.1032C2.71409 19.4806 2.65572 18.7461 2.65572 17.8998C2.65572 17.0535 2.72382 16.3531 2.86487 15.7353C3.00593 15.1176 3.19562 14.6118 3.43882 14.2227C3.68202 13.8335 3.96899 13.5466 4.30461 13.3569C4.63536 13.172 4.99529 13.0748 5.37468 13.0748C5.87566 13.0748 6.32315 13.1964 6.722 13.4396C7.12084 13.6828 7.45159 14.0135 7.71424 14.4269C7.9769 14.8404 8.16659 15.283 8.28333 15.7499H8.55571L8.40979 13.5757C7.4905 13.0018 6.47393 12.71 5.37468 12.71C4.62563 12.71 3.92522 12.8364 3.26372 13.0894C2.60708 13.3423 2.03314 13.7022 1.54188 14.1691C1.05062 14.6361 0.671226 15.1906 0.403708 15.8326C0.13619 16.4747 0 17.1605 0 17.8901C0 18.6197 0.121601 19.3152 0.364799 19.9573C0.607997 20.5944 0.963065 21.1489 1.42028 21.611C1.88235 22.0779 2.43198 22.4379 3.06916 22.6908C3.70634 22.9437 4.39702 23.0702 5.13634 23.0702C5.71029 23.0702 6.26965 22.9924 6.80468 22.8319C7.33972 22.6714 7.79207 22.4865 8.15686 22.2628L8.54598 22.9972H8.80377V19.0526C8.80377 18.8142 8.867 18.6683 8.99833 18.6197C9.12966 18.571 9.32908 18.5321 9.59659 18.5029V18.2306L9.60146 18.2549Z" fill="#172554"/>
<path d="M16.0705 22.0679C15.6813 22.4424 15.1755 22.6272 14.5529 22.6272H12.9283V13.6873C12.9283 13.5219 12.9575 13.4003 13.0208 13.3225C13.084 13.2398 13.3369 13.1814 13.7747 13.1425V12.8701H9.55762V13.1425C10.0002 13.1814 10.2532 13.2398 10.3115 13.3225C10.3748 13.4052 10.4039 13.5268 10.4039 13.6873V22.1214C10.4039 22.2867 10.3748 22.4083 10.3115 22.4862C10.2483 22.5689 9.99537 22.6272 9.55762 22.6661V22.9385H17.1259L17.2719 20.4628H16.9995C16.7709 21.1534 16.4596 21.6885 16.0705 22.0581V22.0679Z" fill="#172554"/>
<path d="M25.6622 14.1982C25.171 13.7264 24.6068 13.3664 23.9647 13.1135C23.3227 12.8606 22.6612 12.7341 21.9802 12.7341C21.2993 12.7341 20.6378 12.8606 19.9957 13.1135C19.3537 13.3664 18.7846 13.7312 18.2982 14.1982C17.8069 14.67 17.4227 15.2245 17.1406 15.8617C16.8585 16.4988 16.7174 17.1847 16.7174 17.9142C16.7174 18.6438 16.8585 19.3248 17.1406 19.9668C17.4227 20.604 17.8118 21.1585 18.2982 21.6303C18.7895 22.1021 19.3537 22.4621 19.9957 22.715C20.6378 22.9679 21.2993 23.0944 21.9802 23.0944C22.6612 23.0944 23.3227 22.9679 23.9647 22.715C24.6068 22.4621 25.1758 22.0973 25.6622 21.6303C26.1535 21.1585 26.5377 20.604 26.8199 19.9668C27.102 19.3297 27.243 18.6438 27.243 17.9142C27.243 17.1847 27.102 16.5037 26.8199 15.8617C26.5377 15.2245 26.1486 14.67 25.6622 14.1982ZM24.4462 19.8452C24.3441 20.4338 24.1885 20.9445 23.9793 21.3774C23.7702 21.8103 23.4929 22.141 23.1524 22.3794C22.812 22.6128 22.4228 22.7344 21.9802 22.7344C21.6446 22.7344 21.3139 22.6566 20.9928 22.4961C20.6718 22.3356 20.3897 22.0681 20.1514 21.6838C19.913 21.2996 19.7185 20.7986 19.5774 20.1809C19.4315 19.5631 19.3634 18.8044 19.3634 17.9142C19.3634 17.2138 19.412 16.5669 19.5142 15.9784C19.6163 15.3899 19.772 14.8791 19.9811 14.4462C20.1903 14.0134 20.4675 13.6826 20.808 13.4443C21.1485 13.2108 21.5376 13.0892 21.9802 13.0892C22.3158 13.0892 22.6466 13.167 22.9676 13.3275C23.2886 13.488 23.5707 13.7556 23.8091 14.1398C24.0474 14.5241 24.242 15.0251 24.383 15.6428C24.5289 16.2605 24.597 17.0193 24.597 17.9094C24.597 18.6098 24.5484 19.2567 24.4462 19.8452Z" fill="#172554"/>
<path d="M32.4426 17.7392V17.71C33.0652 17.6322 33.5905 17.4911 34.0186 17.2869C34.4466 17.0826 34.7725 16.8151 35.0059 16.4892C35.2346 16.1633 35.3513 15.7742 35.3513 15.3218C35.3513 14.5825 35.0594 13.9891 34.4806 13.5465C33.9018 13.099 33.0847 12.8752 32.0389 12.8752H27.3744V13.1476C27.817 13.1865 28.0699 13.2449 28.1283 13.3276C28.1915 13.4103 28.2207 13.5319 28.2207 13.6924V22.1265C28.2207 22.2919 28.1915 22.4135 28.1283 22.4913C28.0651 22.574 27.8121 22.6323 27.3744 22.6713V22.9436H32.4718C33.5273 22.9436 34.3444 22.7004 34.9184 22.2189C35.4923 21.7325 35.7842 21.0905 35.7842 20.2831C35.7842 18.7947 34.6703 17.9484 32.4475 17.7343L32.4426 17.7392ZM30.7451 13.1914H31.5671C32.4037 13.1914 32.8172 13.9502 32.8172 15.4629C32.8172 16.1049 32.7102 16.6156 32.501 16.995C32.2919 17.3744 31.9611 17.5641 31.5088 17.5641H30.7451V13.1865V13.1914ZM31.6498 22.6324H30.7451V17.924H31.5379C32.0632 17.924 32.4621 18.1235 32.7345 18.5223C33.002 18.9211 33.1382 19.4854 33.1382 20.215C33.1382 21.8249 32.6421 22.6324 31.6547 22.6324H31.6498Z" fill="#172554"/>
<path d="M51.446 22.0683C51.0569 22.4428 50.5511 22.6277 49.9285 22.6277H48.3039V13.6877C48.3039 13.5223 48.3331 13.4007 48.3963 13.3229C48.4596 13.2402 48.7125 13.1818 49.1503 13.1429V12.8705H44.9332V13.1429C45.3758 13.1818 45.6287 13.2402 45.6871 13.3229C45.7503 13.4056 45.7795 13.5272 45.7795 13.6877V22.1218C45.7795 22.2872 45.7503 22.4088 45.6871 22.4866C45.6287 22.5644 45.3953 22.6179 45.0013 22.6568C44.6851 22.5839 44.4809 22.4963 44.3982 22.399C44.3106 22.2969 44.2328 22.1607 44.1696 21.9905L40.7161 12.7927H39.1597L36.3969 21.8737C36.3094 22.1413 36.1878 22.3212 36.0322 22.4136C35.8716 22.5061 35.5847 22.5887 35.1615 22.6666V22.9389H38.4982V22.6666C37.6421 22.5887 37.1557 22.5206 37.0293 22.4671C36.9028 22.4088 36.8201 22.331 36.7763 22.2385C36.7326 22.1413 36.752 21.9662 36.825 21.7084L37.4281 19.7093H40.7259L41.4603 21.7521C41.5576 22.0002 41.5673 22.2045 41.4944 22.3553C41.4214 22.5109 41.1393 22.6131 40.6529 22.6714V22.9438H52.4967L52.6426 20.4681H52.3702C52.1416 21.1587 51.8303 21.6938 51.4412 22.0634L51.446 22.0683ZM37.5497 19.3493L38.9457 14.7869H38.9749L40.5994 19.3493H37.5497Z" fill="#172554"/>
<path d="M7.59265 9.56266C8.17146 9.07627 8.46329 8.4245 8.46329 7.61221C8.46329 6.11411 7.34458 5.26292 5.1023 5.04891V5.01972C5.72975 4.9419 6.25992 4.80085 6.68795 4.59169C7.11598 4.38254 7.44673 4.11503 7.6802 3.78914C7.91367 3.46326 8.02554 3.06927 8.02554 2.61693C8.02554 1.87274 7.7337 1.27934 7.15002 0.826988C6.56635 0.379504 5.7492 0.155762 4.69372 0.155762H0V0.433008C0.44262 0.47192 0.695547 0.530287 0.758779 0.612974C0.82201 0.695662 0.851195 0.817261 0.851195 0.982635V9.47025C0.851195 9.63562 0.82201 9.75722 0.758779 9.83991C0.695547 9.9226 0.44262 9.98096 0 10.0199V10.2971H5.12662C6.18696 10.2971 7.00897 10.0539 7.58778 9.56753L7.59265 9.56266ZM3.39018 0.471919H4.21706C5.05852 0.471919 5.47682 1.23556 5.47682 2.76285C5.47682 3.40975 5.36981 3.92533 5.1558 4.30472C4.94179 4.68411 4.61103 4.87867 4.15869 4.87867H3.39018V0.476784V0.471919ZM3.39018 9.9761V5.2386H4.18787C4.71804 5.2386 5.12175 5.43802 5.38927 5.84173C5.66165 6.24058 5.79298 6.80966 5.79298 7.54412C5.79298 9.16868 5.29685 9.9761 4.29974 9.9761H3.38532H3.39018Z" fill="#172554"/>
<path d="M12.7338 10.0201C12.2912 9.98119 12.0382 9.92282 11.975 9.84013C11.9118 9.75744 11.8826 9.63585 11.8826 9.47047V5.70576H12.5344C12.7095 5.8225 12.8651 6.00247 13.0062 6.2408C13.1472 6.484 13.2883 6.76124 13.4342 7.08227L14.086 8.54632C14.3389 9.14459 14.6356 9.72826 14.9858 10.2973H21.2603V10.0201C20.3994 9.94228 19.9081 9.87418 19.7817 9.81581C19.6552 9.75744 19.5725 9.67962 19.5287 9.58234C19.485 9.48506 19.4996 9.3051 19.5774 9.04731L20.1854 7.03363H23.5026L24.2419 9.09108C24.3392 9.34401 24.3489 9.54343 24.276 9.69908C24.203 9.85472 23.9209 9.96173 23.4296 10.0152V10.2925H30.891V10.0152C30.4386 9.99578 30.103 9.97146 29.8938 9.94228C29.6798 9.91309 29.529 9.86445 29.4318 9.79636C29.3345 9.72826 29.2858 9.61639 29.2858 9.46074V1.67354L35.7014 10.3654H36.251V0.982859C36.251 0.739661 36.358 0.598606 36.5769 0.549967C36.7958 0.501327 37.1217 0.462416 37.5546 0.433232V0.155986H34.2665V0.433232C34.7189 0.452688 35.0545 0.477007 35.2637 0.506191C35.4777 0.535375 35.6285 0.584015 35.7257 0.65211C35.823 0.720205 35.8717 0.832076 35.8717 0.987723V6.43536L31.2801 0.16085H27.6029V0.438095C28.0164 0.467279 28.3374 0.554831 28.566 0.705613C28.7946 0.856396 28.9065 1.10446 28.9065 1.4498V9.47533C28.9065 9.71853 28.7994 9.85959 28.5806 9.90823C28.3957 9.94714 28.1234 9.98119 27.7829 10.0104C27.4765 9.93741 27.2819 9.84986 27.1992 9.75744C27.1117 9.6553 27.0338 9.51911 26.9657 9.34401L23.488 0.0878906H21.9218L19.1396 9.22727C19.0521 9.49965 18.9305 9.67962 18.77 9.77204C18.6289 9.85472 18.376 9.92768 18.0258 10.0006C17.8312 9.94714 17.6707 9.85472 17.5442 9.71367C17.3983 9.55316 17.2621 9.35374 17.1405 9.11054L16.2115 7.34492C15.9391 6.8342 15.5938 6.45482 15.1755 6.20675C14.7572 5.95869 14.2319 5.77872 13.6044 5.66199C14.2319 5.58417 14.7523 5.43338 15.1609 5.2145C15.5695 4.99076 15.8856 4.75243 16.1094 4.48977C16.3331 4.22712 16.4839 3.9596 16.5666 3.68722C16.6493 3.40998 16.6882 3.15219 16.6882 2.91385C16.6882 2.51987 16.6006 2.13075 16.4207 1.7465C16.2407 1.36711 15.9683 1.05095 15.5938 0.802893C15.2241 0.554831 14.835 0.389456 14.4264 0.297041C14.0227 0.204625 13.6239 0.16085 13.2396 0.16085H8.48755V0.438095C8.93017 0.477007 9.18309 0.535375 9.24633 0.618062C9.30956 0.70075 9.33874 0.822348 9.33874 0.987723V9.47533C9.33874 9.64071 9.30956 9.76231 9.24633 9.845C9.18309 9.92768 8.93017 9.98605 8.48755 10.025V10.3022H12.7338V10.025V10.0201ZM21.7029 2.08211H21.7321L23.3713 6.67369H20.3021L21.7078 2.08211H21.7029ZM11.8826 0.472144H12.6219C12.9964 0.472144 13.2931 0.613198 13.5072 0.890444C13.7212 1.17255 13.8574 1.50817 13.9255 1.89728C13.9936 2.2864 14.0276 2.64633 14.0276 2.97708C14.0276 3.86719 13.8963 4.48005 13.6385 4.82539C13.3758 5.16587 12.9721 5.34097 12.4225 5.34097H11.8875V0.472144H11.8826Z" fill="#172554"/>
<path d="M37.7249 7.29594C37.9973 7.94285 38.3767 8.5022 38.8679 8.96914C39.3592 9.43608 39.938 9.80088 40.5995 10.0538C41.261 10.3116 41.9663 10.4381 42.7202 10.4381C43.8292 10.4381 44.8506 10.1462 45.7748 9.56741L45.9353 7.37863H45.658C45.5413 7.85043 45.3516 8.29792 45.0938 8.71135C44.8311 9.12479 44.5004 9.45554 44.1016 9.7036C43.7027 9.95166 43.2406 10.0733 42.7202 10.0733C42.2289 10.0733 41.8058 9.9468 41.4507 9.68901C41.0956 9.43122 40.8086 9.08102 40.5898 8.6384C40.366 8.19577 40.2104 7.67047 40.118 7.06734C40.0256 6.4642 39.9818 5.84648 39.9818 5.21903C39.9818 4.38729 40.0499 3.66256 40.1909 3.03998C40.332 2.41739 40.5217 1.91154 40.7697 1.51756C41.0178 1.12844 41.3048 0.836601 41.6404 0.646907C41.9711 0.457212 42.3311 0.364797 42.7202 0.364797C43.2212 0.364797 43.6735 0.486396 44.0724 0.734458C44.4712 0.98252 44.8068 1.31327 45.0743 1.72671C45.3419 2.14014 45.5316 2.58763 45.6483 3.05943H45.9255L45.7796 0.870649C44.8506 0.291838 43.834 0 42.725 0C41.9711 0 41.2659 0.126463 40.6044 0.384253C39.9429 0.642043 39.3641 1.00198 38.8728 1.46892C38.3815 1.93586 37.9973 2.49521 37.7298 3.14212C37.4574 3.78903 37.326 4.47971 37.326 5.21417C37.326 5.94862 37.4622 6.63931 37.7298 7.28621L37.7249 7.29594Z" fill="#172554"/>
<path d="M71.2132 0.428369V0.151123H67.8522V0.428369C68.3921 0.477008 68.7958 0.545104 69.0536 0.637519C69.3162 0.729934 69.4816 0.861261 69.5546 1.03636C69.6275 1.21147 69.6129 1.47412 69.5205 1.83405L67.6965 8.23503H67.6674L65.9309 1.60058C65.8434 1.23579 65.858 0.953676 65.9747 0.768846C66.0914 0.579151 66.32 0.46728 66.6702 0.428369V0.151123H62.3267V0.428369C62.6088 0.486736 62.818 0.58888 62.959 0.739662C63.1001 0.890445 63.2071 1.09473 63.2849 1.35739L64.0096 3.96447L62.6769 8.10856H62.6477L60.4444 1.60545C60.2012 0.909901 60.4346 0.520784 61.1399 0.433233V0.155987H52.5356V0.433233C52.9782 0.472144 53.2311 0.530512 53.2943 0.613199C53.3576 0.695887 53.3868 0.817486 53.3868 0.98286V4.90808H49.5491V0.98286C49.5491 0.817486 49.5783 0.695887 49.6415 0.613199C49.7047 0.530512 49.9577 0.472144 50.4003 0.433233V0.155987H46.1541V0.433233C46.5967 0.472144 46.8496 0.530512 46.9128 0.613199C46.9761 0.695887 47.0052 0.817486 47.0052 0.98286V9.47047C47.0052 9.63585 46.9761 9.75745 46.9128 9.84013C46.8496 9.92282 46.5967 9.98119 46.1541 10.0201V10.2973H50.4003V10.0201C49.9577 9.98119 49.7047 9.92282 49.6415 9.84013C49.5783 9.75745 49.5491 9.63585 49.5491 9.47047V5.26801H53.3868V9.47047C53.3868 9.63585 53.3576 9.75745 53.2943 9.84013C53.2311 9.92282 52.9782 9.98119 52.5356 10.0201V10.2973H56.7818V10.0201C56.3392 9.98119 56.0863 9.92282 56.023 9.84013C55.9598 9.75745 55.9306 9.63585 55.9306 9.47047V0.98286C55.9306 0.817486 55.9598 0.695887 56.023 0.613199C56.0863 0.535376 56.3295 0.472144 56.7526 0.438096C56.9618 0.486736 57.1466 0.569423 57.312 0.686158C57.4822 0.807757 57.6233 1.0315 57.74 1.35739L60.7946 10.3654H62.3608L64.1993 4.61624L65.8093 10.3654H67.4874L70.0361 1.46926C70.1528 1.085 70.3085 0.82235 70.5079 0.695887C70.7073 0.56456 70.9457 0.477008 71.2229 0.428369H71.2132Z" fill="#172554"/>
<path d="M79.4576 1.48865C78.9664 1.01685 78.3973 0.652053 77.7504 0.394263C77.1035 0.136473 76.4371 0.0100098 75.7513 0.0100098C75.0655 0.0100098 74.3991 0.136473 73.7522 0.394263C73.1053 0.652053 72.5362 1.01685 72.045 1.48865C71.5537 1.96046 71.1646 2.51981 70.8776 3.16186C70.5906 3.8039 70.4496 4.49458 70.4496 5.22418C70.4496 5.95377 70.5906 6.64445 70.8776 7.28649C71.1646 7.92854 71.5488 8.48789 72.045 8.9597C72.5362 9.4315 73.1053 9.7963 73.7522 10.0541C74.3991 10.3119 75.0655 10.4383 75.7513 10.4383C76.4371 10.4383 77.1035 10.3119 77.7504 10.0541C78.3973 9.7963 78.9664 9.4315 79.4576 8.9597C79.9489 8.48789 80.338 7.92854 80.625 7.28649C80.912 6.64445 81.053 5.95863 81.053 5.22418C81.053 4.48972 80.912 3.8039 80.625 3.16186C80.338 2.51981 79.9538 1.96046 79.4576 1.48865ZM78.2319 7.17462C78.1298 7.76803 77.9741 8.28361 77.7601 8.7165C77.5461 9.14939 77.2689 9.48501 76.9284 9.72334C76.583 9.96167 76.1939 10.0784 75.7464 10.0784C75.406 10.0784 75.0752 10.0006 74.7542 9.84007C74.4283 9.67956 74.1462 9.40718 73.9079 9.02293C73.6647 8.63868 73.475 8.13282 73.329 7.51024C73.1831 6.88765 73.1102 6.12887 73.1102 5.22904C73.1102 4.52377 73.1588 3.87686 73.261 3.27859C73.3631 2.68519 73.5187 2.16961 73.7328 1.73672C73.9468 1.30382 74.224 0.96821 74.5645 0.729876C74.905 0.491542 75.299 0.374807 75.7464 0.374807C76.0821 0.374807 76.4128 0.45263 76.7387 0.613141C77.0597 0.773651 77.3467 1.04603 77.585 1.43029C77.8282 1.81454 78.0179 2.32039 78.1638 2.94298C78.3097 3.56556 78.3827 4.32434 78.3827 5.22418C78.3827 5.92945 78.3341 6.57636 78.2319 7.17462Z" fill="#172554"/>
<path d="M89.8275 9.10545L88.8985 7.33983C88.6262 6.82912 88.2808 6.44973 87.8625 6.20167C87.4442 5.9536 86.9189 5.77364 86.2914 5.6569C86.9189 5.57908 87.4393 5.4283 87.8479 5.20942C88.2565 4.98568 88.5726 4.74734 88.7964 4.48469C89.0201 4.22203 89.1709 3.95452 89.2536 3.68213C89.3363 3.40489 89.3752 3.1471 89.3752 2.90876C89.3752 2.51478 89.2876 2.12567 89.1077 1.74141C88.9277 1.36202 88.6553 1.04587 88.2808 0.797805C87.9111 0.549743 87.522 0.384368 87.1135 0.291953C86.7097 0.199538 86.3109 0.155762 85.9267 0.155762H81.1746V0.433008C81.6172 0.47192 81.8701 0.530287 81.9333 0.612974C81.9966 0.695662 82.0258 0.817261 82.0258 0.982635V9.47025C82.0258 9.63562 81.9966 9.75722 81.9333 9.83991C81.8701 9.9226 81.6172 9.98096 81.1746 10.0199V10.2971H85.4208V10.0199C84.9782 9.98096 84.7253 9.9226 84.662 9.83991C84.5988 9.75722 84.5696 9.63562 84.5696 9.47025V5.70554H85.2214C85.3965 5.82228 85.5521 6.00224 85.6932 6.24058C85.8342 6.48378 85.9753 6.76102 86.1212 7.08204L86.773 8.54609C87.0259 9.14436 87.3226 9.72804 87.6728 10.2971H90.8149V10.0199C90.5717 9.97124 90.382 9.86909 90.2361 9.70858C90.0902 9.54807 89.954 9.34865 89.8324 9.10545H89.8275ZM85.1046 5.34074H84.5696V0.471919H85.3089C85.6835 0.471919 85.9801 0.612974 86.1942 0.89022C86.4082 1.17233 86.5444 1.50794 86.6125 1.89706C86.6806 2.28618 86.7146 2.64611 86.7146 2.97686C86.7146 3.86696 86.5833 4.47982 86.3255 4.82516C86.0628 5.16564 85.6591 5.34074 85.1095 5.34074H85.1046Z" fill="#172554"/>
<path d="M99.7647 8.92084L97.9991 6.26999C97.7656 5.92464 97.4883 5.56471 97.1576 5.19991C96.8268 4.83512 96.5155 4.53355 96.214 4.30008L98.4465 1.5179C98.7821 1.11419 99.0983 0.841805 99.3901 0.705614C99.682 0.569423 99.9933 0.477008 100.334 0.428369V0.151123H96.4669V0.428369C96.8803 0.447825 97.2111 0.501328 97.4591 0.588879C97.7072 0.676431 97.8726 0.783438 97.9601 0.909901C98.0477 1.03636 98.0769 1.16769 98.0477 1.30875C98.0185 1.4498 97.9601 1.5714 97.8726 1.67841L95.7568 4.32927C95.4941 4.66974 95.2461 4.90808 95.0029 5.054C94.7597 5.19991 94.5019 5.2826 94.2197 5.30206V0.987724C94.2197 0.822349 94.2489 0.700751 94.3122 0.618063C94.3754 0.535376 94.6283 0.477008 95.0709 0.438096V0.160851H90.8247V0.438096C91.2673 0.477008 91.5203 0.535376 91.5835 0.618063C91.6467 0.700751 91.6759 0.822349 91.6759 0.987724V9.47534C91.6759 9.64071 91.6467 9.76231 91.5835 9.845C91.5203 9.92768 91.2673 9.98605 90.8247 10.025V10.3022H95.0709V10.025C94.6283 9.98605 94.3754 9.92768 94.3122 9.845C94.2489 9.76231 94.2197 9.64071 94.2197 9.47534V5.68145C94.531 5.73009 94.8229 5.98301 95.105 6.43536L96.248 8.36149C96.4134 8.68251 96.6177 9.02299 96.8657 9.38778C97.1138 9.75258 97.3424 10.059 97.5516 10.3022H100.986V10.025C100.772 9.97632 100.582 9.86932 100.407 9.70881C100.232 9.54343 100.022 9.28564 99.7695 8.92571L99.7647 8.92084Z" fill="#172554"/>
<path d="M107.615 5.973C107.421 5.61307 107.153 5.28232 106.813 4.99534C106.472 4.70351 105.957 4.36789 105.271 3.98364C104.585 3.59939 104.118 3.30269 103.865 3.09354C103.612 2.88439 103.422 2.67037 103.291 2.44663C103.16 2.22289 103.097 1.97969 103.097 1.70731C103.097 1.27441 103.247 0.943665 103.544 0.724787C103.846 0.501045 104.201 0.389174 104.614 0.389174C105.743 0.389174 106.599 1.33278 107.177 3.21513H107.455L107.309 0.666419C106.934 0.462133 106.482 0.306486 105.961 0.189751C105.441 0.0730163 104.955 0.0146484 104.497 0.0146484C103.87 0.0146484 103.325 0.1022 102.858 0.282166C102.396 0.462133 102.017 0.690739 101.72 0.967985C101.423 1.25009 101.219 1.56139 101.097 1.91159C100.976 2.25693 100.917 2.60228 100.917 2.93789C100.917 3.22 100.956 3.48265 101.034 3.72585C101.112 3.97391 101.229 4.20252 101.38 4.4214C101.535 4.64028 101.754 4.86402 102.046 5.10235C102.338 5.34069 102.824 5.64225 103.51 6.01678C104.196 6.38644 104.653 6.66855 104.886 6.85824C105.12 7.04794 105.295 7.2279 105.417 7.403C105.538 7.57811 105.621 7.75321 105.665 7.92345C105.708 8.09855 105.728 8.25906 105.728 8.40012C105.728 8.94002 105.563 9.35345 105.237 9.64043C104.906 9.9274 104.522 10.0685 104.079 10.0685C103.384 10.0685 102.79 9.80094 102.304 9.27077C101.817 8.74059 101.453 7.99154 101.209 7.02362H100.932L101.078 9.71825C101.462 9.93226 101.949 10.1025 102.532 10.2387C103.116 10.3749 103.666 10.443 104.176 10.443C104.804 10.443 105.358 10.3506 105.835 10.1657C106.312 9.9809 106.71 9.74257 107.022 9.441C107.333 9.13944 107.562 8.7941 107.693 8.40498C107.829 8.01586 107.897 7.62188 107.897 7.22304C107.897 6.75123 107.8 6.33293 107.605 5.96814L107.615 5.973Z" fill="#172554"/>
</svg>
