<svg width="998" height="80" viewBox="0 0 998 80" fill="none" xmlns="http://www.w3.org/2000/svg">
<g opacity="0.2" clip-path="url(#clip0_576_2736)">
<g clip-path="url(#clip1_576_2736)">
<path d="M8.89863 51.6156C8.08895 51.6174 7.2933 51.4042 6.59298 50.9978C5.89266 50.5914 5.31277 50.0064 4.91255 49.3026C4.51845 48.6037 4.3219 47.8107 4.34396 47.0087C4.36601 46.2067 4.60585 45.4257 5.03776 44.7495L13.2465 31.8591C13.6666 31.1663 14.2631 30.5975 14.975 30.2106C15.6869 29.8238 16.4888 29.6329 17.2986 29.6574C18.1079 29.6768 18.8974 29.9108 19.5865 30.3356C20.2756 30.7603 20.8394 31.3605 21.2204 32.0748C21.9856 33.5217 21.8899 35.2626 20.9734 36.6208L12.7699 49.5113C12.3539 50.1595 11.781 50.6923 11.1043 51.0601C10.4275 51.428 9.66888 51.6191 8.89863 51.6156Z" fill="#050505"/>
<path d="M22.9789 51.6151C21.3232 51.6151 19.7998 50.7298 18.9998 49.3072C18.6065 48.6102 18.4104 47.8194 18.4325 47.0194C18.4546 46.2195 18.6939 45.4406 19.125 44.7664L27.318 31.9055C27.732 31.203 28.3263 30.624 29.0395 30.2286C29.7526 29.8332 30.5585 29.6358 31.3737 29.6568C33.0432 29.6933 34.5563 30.6272 35.3215 32.0881C36.0815 33.549 35.9702 35.3003 35.0258 36.6551L26.8345 49.5159C26.4198 50.1614 25.8492 50.6921 25.1754 51.0589C24.5015 51.4258 23.7461 51.6171 22.9789 51.6151Z" fill="#050505"/>
<path d="M36.7438 51.7233C39.0778 51.7233 40.9699 49.8709 40.9699 47.5859C40.9699 45.3009 39.0778 43.4485 36.7438 43.4485C34.4098 43.4485 32.5177 45.3009 32.5177 47.5859C32.5177 49.8709 34.4098 51.7233 36.7438 51.7233Z" fill="#050505"/>
<path d="M220.337 43.689C221.614 43.689 222.377 44.5968 222.377 46.0838V51.1794H224.111V45.9673C224.111 43.4386 222.92 41.9725 220.68 41.9725C219.803 41.9725 218.412 42.2125 217.583 43.8246C217.39 43.3491 217.072 42.9347 216.662 42.6254C216.253 42.3161 215.767 42.1236 215.257 42.0681C214.936 42.0093 214.609 41.9901 214.283 42.0107C213.57 42.0681 212.301 42.5116 211.826 43.5168V42.1655H210.09V51.1794H211.826V46.3151C211.826 44.4229 213.064 43.689 214.304 43.689C215.466 43.689 216.229 44.5777 216.229 46.0646V51.1794H217.955V46.3151C217.955 44.809 218.859 43.6716 220.337 43.689ZM203.72 49.6733C204.513 49.6907 205.278 49.3742 205.833 48.8003C206.389 48.2264 206.685 47.4455 206.656 46.6438C206.656 44.8281 205.32 43.689 203.72 43.689C202.118 43.689 200.784 44.8281 200.784 46.6438C200.753 47.4438 201.049 48.2229 201.602 48.7951C202.155 49.369 202.916 49.6873 203.706 49.6733H203.72ZM203.72 51.3638C201.184 51.3638 199.068 49.4907 199.068 46.6333C199.068 43.776 201.184 41.962 203.72 41.962C206.256 41.962 208.389 43.776 208.389 46.6333C208.389 49.4907 206.243 51.3725 203.708 51.3725L203.72 51.3638ZM190.137 46.6333L190.12 46.6438C190.12 43.7864 192.292 41.9725 194.845 41.962C195.486 41.9496 196.123 42.072 196.714 42.3213C197.305 42.5705 197.838 42.9411 198.276 43.409L196.962 44.529C196.682 44.2548 196.352 44.0386 195.988 43.8929C195.625 43.7473 195.236 43.675 194.845 43.6803C193.245 43.6803 191.854 44.8194 191.854 46.6333C191.854 47.8594 192.583 48.9638 193.701 49.4333C194.819 49.9029 196.106 49.642 196.962 48.776L198.296 49.896C197.855 50.3687 197.321 50.7436 196.726 50.9965C196.132 51.2493 195.491 51.3745 194.845 51.3638C192.311 51.3638 190.137 49.4907 190.137 46.6333ZM184.584 49.449C184.582 49.2914 184.612 49.135 184.67 48.9887C184.729 48.8424 184.816 48.7091 184.926 48.5964C185.036 48.4836 185.167 48.3937 185.312 48.3317C185.457 48.2697 185.613 48.2369 185.77 48.2351C185.928 48.2369 186.084 48.2697 186.229 48.3317C186.373 48.3937 186.505 48.4836 186.615 48.5964C186.725 48.7091 186.812 48.8424 186.87 48.9887C186.929 49.135 186.958 49.2914 186.956 49.449C186.941 49.7542 186.81 50.042 186.589 50.2537C186.369 50.4654 186.076 50.585 185.77 50.5881C185.465 50.585 185.172 50.4654 184.951 50.2537C184.731 50.042 184.6 49.7542 184.584 49.449Z" fill="#050505"/>
<path fill-rule="evenodd" clip-rule="evenodd" d="M189.329 30.7061H183.153L178.824 41.8661L174.518 30.7061H168.343L175.85 48.3409L171.181 60H177.311L189.329 30.7061ZM151.77 40.5148C151.77 43.3322 154.233 45.1861 156.652 45.1861C159.03 45.1861 161.365 43.4609 161.365 40.513C161.365 37.5652 159.03 35.8383 156.652 35.8383C154.233 35.8383 151.77 37.6957 151.77 40.5148ZM161.365 50.3617V48.1304C160.113 50.0261 157.191 50.7426 155.692 50.7426C150.729 50.7426 145.764 46.8296 145.764 40.513C145.764 34.1983 150.727 30.2852 155.692 30.2852C156.943 30.2852 159.864 30.7026 161.365 32.8939V30.713H167.122V50.3652L161.365 50.3617ZM144.125 50.3617H138.369V47.92C137.407 49.7287 135.075 50.7826 132.654 50.7826C127.647 50.7826 123.224 46.7843 123.224 40.593C123.224 34.2852 127.647 30.2817 132.654 30.2817C135.071 30.2817 137.41 31.2904 138.369 33.1009V20H144.125V50.3617ZM138.243 40.4696C138.243 37.5235 136.117 35.7965 133.739 35.7965C131.277 35.7965 129.231 37.6487 129.231 40.4696C129.231 43.3809 131.277 45.2243 133.737 45.2243C136.16 45.2278 138.243 43.2904 138.243 40.4696ZM108.991 39.9617C108.991 36.9739 110.536 35.9635 112.579 35.9635C114.539 35.9635 115.958 37.2678 115.958 39.8765V50.3583H121.757V38.6157C121.757 33.0191 119.002 30.2817 114.621 30.2817C112.327 30.2817 110.033 31.5861 108.99 33.5652V30.7061H103.195V50.3583H108.991V39.9617ZM91.4209 50.6957C85.9148 50.6957 81.3218 46.6557 81.3218 40.4678C81.3218 34.2765 85.9096 30.2765 91.4209 30.2765C96.9322 30.2765 101.56 34.2765 101.56 40.4678C101.56 46.6591 96.927 50.6957 91.4209 50.6957ZM91.4209 44.9739C93.8383 44.9739 95.8435 43.2035 95.8435 40.4696C95.8435 37.8174 93.84 36.007 91.4209 36.007C90.8384 35.9978 90.2602 36.1074 89.7214 36.329C89.1826 36.5505 88.6946 36.8794 88.287 37.2957C87.877 37.7141 87.5554 38.2107 87.3412 38.756C87.127 39.3012 87.0245 39.884 87.04 40.4696C87.0418 43.207 89.0435 44.9739 91.4209 44.9739ZM70.927 35.9652C72.6365 35.9652 74.1392 37.313 74.1392 39.8783V50.3617H79.8957V39.2C79.8957 33.2661 77.0105 30.2783 72.3861 30.2783C71.0122 30.2783 68.4244 30.6957 66.5461 33.7704C65.4609 31.4974 63.3757 30.3183 60.2939 30.3183C59.224 30.3128 58.1751 30.6156 57.2727 31.1905C56.3703 31.7654 55.6525 32.588 55.2052 33.56V30.7078H49.4035V50.36H55.2V39.9617C55.2 36.9739 56.8279 35.9635 58.5792 35.9635C60.2487 35.9635 61.7479 37.2678 61.7913 39.7513V50.36H67.5896V39.9617C67.5896 37.1043 69.0922 35.9652 70.927 35.9652Z" fill="#050505"/>
</g>
<g clip-path="url(#clip2_576_2736)">
<path d="M282.167 44.8318C286.209 48.5428 289.988 48.6619 294.058 44.8218C297.502 46.7997 298.634 47.6743 300.984 50.8656C299.693 51.9594 295.915 54.0718 294.279 55.0363L292.389 56.0001C289.233 52.5961 286.923 53.3109 283.66 55.9203C281.772 55.0363 277.007 52.2694 275.312 51.0606C276.985 47.8841 279.099 46.5937 282.167 44.8318Z" fill="#050505"/>
<path d="M284.908 24.0161C286.949 24.8361 287.083 31.012 287.092 32.8449C282.395 34.5431 279.494 37.6105 281.173 42.8568C279.038 44.4571 277.214 45.1579 274.643 45.7161C273.968 45.8336 273.151 46.0065 272.509 45.7463C271.943 44.9653 272.174 37.8985 272.111 36.3104C272.554 36.1012 273.088 35.9431 273.544 35.7488C277.061 34.2495 277.403 31.8791 276.61 28.5632C279.224 27.3386 282.089 25.2357 284.908 24.0161Z" fill="#050505"/>
<path d="M290.939 24C292.075 24.065 298.774 27.9965 299.677 28.8832L299.654 28.9451L299.483 29.3963C298.034 33.298 300.801 35.0825 303.999 36.2617C304.158 37.6767 304.218 44.2396 303.882 45.4671C303.534 45.8392 303.54 45.7436 302.967 45.8892C299.616 45.3695 297.906 44.9019 295.103 42.9567C296.251 37.7139 294.285 34.3684 289.137 32.8634C289.058 29.6584 289.183 26.806 290.939 24Z" fill="#050505"/>
<path fill-rule="evenodd" clip-rule="evenodd" d="M355.672 30.0902C356.042 30.0159 356.086 29.9847 356.425 30.1116C356.873 31.0371 356.599 34.248 356.527 35.4144C363.312 33.1099 366.95 38.0902 365.791 44.3597C365.4 46.4743 364.31 47.7755 362.584 48.9417C359.728 50.4166 355.489 49.8499 352.485 49.1273C352.354 47.179 352.457 44.1115 352.451 42.0745C352.44 38.2825 352.391 34.333 352.467 30.5501C353.603 30.3481 354.525 30.212 355.672 30.0902ZM360.146 46.0277C362.671 43.8731 362.595 37.9402 358.185 38.2698L356.636 38.6741C356.616 41.2577 356.609 43.8414 356.615 46.4251C358.139 46.5069 358.717 46.6222 360.146 46.0277Z" fill="#050505"/>
<path d="M328.329 30.5561C329.535 30.5326 330.773 30.5637 331.981 30.5806L331.975 49.6104C330.595 49.6372 329.089 49.5821 327.7 49.5574C327.735 46.9115 327.698 44.1827 327.696 41.5303C325.266 41.5221 322.835 41.5298 320.405 41.5534L320.399 49.4793C319.964 49.7468 316.87 49.5792 316.128 49.558C316.224 43.3368 316.129 36.8691 316.127 30.6276L320.416 30.6348C320.401 33.0401 320.401 35.4454 320.418 37.8508C322.589 37.9953 325.478 37.9111 327.709 37.8971C327.697 36.7033 327.522 31.2971 327.894 30.6276L328.329 30.5561Z" fill="#050505"/>
<path fill-rule="evenodd" clip-rule="evenodd" d="M397.247 34.9623C407.822 32.956 405.963 42.0751 405.901 49.1449C403.221 49.8837 398.117 50.2118 395.494 49.0805C394.665 48.527 394.272 48.1802 393.776 47.2943C393.208 46.3021 393.076 45.1193 393.411 44.0268C394.173 41.4922 396.912 40.5262 399.34 40.5062C400.12 40.4998 401.374 40.8351 401.784 40.6146C402.602 36.4039 395.944 38.9874 395.181 38.4359C394.929 37.4343 394.888 36.3114 394.811 35.2748C395.596 35.1124 396.446 35.0448 397.247 34.9623ZM399.888 43.3227C396.667 43.756 396.638 46.3655 399.422 46.7533C400.155 46.7343 401.151 46.7369 401.858 46.6527C401.891 45.5327 401.919 44.5736 401.866 43.4535C401.225 43.4113 400.522 43.381 399.888 43.3227Z" fill="#050505"/>
<path d="M344.452 35.1065C345.829 35.1216 347.206 35.1193 348.583 35.0997L348.595 38.2121C348.59 41.8009 348.539 45.5152 348.652 49.0927C346.717 49.5854 344.73 49.8481 342.734 49.8755C334.113 50.0069 335.955 41.3412 335.951 35.0828C337.241 35.1604 338.83 35.1155 340.144 35.1112C340.161 37.5758 340.046 40.0794 340.108 42.5454C340.2 46.2263 341.008 46.7388 344.441 46.3734C344.495 42.659 344.452 38.8297 344.452 35.1065Z" fill="#050505"/>
<path d="M414.575 30.069C416.451 29.8928 417.781 30.1101 419.564 30.6126C419.41 31.3686 419.095 33.2101 418.656 33.7311C417.027 34.2546 414.14 31.0934 413.723 36.887L418.82 36.8562L418.765 40.2376L413.795 40.2129C413.759 41.2716 413.769 42.4003 413.761 43.4651L413.762 49.624C412.46 49.5728 410.933 49.6104 409.613 49.6109C409.667 46.4316 409.562 43.2407 409.601 40.0637C409.633 37.4158 409.212 34.3332 410.891 32.0915C411.876 30.7753 412.992 30.3012 414.575 30.069Z" fill="#050505"/>
<path d="M426.139 30.07C428.083 29.8757 429.303 30.0944 431.142 30.6194C430.909 31.7331 430.608 32.9189 430.349 34.0367C427.03 32.4865 425.551 33.4174 425.295 36.886L430.424 36.8516L430.338 40.2403C428.701 40.2112 427.007 40.2226 425.364 40.2144C425.333 41.1702 425.345 42.199 425.339 43.1609V49.6236C424.053 49.5734 422.495 49.6124 421.186 49.6098C421.239 46.4107 421.135 43.2011 421.172 40.0038C421.202 37.3716 420.788 34.3208 422.463 32.0915C423.45 30.7794 424.558 30.3019 426.139 30.07Z" fill="#050505"/>
<path d="M385.648 30.0855C385.976 30.0161 385.998 30.0301 386.334 30.0958C386.7 30.8212 386.537 34.1613 386.534 35.1748C388.093 35.0979 389.929 35.12 391.51 35.0987L391.471 38.5944L386.557 38.561C386.481 40.4097 386.184 44.4936 387.258 45.8986C388.34 47.3133 389.784 45.9464 391.224 46.1504C391.692 46.4912 391.57 46.5 391.772 47.189C391.927 47.8121 391.975 48.5964 392.035 49.247C388.587 50.4384 383.481 50.4271 382.685 45.8873C382.319 43.7964 382.44 41.4818 382.446 39.3511C382.469 36.4593 382.458 33.5673 382.412 30.6758C383.642 30.376 384.391 30.2454 385.648 30.0855Z" fill="#050505"/>
<path d="M373.508 34.8027C375.007 34.6148 377.328 35.0602 378.781 35.339C378.651 36.3894 378.379 37.5872 378.165 38.6396C377.706 38.4826 377.237 38.3576 376.761 38.2657C375.828 38.0832 372.822 37.7735 372.595 39.0261C373.524 41.4613 379.39 41.0255 379.494 45.0398C379.599 49.16 376.796 49.8298 373.342 49.9994C371.504 50.0152 369.947 49.7711 368.241 49.1097C368.542 47.884 368.765 47.0123 368.905 45.7629C370.076 46.234 375.583 47.759 375.385 45.3343C374.644 44.1713 371.536 43.5231 370.376 42.5463C369.535 41.838 368.756 41.1762 368.654 39.9902C368.361 36.5802 370.418 35.1732 373.508 34.8027Z" fill="#050505"/>
</g>
<g clip-path="url(#clip3_576_2736)">
<path d="M517.933 32.9116C516.091 32.9674 514.473 34.0279 513.691 35.6465V33.1907H510.398V52H513.803V45.7488C513.803 45.7488 514.64 48.3163 518.491 48.3163C521.84 48.3163 524.687 45.2465 524.687 40.6698C524.687 36.1488 521.84 32.9116 517.933 32.9116ZM517.431 44.9674C515.366 44.9674 513.803 43.4046 513.803 40.7256C513.803 37.9907 515.366 36.3163 517.431 36.3163C519.552 36.3163 521.003 38.1023 521.003 40.7256C521.003 43.3488 519.552 44.9674 517.431 44.9674Z" fill="#050505"/>
<path d="M489.97 28V35.0326C488.854 33.3023 487.458 32.9674 485.952 32.9674C481.989 32.9674 479.142 36.0372 479.142 40.6698C479.142 45.3023 481.989 48.3721 485.952 48.3721C487.458 48.3721 489.579 47.3674 490.193 45.6372V48.2605H493.486V28H489.97ZM486.454 44.9674C484.333 44.9674 482.826 43.3488 482.826 40.6698C482.826 37.9907 484.277 36.3163 486.454 36.3163C488.519 36.3163 490.082 37.8791 490.082 40.614C490.138 43.4047 488.575 44.9674 486.454 44.9674Z" fill="#050505"/>
<path d="M535.18 42.623C535.18 44.0742 534.063 44.9672 532.333 44.9672C530.994 44.9672 529.542 44.3532 529.542 42.0648V33.1904H526.249V42.7346C526.249 45.8044 527.868 48.316 531.384 48.316C533.17 48.316 535.124 46.9207 535.403 45.7486V48.2044H538.528V33.1904H535.124V42.623H535.18Z" fill="#050505"/>
<path d="M543.161 30.1768C543.161 30.1768 542.994 33.1907 540.315 33.1907V36.3721H541.933V44.0186C541.933 47.0326 543.328 48.3721 546.008 48.3721C546.901 48.3721 547.794 48.2605 548.687 47.9814V44.5209C548.073 44.8 547.347 44.9675 546.677 44.9675C545.952 44.9675 545.338 44.6326 545.338 43.6837V36.3721H550.584L554.045 47.7582L552.426 52H555.942L562.752 33.1907H559.124L555.942 42.9582L552.817 33.1907H545.338V30.1768H543.161Z" fill="#050505"/>
<path d="M498.733 39.0512H505.263C505.152 37.1535 504.147 36.0372 502.249 36.0372C500.296 36.0372 498.956 37.2651 498.733 39.0512ZM502.696 48.3721C498.454 48.3721 495.049 45.4698 495.049 40.7814C495.049 35.7581 498.287 32.9116 502.249 32.9116C505.766 32.9116 508.724 35.0884 508.724 40.5581C508.724 40.9488 508.668 41.3395 508.668 41.7302H498.677C498.845 43.907 500.798 44.9674 503.254 44.9674C506.435 44.9674 508.054 43.8512 508.054 43.8512V47.0884C508.11 47.0884 506.268 48.3721 502.696 48.3721Z" fill="#050505"/>
<path d="M573.468 37.7114C573.3 37.9904 573.244 38.2137 573.133 38.437L571.124 45.1904H574.026L575.756 39.2183C575.812 38.9393 576.091 38.8277 576.37 38.8835C576.482 38.8835 576.537 38.9393 576.593 39.0509L579.496 42.1207L581.003 39.5532L578.77 37.209C577.598 35.8137 575.533 35.6463 574.137 36.8183C573.914 37.0974 573.691 37.3765 573.468 37.7114Z" fill="#050505"/>
<path d="M571.57 36.595C571.514 36.595 571.514 36.595 571.57 36.595C571.403 36.316 571.291 36.1485 571.068 35.9253L566.212 30.8462L564.705 33.302L569.059 37.8787C569.226 38.0462 569.226 38.3811 569.059 38.5485C569.003 38.6043 568.891 38.6601 568.835 38.6601L564.705 39.609L566.212 42.1764L569.338 41.395C571.124 41.0601 572.296 39.3857 571.961 37.5997C571.849 37.2648 571.738 36.9299 571.57 36.595Z" fill="#050505"/>
<path d="M573.468 35.5347C573.747 35.5347 574.026 35.4789 574.249 35.4231L581.114 33.7487L579.775 31.1812L573.635 32.6882C573.356 32.744 573.133 32.5766 573.077 32.3533C573.077 32.2417 573.077 32.1859 573.077 32.0743L574.305 28.0557H571.347L570.454 31.1254C569.84 32.8557 570.733 34.6975 572.463 35.3115C572.742 35.4231 573.077 35.4789 573.468 35.5347Z" fill="#050505"/>
</g>
<g clip-path="url(#clip4_576_2736)">
<path fill-rule="evenodd" clip-rule="evenodd" d="M651.769 16.101C664.965 15.358 676.266 25.4511 677.013 38.6469C677.76 51.8428 667.669 63.1462 654.474 63.8969C641.273 64.6476 629.963 54.5533 629.216 41.352C628.469 28.1507 638.567 16.8444 651.769 16.101ZM672.223 39.3305C671.848 35.925 668.78 33.4706 665.375 33.851C661.978 34.2312 659.529 37.2902 659.904 40.6879C660.278 44.0853 663.335 46.5379 666.733 46.1694C670.138 45.7993 672.598 42.7357 672.223 39.3305ZM660.32 33.8344C660.009 33.8289 659.679 33.8142 659.372 33.8452C657.899 33.9911 656.497 34.5284 655.553 35.7055C654.154 37.4493 654.267 39.3353 654.264 41.4184C654.256 42.4415 654.261 43.4648 654.278 44.4877C653.274 43.2615 652.057 41.5986 651.032 40.4633C650.609 40.9882 649.637 42.259 649.225 42.6743C649.313 42.7808 649.41 42.8923 649.493 43.0024C650.226 43.9341 651.164 45.2374 651.989 46.0268C652.235 46.2622 656.821 46.2387 657.084 46.0385C657.248 45.6629 657.21 44.8717 657.21 44.4428L657.207 41.4584C657.206 39.6968 657.004 37.6131 659.04 36.7709C659.383 36.6293 660.23 36.5543 660.277 36.3305C660.397 35.74 660.339 34.4434 660.32 33.8344ZM645.598 33.8344C644.378 33.7756 643.013 33.8347 641.781 33.8139C641.42 33.8079 639.904 33.7991 639.608 33.8452C637.97 33.9865 636.456 34.7755 635.403 36.0366C632.712 39.2583 633.988 44.1599 637.812 45.7036C639.188 46.2591 640.335 46.1734 641.779 46.1733L645.053 46.1723L645.534 46.1635C646.2 45.785 647.753 43.6597 648.299 42.9809C648.714 42.4658 650.332 40.5549 650.536 40.0346C650.544 39.5823 647.551 36.1808 647.174 35.5893C646.961 35.2557 645.959 34.0564 645.598 33.8344ZM665.607 36.5698C667.489 36.3194 669.224 37.6304 669.496 39.5102C669.769 41.39 668.478 43.1404 666.602 43.435C665.369 43.6281 664.126 43.1428 663.349 42.1655C662.572 41.1881 662.381 39.868 662.848 38.7104C663.315 37.5528 664.369 36.7349 665.607 36.5698ZM641.675 36.5278C642.509 36.5378 643.504 36.4978 644.316 36.5541C644.748 36.9931 645.32 37.7561 645.716 38.2514C646.09 38.7203 646.762 39.5246 647.041 40.02C646.812 40.3933 646.211 41.0731 645.91 41.4653C645.451 42.0636 644.937 42.7251 644.444 43.2973C644.295 43.4685 644.224 43.4548 644.003 43.4584H641.625C640.313 43.4583 639.129 43.5749 638.025 42.7299C637.299 42.1691 636.827 41.3396 636.715 40.4291C636.6 39.5215 636.85 38.6044 637.409 37.8803C638.014 37.1048 638.8 36.6798 639.769 36.562C640.152 36.5107 641.265 36.5228 641.675 36.5278ZM637.626 38.8471C637.162 39.2473 637.16 40.4954 637.505 40.9916C637.637 41.1791 638.05 41.1479 638.258 41.1616C639.782 41.1446 641.366 41.1911 642.884 41.142C643.031 41.1358 643.137 41.1499 643.244 41.059C643.312 40.7812 643.276 39.2042 643.24 38.8872C642.775 38.8234 642.241 38.8266 641.768 38.8325C640.392 38.8496 639 38.8083 637.626 38.8471ZM655.308 33.9467C655.061 33.7283 652.801 33.803 652.364 33.8256C652.309 33.8285 652.254 33.8316 652.199 33.8354C651.412 34.1961 650.251 36.1819 649.587 36.8559C649.498 36.9468 649.321 37.2045 649.246 37.3159C649.664 37.7962 650.695 39.036 651.04 39.5366C651.265 39.2652 651.475 39.0077 651.688 38.727L653.893 35.9624C654.175 35.6122 655.335 34.3012 655.308 33.9467Z" fill="#050505"/>
</g>
<g clip-path="url(#clip5_576_2736)">
<path d="M775.362 31.0761C775.37 31.0749 775.378 31.0736 775.386 31.0724C777.605 30.9262 779.786 31.6537 781.451 33.1353C781.646 33.309 781.791 33.485 781.959 33.6542C784.929 36.6496 785.142 41.9493 782.6 45.2834C781.106 47.2431 779.047 48.2729 776.622 48.5968C775.956 48.6099 775.323 48.635 774.665 48.5084C773.047 48.1971 771.66 47.6308 770.41 46.5415C768.729 45.048 767.694 42.9594 767.524 40.7172C767.453 39.6958 767.494 38.6565 767.729 37.6595C768.604 33.9462 771.549 31.3278 775.362 31.0761ZM776.243 44.5656C781.702 43.9146 780.941 34.7637 775.665 35.0264C774.917 35.1305 774.397 35.2296 773.766 35.6905C770.41 38.1401 771.467 44.8438 776.243 44.5656Z" fill="#050505"/>
<path d="M788.986 24H789.994C790.141 24.2304 790.084 25.5911 790.083 25.9323L790.08 28.9853L790.079 31.5107C790.079 31.9593 790.096 32.5785 790.058 33.0127C791.558 31.6006 793.104 31.1013 795.197 31.1347C797.115 31.1653 798.928 31.9672 800.319 33.3257C800.686 33.6843 801.017 34.1373 801.336 34.538C801.91 35.4182 802.324 36.3815 802.615 37.3861C802.733 37.7926 802.752 38.5349 802.864 38.8146V40.9561C802.783 41.1913 802.701 41.9533 802.604 42.3005C802.215 43.6903 801.669 44.7687 800.741 45.8536C799.384 47.4287 797.462 48.4067 795.39 48.5762C794.029 48.6795 792.207 48.1881 791.044 47.4448C790.701 47.2259 790.229 46.7958 789.899 46.5126C789.658 48.2342 788.435 48.1942 787.021 48.1849C786.57 48.1807 786.119 48.1835 785.668 48.1934C785.633 47.8494 785.654 47.3365 785.656 46.9736L785.658 45.0406L785.659 38.2636L785.657 30.6046L785.656 28.2165C785.657 27.7935 785.653 27.3471 785.67 26.9402C785.718 25.8195 786.429 24.6804 787.512 24.2998C788.024 24.12 788.467 24.1052 788.986 24ZM794.573 44.507C795.374 44.5033 796.227 44.1182 796.851 43.6216C799.95 41.1558 798.561 35.0495 794.228 35.1252C794.163 35.1262 794.099 35.1304 794.035 35.1379C791.4 35.3416 789.895 37.8738 790.102 40.3594C790.197 41.6295 790.801 42.8074 791.777 43.6264C792.485 44.2256 793.591 44.5946 794.518 44.5128C794.537 44.5112 794.555 44.5093 794.573 44.507Z" fill="#050505"/>
<path d="M725.114 38.1043C725.215 37.6998 725.212 37.1934 725.304 36.7457C726.221 32.32 730.526 30.2954 734.693 31.2998C735.893 31.5891 737.232 32.3637 737.999 33.369C738.199 33.1189 738.46 32.9139 738.696 32.7006C741.222 30.4158 745.905 30.561 748.424 32.7505C750.839 34.8495 750.812 37.7394 750.74 40.6535C750.729 41.0728 750.746 41.5012 750.738 41.9213C750.642 44.2964 751.439 47.8334 748.058 48.1565C747.507 48.2091 746.978 48.1731 746.433 48.1857C746.376 47.5428 746.421 46.2523 746.422 45.5571L746.424 40.2983C746.424 39.3851 746.512 37.9711 746.252 37.1501C745.798 35.7157 744.385 35.1359 742.974 35.2877C741.84 35.4097 741.366 35.7612 740.634 36.605C739.983 37.4065 740.109 39.0733 740.111 40.0582L740.115 43.4963C740.116 45.1175 740.262 46.986 738.532 47.8634C737.653 48.3097 736.688 48.1332 735.752 48.1939L735.753 41.3392C735.754 40.32 735.815 38.2883 735.622 37.3855C735.509 36.8545 735.245 36.3675 734.862 35.9824C733.818 34.9483 731.407 35.0663 730.39 36.1288C729.293 37.2752 729.449 38.9045 729.451 40.3759L729.456 43.722C729.456 44.3554 729.486 44.9887 729.389 45.6029C729.098 47.4455 727.982 48.1902 726.167 48.1884C725.883 48.1881 725.377 48.2105 725.128 48.117L725.114 48.112V38.1043Z" fill="#050505"/>
<path d="M759.444 43.214C759.902 42.2574 760.213 41.1288 760.575 40.1177L762.383 35.2089C762.844 33.935 763.184 32.0791 764.696 31.6022C765.9 31.2222 767.425 31.4732 768.695 31.4082C768.529 31.943 768.263 32.4155 768.069 32.9319C767.71 33.8848 767.355 34.8049 766.939 35.735C766.651 36.3783 766.421 37.0999 766.154 37.7594L764.38 42.0776L761.803 48.4696C761.399 49.4903 761.042 50.5128 760.572 51.5097C760.414 51.8445 760.205 52.3965 760.012 52.7046C759.389 53.7007 758.611 54.656 757.551 55.2059C756.862 55.5632 756.06 55.7617 755.298 55.8627C755.08 55.8916 754.512 55.9493 754.335 56H754.022C753.826 55.732 753.563 55.0212 753.426 54.6906L752.336 52.0035C754.851 52.0701 756.122 51.5219 756.739 48.9067C756.883 48.2946 756.787 47.9892 756.581 47.3881C756.313 46.6155 755.959 45.8796 755.643 45.1267L754.319 41.8851L750.063 31.406C751.211 31.4626 754.333 31.1117 755.032 32.0282C755.789 33.0202 756.379 35.1128 756.85 36.3283L758.12 39.6511C758.597 40.8822 759.024 41.9387 759.444 43.214Z" fill="#050505"/>
</g>
<g clip-path="url(#clip6_576_2736)">
<path d="M866.918 22C875.782 22 882.972 29.1895 882.972 38.0537C882.972 46.9181 875.782 54.1074 866.918 54.1074C858.049 54.1073 850.864 46.918 850.864 38.0537C850.864 29.1895 858.054 22.0001 866.918 22ZM861.566 31.8086C858.117 31.8086 855.321 34.6051 855.32 38.0537C855.32 41.5024 858.112 44.2939 861.566 44.2939H862.457V41.9775H861.566C859.4 41.9775 857.642 40.2189 857.642 38.0537C857.642 35.8886 859.4 34.1309 861.566 34.1309H863.71V46.2607C863.71 47.539 864.748 48.5771 866.026 48.5771V31.8086H861.566ZM867.811 44.2939H872.272C875.72 44.2939 878.517 41.4971 878.517 38.0537C878.517 34.6104 875.725 31.8145 872.272 31.8145H871.379V34.1309H872.272C874.437 34.1309 876.194 35.8887 876.194 38.0537C876.194 40.2189 874.437 41.9775 872.272 41.9775H870.127V29.8467C870.127 28.5686 869.089 27.5303 867.811 27.5303V44.2939Z" fill="#050505"/>
<path d="M898.212 58H895.729V51.713H895.687C895.046 52.7043 893.783 53.3252 892.395 53.3252C889.374 53.3252 887.512 50.9252 887.512 48.0295C887.512 45.1339 889.499 42.8121 892.332 42.8121C894.153 42.8121 895.27 43.6991 895.766 44.4869H895.828V43.0991H898.207V58H898.212ZM892.896 51.2539C894.717 51.2539 895.812 49.6208 895.812 48.0661C895.812 46.5113 894.717 44.8365 892.896 44.8365C890.976 44.8365 890.042 46.4695 890.042 48.0243C890.042 49.5739 890.971 51.2539 892.896 51.2539ZM909.357 53.033H906.999V51.4365H906.957C906.524 52.4278 905.345 53.32 903.873 53.32C901.286 53.32 900.211 51.3321 900.211 49.3078V43.0991H902.694V48.6034C902.694 49.7826 902.96 51.2487 904.557 51.2487C906.153 51.2487 906.873 49.8817 906.873 48.5617V43.0991H909.357V53.0278V53.033ZM911.851 42.8852H914.334V52.8191H911.851V42.8852ZM923.616 45.8539C923.225 45.2956 922.374 44.8782 921.566 44.8782C919.745 44.8782 918.832 46.5113 918.832 48.0661C918.832 49.6208 919.766 51.2539 921.644 51.2539C922.411 51.2539 923.256 50.9408 923.736 50.3669L925.286 51.9374C924.456 52.8243 923.089 53.3252 921.623 53.3252C918.686 53.3252 916.244 51.3791 916.244 48.0713C916.244 44.7634 918.644 42.8174 921.56 42.8174C923.011 42.8174 924.519 43.3965 925.306 44.3669L923.611 45.8539H923.616ZM926.538 37.3913H929.021V47.2782H929.084L932.851 43.0991H936.039L931.734 47.5913L936.31 53.033H933.023L929.089 47.9408H929.026V53.033H926.543V37.3965L926.538 37.3913ZM939.92 37.3913V44.3669H939.983C940.499 43.7252 941.491 42.8174 943.317 42.8174C946.15 42.8174 948.138 45.0921 948.138 48.0348C948.138 50.9774 946.275 53.3304 943.254 53.3304C941.866 53.3304 940.52 52.6887 939.842 51.5513H939.8V53.0434H937.442V37.3965H939.926L939.92 37.3913ZM942.753 44.8417C940.932 44.8417 939.837 46.5165 939.837 48.0713C939.837 49.6261 940.932 51.2591 942.753 51.2591C944.679 51.2591 945.607 49.5843 945.607 48.0295C945.607 46.4748 944.679 44.8417 942.753 44.8417ZM954.607 42.8121C957.607 42.8121 960.007 44.9043 960.007 48.0295C960.007 51.1548 957.607 53.3252 954.607 53.3252C951.607 53.3252 949.207 51.1548 949.207 48.0295C949.207 44.9043 951.607 42.8121 954.607 42.8121ZM954.607 51.2539C956.574 51.2539 957.482 49.5791 957.482 48.0243C957.482 46.4695 956.574 44.8365 954.607 44.8365C952.64 44.8365 951.732 46.4695 951.732 48.0243C951.732 49.5791 952.64 51.2539 954.607 51.2539ZM966.492 42.8121C969.492 42.8121 971.892 44.9043 971.892 48.0295C971.892 51.1548 969.492 53.3252 966.492 53.3252C963.492 53.3252 961.092 51.1548 961.092 48.0295C961.092 44.9043 963.492 42.8121 966.492 42.8121ZM966.492 51.2539C968.459 51.2539 969.367 49.5791 969.367 48.0243C969.367 46.4695 968.459 44.8365 966.492 44.8365C964.526 44.8365 963.618 46.4695 963.618 48.0243C963.618 49.5739 964.526 51.2539 966.492 51.2539ZM973.395 37.3913H975.879V47.2782H975.941L979.708 43.0991H982.891L978.592 47.5913L983.162 53.033H979.875L975.941 47.9408H975.879V53.033H973.395V37.3965V37.3913ZM989.939 45.7495C989.506 45.1704 988.677 44.6747 987.769 44.6747C986.986 44.6747 986.172 44.9669 986.172 45.7547C986.172 46.5426 986.939 46.7304 988.322 47.0591C989.793 47.4139 991.531 48.0713 991.531 50.0174C991.531 52.4382 989.564 53.3304 987.393 53.3304C985.865 53.3304 984.268 52.7513 983.313 51.6974L984.946 50.1687C985.484 50.873 986.418 51.4104 987.492 51.4104C988.218 51.4104 989.089 51.1182 989.089 50.2313C989.089 49.4017 988.322 49.1565 986.814 48.8017C985.343 48.4469 983.877 47.8521 983.877 45.9895C983.877 43.7721 985.865 42.8278 987.832 42.8278C989.256 42.8278 990.748 43.3234 991.557 44.3356L989.95 45.7652L989.939 45.7495ZM914.715 29.5443C914.715 32.0643 916.729 33.9008 919.291 33.9008C921.852 33.9008 923.872 32.0643 923.872 29.5443V23.7634H921.388V29.2521C921.388 30.6087 920.48 31.5217 919.286 31.5217C918.091 31.5217 917.178 30.6139 917.178 29.2521V23.7634H914.699L914.715 29.5443ZM930.508 26.0852H933.472V33.7026H935.95V26.0852H938.908V23.7634H930.508V26.0852ZM928.901 23.7634H926.423V33.7078H928.901V23.7634ZM904.703 26.0852H907.666V33.7026H910.145V26.0852H913.103V23.7634H904.708V26.0852H904.703ZM891.691 23.7634H889.212V33.7078H891.691V23.7634ZM903.399 27.9217C903.399 25.4017 901.379 23.5652 898.818 23.5652C896.256 23.5652 894.237 25.4017 894.237 27.9217V33.7026H896.715V28.2139C896.715 26.8574 897.623 25.9443 898.818 25.9443C900.012 25.9443 900.92 26.8521 900.92 28.2139V33.7026H903.399V27.9217Z" fill="#050505"/>
</g>
</g>
<defs>
<clipPath id="clip0_576_2736">
<rect width="998" height="80" fill="white"/>
</clipPath>
<clipPath id="clip1_576_2736">
<rect width="219.769" height="40" fill="white" transform="translate(4.34241 20)"/>
</clipPath>
<clipPath id="clip2_576_2736">
<rect width="159.031" height="32" fill="white" transform="translate(272.111 24)"/>
</clipPath>
<clipPath id="clip3_576_2736">
<rect width="101.972" height="24" fill="white" transform="translate(479.142 28)"/>
</clipPath>
<clipPath id="clip4_576_2736">
<rect width="48" height="48" fill="white" transform="translate(629.114 16)"/>
</clipPath>
<clipPath id="clip5_576_2736">
<rect width="77.75" height="32" fill="white" transform="translate(725.114 24)"/>
</clipPath>
<clipPath id="clip6_576_2736">
<rect width="140.687" height="36" fill="white" transform="translate(850.864 22)"/>
</clipPath>
</defs>
</svg>
