<svg width="316" height="250" viewBox="0 0 316 250" fill="none" xmlns="http://www.w3.org/2000/svg">
<path d="M307 0.5C311.694 0.5 315.5 4.30558 315.5 9V49C315.5 53.6944 311.694 57.5 307 57.5H9C4.30558 57.5 0.5 53.6944 0.5 49V9C0.5 4.30558 4.30558 0.5 9 0.5H307Z" fill="white"/>
<path d="M307 0.5C311.694 0.5 315.5 4.30558 315.5 9V49C315.5 53.6944 311.694 57.5 307 57.5H9C4.30558 57.5 0.5 53.6944 0.5 49V9C0.5 4.30558 4.30558 0.5 9 0.5H307Z" stroke="#E5E5E5"/>
<rect x="13" y="13" width="32" height="32" rx="16" fill="#1E40AF"/>
<path d="M22.3333 33.6668V24.3335H35.6667V26.3335H34.3333L31 29.6668H25V31.0002H29.6667L27 33.6668H22.3333ZM25 28.3335H29V27.0002H25V28.3335ZM29.6667 35.0002V33.8335L34.1 29.4002L35.2667 30.5668L30.8333 35.0002H29.6667ZM35.6667 30.1668L34.5 29.0002L35.1 28.4002C35.1556 28.3446 35.2167 28.3168 35.2833 28.3168C35.35 28.3168 35.4111 28.3446 35.4667 28.4002L36.2667 29.2002C36.3222 29.2557 36.35 29.3168 36.35 29.3835C36.35 29.4502 36.3222 29.5113 36.2667 29.5668L35.6667 30.1668Z" fill="#EFF6FF"/>
<path d="M54.1477 35V23.3636H58.6023C59.4432 23.3636 60.142 23.4962 60.6989 23.7614C61.2595 24.0227 61.678 24.3807 61.9545 24.8352C62.2348 25.2898 62.375 25.8049 62.375 26.3807C62.375 26.8542 62.2841 27.2595 62.1023 27.5966C61.9205 27.9299 61.6761 28.2008 61.3693 28.4091C61.0625 28.6174 60.7197 28.767 60.3409 28.858V28.9716C60.7538 28.9943 61.1496 29.1212 61.5284 29.3523C61.911 29.5795 62.2235 29.9015 62.4659 30.3182C62.7083 30.7348 62.8295 31.2386 62.8295 31.8295C62.8295 32.4318 62.6837 32.9735 62.392 33.4545C62.1004 33.9318 61.661 34.3087 61.0739 34.5852C60.4867 34.8617 59.7481 35 58.858 35H54.1477ZM56.2557 33.2386H58.5227C59.2879 33.2386 59.839 33.0928 60.1761 32.8011C60.517 32.5057 60.6875 32.1269 60.6875 31.6648C60.6875 31.3201 60.6023 31.0095 60.4318 30.733C60.2614 30.4527 60.0189 30.233 59.7045 30.0739C59.3902 29.911 59.0152 29.8295 58.5795 29.8295H56.2557V33.2386ZM56.2557 28.3125H58.3409C58.7045 28.3125 59.0322 28.2462 59.3239 28.1136C59.6155 27.9773 59.8447 27.786 60.0114 27.5398C60.1818 27.2898 60.267 26.9943 60.267 26.6534C60.267 26.2027 60.108 25.8314 59.7898 25.5398C59.4754 25.2481 59.0076 25.1023 58.3864 25.1023H56.2557V28.3125ZM68.3793 35.1705C67.527 35.1705 66.7884 34.983 66.1634 34.608C65.5384 34.233 65.0535 33.7083 64.7088 33.0341C64.3679 32.3598 64.1974 31.572 64.1974 30.6705C64.1974 29.7689 64.3679 28.9792 64.7088 28.3011C65.0535 27.6231 65.5384 27.0966 66.1634 26.7216C66.7884 26.3466 67.527 26.1591 68.3793 26.1591C69.2315 26.1591 69.9702 26.3466 70.5952 26.7216C71.2202 27.0966 71.7031 27.6231 72.044 28.3011C72.3887 28.9792 72.5611 29.7689 72.5611 30.6705C72.5611 31.572 72.3887 32.3598 72.044 33.0341C71.7031 33.7083 71.2202 34.233 70.5952 34.608C69.9702 34.983 69.2315 35.1705 68.3793 35.1705ZM68.3906 33.5227C68.8527 33.5227 69.2391 33.3958 69.5497 33.142C69.8603 32.8845 70.0914 32.5398 70.2429 32.108C70.3982 31.6761 70.4759 31.1951 70.4759 30.6648C70.4759 30.1307 70.3982 29.6477 70.2429 29.2159C70.0914 28.7803 69.8603 28.4337 69.5497 28.1761C69.2391 27.9186 68.8527 27.7898 68.3906 27.7898C67.9171 27.7898 67.5232 27.9186 67.2088 28.1761C66.8982 28.4337 66.6652 28.7803 66.5099 29.2159C66.3584 29.6477 66.2827 30.1307 66.2827 30.6648C66.2827 31.1951 66.3584 31.6761 66.5099 32.108C66.6652 32.5398 66.8982 32.8845 67.2088 33.142C67.5232 33.3958 67.9171 33.5227 68.3906 33.5227ZM78.1136 35.1705C77.2614 35.1705 76.5227 34.983 75.8977 34.608C75.2727 34.233 74.7879 33.7083 74.4432 33.0341C74.1023 32.3598 73.9318 31.572 73.9318 30.6705C73.9318 29.7689 74.1023 28.9792 74.4432 28.3011C74.7879 27.6231 75.2727 27.0966 75.8977 26.7216C76.5227 26.3466 77.2614 26.1591 78.1136 26.1591C78.9659 26.1591 79.7045 26.3466 80.3295 26.7216C80.9545 27.0966 81.4375 27.6231 81.7784 28.3011C82.1231 28.9792 82.2955 29.7689 82.2955 30.6705C82.2955 31.572 82.1231 32.3598 81.7784 33.0341C81.4375 33.7083 80.9545 34.233 80.3295 34.608C79.7045 34.983 78.9659 35.1705 78.1136 35.1705ZM78.125 33.5227C78.5871 33.5227 78.9735 33.3958 79.2841 33.142C79.5947 32.8845 79.8258 32.5398 79.9773 32.108C80.1326 31.6761 80.2102 31.1951 80.2102 30.6648C80.2102 30.1307 80.1326 29.6477 79.9773 29.2159C79.8258 28.7803 79.5947 28.4337 79.2841 28.1761C78.9735 27.9186 78.5871 27.7898 78.125 27.7898C77.6515 27.7898 77.2576 27.9186 76.9432 28.1761C76.6326 28.4337 76.3996 28.7803 76.2443 29.2159C76.0928 29.6477 76.017 30.1307 76.017 30.6648C76.017 31.1951 76.0928 31.6761 76.2443 32.108C76.3996 32.5398 76.6326 32.8845 76.9432 33.142C77.2576 33.3958 77.6515 33.5227 78.125 33.5227ZM85.9162 32.2614L85.9105 29.7784H86.2401L89.3764 26.2727H91.7798L87.9219 30.5682H87.4957L85.9162 32.2614ZM84.0412 35V23.3636H86.098V35H84.0412ZM89.5185 35L86.6776 31.0284L88.0639 29.5795L91.9787 35H89.5185ZM95.0256 32.2614L95.0199 29.7784H95.3494L98.4858 26.2727H100.889L97.0312 30.5682H96.6051L95.0256 32.2614ZM93.1506 35V23.3636H95.2074V35H93.1506ZM98.6278 35L95.7869 31.0284L97.1733 29.5795L101.088 35H98.6278ZM105.764 35.1705C104.889 35.1705 104.134 34.9886 103.497 34.625C102.865 34.2576 102.378 33.7386 102.037 33.0682C101.696 32.3939 101.526 31.6004 101.526 30.6875C101.526 29.7898 101.696 29.0019 102.037 28.3239C102.382 27.642 102.863 27.1117 103.48 26.733C104.098 26.3504 104.823 26.1591 105.656 26.1591C106.194 26.1591 106.702 26.2462 107.179 26.4205C107.66 26.5909 108.084 26.8561 108.452 27.2159C108.823 27.5758 109.115 28.0341 109.327 28.5909C109.539 29.1439 109.645 29.803 109.645 30.5682V31.1989H102.491V29.8125H107.673C107.67 29.4186 107.584 29.0682 107.418 28.7614C107.251 28.4508 107.018 28.2064 106.719 28.0284C106.423 27.8504 106.079 27.7614 105.685 27.7614C105.264 27.7614 104.895 27.8636 104.577 28.0682C104.259 28.2689 104.01 28.5341 103.832 28.8636C103.658 29.1894 103.569 29.5473 103.565 29.9375V31.1477C103.565 31.6553 103.658 32.0909 103.844 32.4545C104.029 32.8144 104.289 33.0909 104.622 33.2841C104.955 33.4735 105.346 33.5682 105.793 33.5682C106.092 33.5682 106.363 33.5265 106.605 33.4432C106.848 33.3561 107.058 33.2292 107.236 33.0625C107.414 32.8958 107.548 32.6894 107.639 32.4432L109.56 32.6591C109.438 33.1667 109.207 33.6098 108.866 33.9886C108.529 34.3636 108.098 34.6553 107.571 34.8636C107.045 35.0682 106.442 35.1705 105.764 35.1705ZM115.249 35.1705C114.374 35.1705 113.618 34.9886 112.982 34.625C112.349 34.2576 111.862 33.7386 111.521 33.0682C111.18 32.3939 111.01 31.6004 111.01 30.6875C111.01 29.7898 111.18 29.0019 111.521 28.3239C111.866 27.642 112.347 27.1117 112.964 26.733C113.582 26.3504 114.307 26.1591 115.141 26.1591C115.679 26.1591 116.186 26.2462 116.663 26.4205C117.144 26.5909 117.569 26.8561 117.936 27.2159C118.307 27.5758 118.599 28.0341 118.811 28.5909C119.023 29.1439 119.129 29.803 119.129 30.5682V31.1989H111.976V29.8125H117.158C117.154 29.4186 117.069 29.0682 116.902 28.7614C116.735 28.4508 116.502 28.2064 116.203 28.0284C115.908 27.8504 115.563 27.7614 115.169 27.7614C114.749 27.7614 114.379 27.8636 114.061 28.0682C113.743 28.2689 113.495 28.5341 113.317 28.8636C113.143 29.1894 113.054 29.5473 113.05 29.9375V31.1477C113.05 31.6553 113.143 32.0909 113.328 32.4545C113.514 32.8144 113.773 33.0909 114.107 33.2841C114.44 33.4735 114.83 33.5682 115.277 33.5682C115.576 33.5682 115.847 33.5265 116.089 33.4432C116.332 33.3561 116.542 33.2292 116.72 33.0625C116.898 32.8958 117.033 32.6894 117.124 32.4432L119.044 32.6591C118.923 33.1667 118.692 33.6098 118.351 33.9886C118.014 34.3636 117.582 34.6553 117.055 34.8636C116.529 35.0682 115.927 35.1705 115.249 35.1705ZM120.869 38.2727V26.2727H122.892V27.7159H123.011C123.117 27.5038 123.267 27.2784 123.46 27.0398C123.653 26.7973 123.915 26.5909 124.244 26.4205C124.574 26.2462 124.994 26.1591 125.506 26.1591C126.18 26.1591 126.788 26.3314 127.33 26.6761C127.875 27.017 128.307 27.5227 128.625 28.1932C128.947 28.8598 129.108 29.678 129.108 30.6477C129.108 31.6061 128.951 32.4205 128.636 33.0909C128.322 33.7614 127.894 34.2727 127.352 34.625C126.811 34.9773 126.197 35.1534 125.511 35.1534C125.011 35.1534 124.597 35.0701 124.267 34.9034C123.938 34.7367 123.672 34.536 123.472 34.3011C123.275 34.0625 123.121 33.8371 123.011 33.625H122.926V38.2727H120.869ZM122.886 30.6364C122.886 31.2008 122.966 31.6951 123.125 32.1193C123.288 32.5436 123.521 32.875 123.824 33.1136C124.131 33.3485 124.502 33.4659 124.938 33.4659C125.392 33.4659 125.773 33.3447 126.08 33.1023C126.386 32.8561 126.617 32.5208 126.773 32.0966C126.932 31.6686 127.011 31.1818 127.011 30.6364C127.011 30.0947 126.934 29.6136 126.778 29.1932C126.623 28.7727 126.392 28.4432 126.085 28.2045C125.778 27.9659 125.396 27.8466 124.938 27.8466C124.498 27.8466 124.125 27.9621 123.818 28.1932C123.511 28.4242 123.278 28.7481 123.119 29.1648C122.964 29.5814 122.886 30.072 122.886 30.6364ZM130.869 35V26.2727H132.926V35H130.869ZM131.903 25.0341C131.578 25.0341 131.297 24.9261 131.062 24.7102C130.828 24.4905 130.71 24.2273 130.71 23.9205C130.71 23.6098 130.828 23.3466 131.062 23.1307C131.297 22.911 131.578 22.8011 131.903 22.8011C132.233 22.8011 132.513 22.911 132.744 23.1307C132.979 23.3466 133.097 23.6098 133.097 23.9205C133.097 24.2273 132.979 24.4905 132.744 24.7102C132.513 24.9261 132.233 25.0341 131.903 25.0341ZM137.098 29.8864V35H135.041V26.2727H137.007V27.7557H137.109C137.31 27.267 137.63 26.8788 138.07 26.5909C138.513 26.303 139.06 26.1591 139.712 26.1591C140.314 26.1591 140.839 26.2879 141.286 26.5455C141.736 26.803 142.085 27.1761 142.331 27.6648C142.581 28.1534 142.704 28.7462 142.7 29.4432V35H140.643V29.7614C140.643 29.178 140.492 28.7216 140.189 28.392C139.89 28.0625 139.475 27.8977 138.945 27.8977C138.585 27.8977 138.265 27.9773 137.984 28.1364C137.708 28.2917 137.49 28.517 137.331 28.8125C137.176 29.108 137.098 29.4659 137.098 29.8864ZM148.587 38.4545C147.848 38.4545 147.214 38.3542 146.683 38.1534C146.153 37.9564 145.727 37.6913 145.405 37.358C145.083 37.0246 144.859 36.6553 144.734 36.25L146.587 35.8011C146.67 35.9716 146.791 36.1402 146.95 36.3068C147.109 36.4773 147.323 36.6174 147.592 36.7273C147.865 36.8409 148.208 36.8977 148.621 36.8977C149.204 36.8977 149.687 36.7557 150.07 36.4716C150.452 36.1913 150.643 35.7292 150.643 35.0852V33.4318H150.541C150.435 33.6439 150.28 33.8617 150.075 34.0852C149.875 34.3087 149.607 34.4962 149.274 34.6477C148.945 34.7992 148.53 34.875 148.03 34.875C147.359 34.875 146.751 34.7178 146.206 34.4034C145.664 34.0852 145.232 33.6117 144.911 32.983C144.592 32.3504 144.433 31.5587 144.433 30.608C144.433 29.6496 144.592 28.8409 144.911 28.1818C145.232 27.5189 145.666 27.017 146.212 26.6761C146.757 26.3314 147.365 26.1591 148.036 26.1591C148.547 26.1591 148.967 26.2462 149.297 26.4205C149.63 26.5909 149.895 26.7973 150.092 27.0398C150.289 27.2784 150.439 27.5038 150.541 27.7159H150.655V26.2727H152.683V35.142C152.683 35.8883 152.505 36.5057 152.149 36.9943C151.793 37.483 151.306 37.8485 150.689 38.0909C150.071 38.3333 149.371 38.4545 148.587 38.4545ZM148.604 33.2614C149.039 33.2614 149.411 33.1553 149.717 32.9432C150.024 32.7311 150.257 32.4261 150.416 32.0284C150.575 31.6307 150.655 31.1534 150.655 30.5966C150.655 30.0473 150.575 29.5663 150.416 29.1534C150.261 28.7405 150.03 28.4205 149.723 28.1932C149.42 27.9621 149.047 27.8466 148.604 27.8466C148.145 27.8466 147.763 27.9659 147.456 28.2045C147.149 28.4432 146.918 28.7708 146.763 29.1875C146.607 29.6004 146.53 30.0701 146.53 30.5966C146.53 31.1307 146.607 31.5985 146.763 32C146.922 32.3977 147.155 32.7083 147.462 32.9318C147.772 33.1515 148.153 33.2614 148.604 33.2614ZM162.237 35.1705C161.442 35.1705 160.758 35.0265 160.186 34.7386C159.614 34.4508 159.173 34.0625 158.862 33.5739C158.555 33.0814 158.402 32.5265 158.402 31.9091C158.402 31.4432 158.497 31.0303 158.686 30.6705C158.879 30.3106 159.144 29.9773 159.482 29.6705C159.822 29.3636 160.216 29.0587 160.663 28.7557L162.726 27.3523C163.029 27.1553 163.258 26.947 163.413 26.7273C163.572 26.5076 163.652 26.25 163.652 25.9545C163.652 25.7045 163.546 25.4678 163.334 25.2443C163.125 25.0208 162.838 24.9091 162.47 24.9091C162.224 24.9091 162.006 24.9678 161.817 25.0852C161.631 25.1989 161.485 25.3485 161.379 25.5341C161.277 25.7197 161.226 25.9167 161.226 26.125C161.226 26.3788 161.296 26.6364 161.436 26.8977C161.58 27.1591 161.766 27.4299 161.993 27.7102C162.224 27.9905 162.47 28.2879 162.732 28.6023L168.192 35H165.964L161.43 29.8068C161.093 29.4129 160.768 29.0246 160.453 28.642C160.143 28.2595 159.887 27.8617 159.686 27.4489C159.489 27.0322 159.391 26.5814 159.391 26.0966C159.391 25.5473 159.518 25.0568 159.771 24.625C160.025 24.1894 160.379 23.8466 160.834 23.5966C161.292 23.3466 161.828 23.2216 162.442 23.2216C163.055 23.2216 163.582 23.3428 164.021 23.5852C164.461 23.8277 164.8 24.1496 165.038 24.5511C165.277 24.9527 165.396 25.3902 165.396 25.8636C165.396 26.4129 165.26 26.9053 164.987 27.3409C164.714 27.7727 164.336 28.1648 163.851 28.517L161.499 30.2386C161.112 30.5189 160.836 30.803 160.669 31.0909C160.502 31.375 160.419 31.6174 160.419 31.8182C160.419 32.125 160.497 32.4034 160.652 32.6534C160.807 32.9034 161.025 33.1042 161.305 33.2557C161.589 33.4034 161.921 33.4773 162.3 33.4773C162.716 33.4773 163.127 33.3845 163.533 33.1989C163.938 33.0095 164.307 32.7405 164.641 32.392C164.974 32.0436 165.239 31.6269 165.436 31.142C165.633 30.6534 165.732 30.1117 165.732 29.517H167.499C167.499 30.2519 167.417 30.892 167.254 31.4375C167.091 31.9792 166.881 32.4375 166.624 32.8125C166.366 33.1837 166.093 33.4811 165.805 33.7045C165.714 33.7689 165.627 33.8333 165.544 33.8977C165.461 33.9621 165.374 34.0265 165.283 34.0909C164.874 34.4621 164.394 34.7348 163.845 34.9091C163.3 35.0833 162.764 35.1705 162.237 35.1705ZM174.923 35H172.673L176.77 23.3636H179.372L183.474 35H181.224L178.116 25.75H178.026L174.923 35ZM174.997 30.4375H181.134V32.1307H174.997V30.4375ZM188.457 35.1705C187.586 35.1705 186.838 34.9792 186.213 34.5966C185.592 34.214 185.113 33.6856 184.776 33.0114C184.442 32.3333 184.276 31.553 184.276 30.6705C184.276 29.7841 184.446 29.0019 184.787 28.3239C185.128 27.642 185.609 27.1117 186.23 26.733C186.855 26.3504 187.594 26.1591 188.446 26.1591C189.154 26.1591 189.781 26.2898 190.327 26.5511C190.876 26.8087 191.313 27.1742 191.639 27.6477C191.965 28.1174 192.151 28.6667 192.196 29.2955H190.23C190.151 28.875 189.961 28.5246 189.662 28.2443C189.366 27.9602 188.971 27.8182 188.474 27.8182C188.054 27.8182 187.685 27.9318 187.366 28.1591C187.048 28.3826 186.8 28.7045 186.622 29.125C186.448 29.5455 186.361 30.0492 186.361 30.6364C186.361 31.2311 186.448 31.7424 186.622 32.1705C186.796 32.5947 187.041 32.9223 187.355 33.1534C187.673 33.3807 188.046 33.4943 188.474 33.4943C188.777 33.4943 189.048 33.4375 189.287 33.3239C189.529 33.2064 189.732 33.0379 189.895 32.8182C190.058 32.5985 190.17 32.3314 190.23 32.017H192.196C192.147 32.6345 191.965 33.1818 191.651 33.6591C191.336 34.1326 190.908 34.5038 190.366 34.7727C189.825 35.0379 189.188 35.1705 188.457 35.1705ZM197.692 35.1705C196.821 35.1705 196.072 34.9792 195.447 34.5966C194.826 34.214 194.347 33.6856 194.01 33.0114C193.677 32.3333 193.51 31.553 193.51 30.6705C193.51 29.7841 193.68 29.0019 194.021 28.3239C194.362 27.642 194.843 27.1117 195.464 26.733C196.089 26.3504 196.828 26.1591 197.68 26.1591C198.389 26.1591 199.016 26.2898 199.561 26.5511C200.11 26.8087 200.548 27.1742 200.874 27.6477C201.199 28.1174 201.385 28.6667 201.43 29.2955H199.464C199.385 28.875 199.196 28.5246 198.896 28.2443C198.601 27.9602 198.205 27.8182 197.709 27.8182C197.288 27.8182 196.919 27.9318 196.601 28.1591C196.283 28.3826 196.035 28.7045 195.857 29.125C195.682 29.5455 195.595 30.0492 195.595 30.6364C195.595 31.2311 195.682 31.7424 195.857 32.1705C196.031 32.5947 196.275 32.9223 196.589 33.1534C196.908 33.3807 197.281 33.4943 197.709 33.4943C198.012 33.4943 198.283 33.4375 198.521 33.3239C198.764 33.2064 198.966 33.0379 199.129 32.8182C199.292 32.5985 199.404 32.3314 199.464 32.017H201.43C201.381 32.6345 201.199 33.1818 200.885 33.6591C200.571 34.1326 200.143 34.5038 199.601 34.7727C199.059 35.0379 198.423 35.1705 197.692 35.1705ZM206.926 35.1705C206.074 35.1705 205.335 34.983 204.71 34.608C204.085 34.233 203.6 33.7083 203.256 33.0341C202.915 32.3598 202.744 31.572 202.744 30.6705C202.744 29.7689 202.915 28.9792 203.256 28.3011C203.6 27.6231 204.085 27.0966 204.71 26.7216C205.335 26.3466 206.074 26.1591 206.926 26.1591C207.778 26.1591 208.517 26.3466 209.142 26.7216C209.767 27.0966 210.25 27.6231 210.591 28.3011C210.936 28.9792 211.108 29.7689 211.108 30.6705C211.108 31.572 210.936 32.3598 210.591 33.0341C210.25 33.7083 209.767 34.233 209.142 34.608C208.517 34.983 207.778 35.1705 206.926 35.1705ZM206.938 33.5227C207.4 33.5227 207.786 33.3958 208.097 33.142C208.407 32.8845 208.638 32.5398 208.79 32.108C208.945 31.6761 209.023 31.1951 209.023 30.6648C209.023 30.1307 208.945 29.6477 208.79 29.2159C208.638 28.7803 208.407 28.4337 208.097 28.1761C207.786 27.9186 207.4 27.7898 206.938 27.7898C206.464 27.7898 206.07 27.9186 205.756 28.1761C205.445 28.4337 205.212 28.7803 205.057 29.2159C204.905 29.6477 204.83 30.1307 204.83 30.6648C204.83 31.1951 204.905 31.6761 205.057 32.108C205.212 32.5398 205.445 32.8845 205.756 33.142C206.07 33.3958 206.464 33.5227 206.938 33.5227ZM218.416 31.3295V26.2727H220.473V35H218.479V33.4489H218.388C218.191 33.9375 217.867 34.3371 217.416 34.6477C216.969 34.9583 216.418 35.1136 215.763 35.1136C215.191 35.1136 214.685 34.9867 214.246 34.733C213.81 34.4754 213.469 34.1023 213.223 33.6136C212.977 33.1212 212.854 32.5265 212.854 31.8295V26.2727H214.911V31.5114C214.911 32.0644 215.062 32.5038 215.365 32.8295C215.668 33.1553 216.066 33.3182 216.558 33.3182C216.861 33.3182 217.155 33.2443 217.439 33.0966C217.723 32.9489 217.956 32.7292 218.138 32.4375C218.323 32.142 218.416 31.7727 218.416 31.3295ZM224.645 29.8864V35H222.588V26.2727H224.554V27.7557H224.656C224.857 27.267 225.177 26.8788 225.616 26.5909C226.06 26.303 226.607 26.1591 227.259 26.1591C227.861 26.1591 228.385 26.2879 228.832 26.5455C229.283 26.803 229.632 27.1761 229.878 27.6648C230.128 28.1534 230.251 28.7462 230.247 29.4432V35H228.19V29.7614C228.19 29.178 228.039 28.7216 227.736 28.392C227.437 28.0625 227.022 27.8977 226.491 27.8977C226.132 27.8977 225.812 27.9773 225.531 28.1364C225.255 28.2917 225.037 28.517 224.878 28.8125C224.723 29.108 224.645 29.4659 224.645 29.8864ZM236.696 26.2727V27.8636H231.679V26.2727H236.696ZM232.918 24.1818H234.974V32.375C234.974 32.6515 235.016 32.8636 235.099 33.0114C235.187 33.1553 235.3 33.2538 235.44 33.3068C235.58 33.3598 235.736 33.3864 235.906 33.3864C236.035 33.3864 236.152 33.3769 236.259 33.358C236.368 33.339 236.452 33.322 236.509 33.3068L236.855 34.9148C236.745 34.9527 236.588 34.9943 236.384 35.0398C236.183 35.0852 235.937 35.1117 235.645 35.1193C235.13 35.1345 234.666 35.0568 234.253 34.8864C233.84 34.7121 233.512 34.4432 233.27 34.0795C233.031 33.7159 232.914 33.2614 232.918 32.7159V24.1818ZM238.416 35V26.2727H240.473V35H238.416ZM239.45 25.0341C239.125 25.0341 238.844 24.9261 238.609 24.7102C238.375 24.4905 238.257 24.2273 238.257 23.9205C238.257 23.6098 238.375 23.3466 238.609 23.1307C238.844 22.911 239.125 22.8011 239.45 22.8011C239.78 22.8011 240.06 22.911 240.291 23.1307C240.526 23.3466 240.643 23.6098 240.643 23.9205C240.643 24.2273 240.526 24.4905 240.291 24.7102C240.06 24.9261 239.78 25.0341 239.45 25.0341ZM244.645 29.8864V35H242.588V26.2727H244.554V27.7557H244.656C244.857 27.267 245.177 26.8788 245.616 26.5909C246.06 26.303 246.607 26.1591 247.259 26.1591C247.861 26.1591 248.385 26.2879 248.832 26.5455C249.283 26.803 249.632 27.1761 249.878 27.6648C250.128 28.1534 250.251 28.7462 250.247 29.4432V35H248.19V29.7614C248.19 29.178 248.039 28.7216 247.736 28.392C247.437 28.0625 247.022 27.8977 246.491 27.8977C246.132 27.8977 245.812 27.9773 245.531 28.1364C245.255 28.2917 245.037 28.517 244.878 28.8125C244.723 29.108 244.645 29.4659 244.645 29.8864ZM256.134 38.4545C255.395 38.4545 254.76 38.3542 254.23 38.1534C253.7 37.9564 253.274 37.6913 252.952 37.358C252.63 37.0246 252.406 36.6553 252.281 36.25L254.134 35.8011C254.217 35.9716 254.338 36.1402 254.497 36.3068C254.656 36.4773 254.87 36.6174 255.139 36.7273C255.412 36.8409 255.755 36.8977 256.168 36.8977C256.751 36.8977 257.234 36.7557 257.616 36.4716C257.999 36.1913 258.19 35.7292 258.19 35.0852V33.4318H258.088C257.982 33.6439 257.827 33.8617 257.622 34.0852C257.421 34.3087 257.154 34.4962 256.821 34.6477C256.491 34.7992 256.077 34.875 255.577 34.875C254.906 34.875 254.298 34.7178 253.753 34.4034C253.211 34.0852 252.779 33.6117 252.457 32.983C252.139 32.3504 251.98 31.5587 251.98 30.608C251.98 29.6496 252.139 28.8409 252.457 28.1818C252.779 27.5189 253.213 27.017 253.759 26.6761C254.304 26.3314 254.912 26.1591 255.582 26.1591C256.094 26.1591 256.514 26.2462 256.844 26.4205C257.177 26.5909 257.442 26.7973 257.639 27.0398C257.836 27.2784 257.986 27.5038 258.088 27.7159H258.202V26.2727H260.23V35.142C260.23 35.8883 260.052 36.5057 259.696 36.9943C259.34 37.483 258.853 37.8485 258.236 38.0909C257.618 38.3333 256.918 38.4545 256.134 38.4545ZM256.151 33.2614C256.586 33.2614 256.957 33.1553 257.264 32.9432C257.571 32.7311 257.804 32.4261 257.963 32.0284C258.122 31.6307 258.202 31.1534 258.202 30.5966C258.202 30.0473 258.122 29.5663 257.963 29.1534C257.808 28.7405 257.577 28.4205 257.27 28.1932C256.967 27.9621 256.594 27.8466 256.151 27.8466C255.692 27.8466 255.31 27.9659 255.003 28.2045C254.696 28.4432 254.465 28.7708 254.31 29.1875C254.154 29.6004 254.077 30.0701 254.077 30.5966C254.077 31.1307 254.154 31.5985 254.31 32C254.469 32.3977 254.702 32.7083 255.009 32.9318C255.319 33.1515 255.7 33.2614 256.151 33.2614Z" fill="#2563EB"/>
<path d="M307 64.5C311.694 64.5 315.5 68.3056 315.5 73V113C315.5 117.694 311.694 121.5 307 121.5H9C4.30558 121.5 0.5 117.694 0.5 113V73C0.5 68.3056 4.30558 64.5 9 64.5H307Z" fill="white"/>
<path d="M307 64.5C311.694 64.5 315.5 68.3056 315.5 73V113C315.5 117.694 311.694 121.5 307 121.5H9C4.30558 121.5 0.5 117.694 0.5 113V73C0.5 68.3056 4.30558 64.5 9 64.5H307Z" stroke="#E5E5E5"/>
<rect x="13" y="77" width="32" height="32" rx="16" fill="#1E40AF"/>
<path d="M29 99.6668C28.7333 99.6668 28.4778 99.6168 28.2333 99.5168C27.9889 99.4168 27.7722 99.2724 27.5833 99.0835C27.2611 98.7613 26.9833 98.5502 26.75 98.4502C26.5167 98.3502 26.1667 98.3002 25.7 98.3002C25.1445 98.3002 24.6722 98.1057 24.2833 97.7168C23.8945 97.3279 23.7 96.8557 23.7 96.3002C23.7 95.8335 23.65 95.4835 23.55 95.2502C23.45 95.0168 23.2389 94.7391 22.9167 94.4168C22.7278 94.2279 22.5833 94.0113 22.4833 93.7668C22.3833 93.5224 22.3333 93.2668 22.3333 93.0002C22.3333 92.7335 22.3833 92.4779 22.4833 92.2335C22.5833 91.9891 22.7278 91.7724 22.9167 91.5835C23.2389 91.2613 23.45 90.9835 23.55 90.7502C23.65 90.5168 23.7 90.1668 23.7 89.7002C23.7 89.1446 23.8945 88.6724 24.2833 88.2835C24.6722 87.8946 25.1445 87.7002 25.7 87.7002C26.1667 87.7002 26.5167 87.6502 26.75 87.5502C26.9833 87.4502 27.2611 87.2391 27.5833 86.9168C27.7722 86.7279 27.9889 86.5835 28.2333 86.4835C28.4778 86.3835 28.7333 86.3335 29 86.3335C29.2667 86.3335 29.5222 86.3835 29.7667 86.4835C30.0111 86.5835 30.2278 86.7279 30.4167 86.9168C30.7389 87.2391 31.0167 87.4502 31.25 87.5502C31.4833 87.6502 31.8333 87.7002 32.3 87.7002C32.8556 87.7002 33.3278 87.8946 33.7167 88.2835C34.1056 88.6724 34.3 89.1446 34.3 89.7002C34.3 90.1668 34.35 90.5168 34.45 90.7502C34.55 90.9835 34.7611 91.2613 35.0833 91.5835C35.2722 91.7724 35.4167 91.9891 35.5167 92.2335C35.6167 92.4779 35.6667 92.7335 35.6667 93.0002C35.6667 93.2668 35.6167 93.5224 35.5167 93.7668C35.4167 94.0113 35.2722 94.2279 35.0833 94.4168C34.7611 94.7391 34.55 95.0168 34.45 95.2502C34.35 95.4835 34.3 95.8335 34.3 96.3002C34.3 96.8557 34.1056 97.3279 33.7167 97.7168C33.3278 98.1057 32.8556 98.3002 32.3 98.3002C31.8333 98.3002 31.4833 98.3502 31.25 98.4502C31.0167 98.5502 30.7389 98.7613 30.4167 99.0835C30.2278 99.2724 30.0111 99.4168 29.7667 99.5168C29.5222 99.6168 29.2667 99.6668 29 99.6668ZM30.6667 95.6668C30.9445 95.6668 31.1806 95.5696 31.375 95.3752C31.5695 95.1807 31.6667 94.9446 31.6667 94.6668C31.6667 94.3891 31.5695 94.1529 31.375 93.9585C31.1806 93.7641 30.9445 93.6668 30.6667 93.6668C30.3889 93.6668 30.1528 93.7641 29.9583 93.9585C29.7639 94.1529 29.6667 94.3891 29.6667 94.6668C29.6667 94.9446 29.7639 95.1807 29.9583 95.3752C30.1528 95.5696 30.3889 95.6668 30.6667 95.6668ZM27.3 95.6335L31.6333 91.3002L30.7 90.3668L26.3667 94.7002L27.3 95.6335ZM28.0417 92.0418C28.2361 91.8474 28.3333 91.6113 28.3333 91.3335C28.3333 91.0557 28.2361 90.8196 28.0417 90.6252C27.8472 90.4307 27.6111 90.3335 27.3333 90.3335C27.0556 90.3335 26.8195 90.4307 26.625 90.6252C26.4306 90.8196 26.3333 91.0557 26.3333 91.3335C26.3333 91.6113 26.4306 91.8474 26.625 92.0418C26.8195 92.2363 27.0556 92.3335 27.3333 92.3335C27.6111 92.3335 27.8472 92.2363 28.0417 92.0418Z" fill="#EFF6FF"/>
<path d="M53.6364 89.1307V87.3636H62.9205V89.1307H59.3239V99H57.233V89.1307H53.6364ZM65.9432 99.1761C65.3902 99.1761 64.892 99.0777 64.4489 98.8807C64.0095 98.6799 63.661 98.3845 63.4034 97.9943C63.1496 97.6042 63.0227 97.1231 63.0227 96.5511C63.0227 96.0587 63.1136 95.6515 63.2955 95.3295C63.4773 95.0076 63.7254 94.75 64.0398 94.5568C64.3542 94.3636 64.7083 94.2178 65.1023 94.1193C65.5 94.017 65.911 93.9432 66.3352 93.8977C66.8466 93.8447 67.2614 93.7973 67.5795 93.7557C67.8977 93.7102 68.1288 93.642 68.2727 93.5511C68.4205 93.4564 68.4943 93.3106 68.4943 93.1136V93.0795C68.4943 92.6515 68.3674 92.3201 68.1136 92.0852C67.8598 91.8504 67.4943 91.733 67.017 91.733C66.5133 91.733 66.1136 91.8428 65.8182 92.0625C65.5265 92.2822 65.3295 92.5417 65.2273 92.8409L63.3068 92.5682C63.4583 92.0379 63.7083 91.5947 64.0568 91.2386C64.4053 90.8788 64.8314 90.6098 65.3352 90.4318C65.839 90.25 66.3958 90.1591 67.0057 90.1591C67.4261 90.1591 67.8447 90.2083 68.2614 90.3068C68.678 90.4053 69.0587 90.5682 69.4034 90.7955C69.7481 91.0189 70.0246 91.3239 70.233 91.7102C70.4451 92.0966 70.5511 92.5795 70.5511 93.1591V99H68.5739V97.8011H68.5057C68.3807 98.0436 68.2045 98.2708 67.9773 98.483C67.7538 98.6913 67.4716 98.8598 67.1307 98.9886C66.7936 99.1136 66.3977 99.1761 65.9432 99.1761ZM66.4773 97.6648C66.8902 97.6648 67.2481 97.5833 67.5511 97.4205C67.8542 97.2538 68.0871 97.0341 68.25 96.7614C68.4167 96.4886 68.5 96.1913 68.5 95.8693V94.8409C68.4356 94.8939 68.3258 94.9432 68.1705 94.9886C68.0189 95.0341 67.8485 95.0739 67.6591 95.108C67.4697 95.142 67.2822 95.1723 67.0966 95.1989C66.911 95.2254 66.75 95.2481 66.6136 95.267C66.3068 95.3087 66.0322 95.3769 65.7898 95.4716C65.5473 95.5663 65.3561 95.6989 65.2159 95.8693C65.0758 96.036 65.0057 96.2519 65.0057 96.517C65.0057 96.8958 65.1439 97.1818 65.4205 97.375C65.697 97.5682 66.0492 97.6648 66.4773 97.6648ZM74.3011 90.2727L76.0625 93.4943L77.8523 90.2727H80.0284L77.3977 94.6364L80.0739 99H77.9091L76.0625 95.858L74.233 99H72.0511L74.7102 94.6364L72.1193 90.2727H74.3011ZM84.0994 99.1761C83.5464 99.1761 83.0483 99.0777 82.6051 98.8807C82.1657 98.6799 81.8172 98.3845 81.5597 97.9943C81.3059 97.6042 81.179 97.1231 81.179 96.5511C81.179 96.0587 81.2699 95.6515 81.4517 95.3295C81.6335 95.0076 81.8816 94.75 82.196 94.5568C82.5104 94.3636 82.8646 94.2178 83.2585 94.1193C83.6563 94.017 84.0672 93.9432 84.4915 93.8977C85.0028 93.8447 85.4176 93.7973 85.7358 93.7557C86.054 93.7102 86.285 93.642 86.429 93.5511C86.5767 93.4564 86.6506 93.3106 86.6506 93.1136V93.0795C86.6506 92.6515 86.5237 92.3201 86.2699 92.0852C86.0161 91.8504 85.6506 91.733 85.1733 91.733C84.6695 91.733 84.2699 91.8428 83.9744 92.0625C83.6828 92.2822 83.4858 92.5417 83.3835 92.8409L81.4631 92.5682C81.6146 92.0379 81.8646 91.5947 82.2131 91.2386C82.5616 90.8788 82.9877 90.6098 83.4915 90.4318C83.9953 90.25 84.5521 90.1591 85.1619 90.1591C85.5824 90.1591 86.0009 90.2083 86.4176 90.3068C86.8343 90.4053 87.215 90.5682 87.5597 90.7955C87.9044 91.0189 88.1809 91.3239 88.3892 91.7102C88.6013 92.0966 88.7074 92.5795 88.7074 93.1591V99H86.7301V97.8011H86.6619C86.5369 98.0436 86.3608 98.2708 86.1335 98.483C85.91 98.6913 85.6278 98.8598 85.2869 98.9886C84.9498 99.1136 84.554 99.1761 84.0994 99.1761ZM84.6335 97.6648C85.0464 97.6648 85.4044 97.5833 85.7074 97.4205C86.0104 97.2538 86.2434 97.0341 86.4062 96.7614C86.5729 96.4886 86.6562 96.1913 86.6562 95.8693V94.8409C86.5919 94.8939 86.482 94.9432 86.3267 94.9886C86.1752 95.0341 86.0047 95.0739 85.8153 95.108C85.6259 95.142 85.4384 95.1723 85.2528 95.1989C85.0672 95.2254 84.9063 95.2481 84.7699 95.267C84.4631 95.3087 84.1884 95.3769 83.946 95.4716C83.7036 95.5663 83.5123 95.6989 83.3722 95.8693C83.232 96.036 83.1619 96.2519 83.1619 96.517C83.1619 96.8958 83.3002 97.1818 83.5767 97.375C83.8532 97.5682 84.2055 97.6648 84.6335 97.6648ZM95.1335 90.2727V91.8636H90.1165V90.2727H95.1335ZM91.3551 88.1818H93.4119V96.375C93.4119 96.6515 93.4536 96.8636 93.5369 97.0114C93.6241 97.1553 93.7377 97.2538 93.8778 97.3068C94.018 97.3598 94.1733 97.3864 94.3438 97.3864C94.4725 97.3864 94.59 97.3769 94.696 97.358C94.8059 97.339 94.8892 97.322 94.946 97.3068L95.2926 98.9148C95.1828 98.9527 95.0256 98.9943 94.821 99.0398C94.6203 99.0852 94.3741 99.1117 94.0824 99.1193C93.5672 99.1345 93.1032 99.0568 92.6903 98.8864C92.2775 98.7121 91.9498 98.4432 91.7074 98.0795C91.4688 97.7159 91.3513 97.2614 91.3551 96.7159V88.1818ZM96.8537 99V90.2727H98.9105V99H96.8537ZM97.8878 89.0341C97.562 89.0341 97.2817 88.9261 97.0469 88.7102C96.812 88.4905 96.6946 88.2273 96.6946 87.9205C96.6946 87.6098 96.812 87.3466 97.0469 87.1307C97.2817 86.911 97.562 86.8011 97.8878 86.8011C98.2173 86.8011 98.4976 86.911 98.7287 87.1307C98.9635 87.3466 99.081 87.6098 99.081 87.9205C99.081 88.2273 98.9635 88.4905 98.7287 88.7102C98.4976 88.9261 98.2173 89.0341 97.8878 89.0341ZM104.832 99.1705C103.98 99.1705 103.241 98.983 102.616 98.608C101.991 98.233 101.507 97.7083 101.162 97.0341C100.821 96.3598 100.651 95.572 100.651 94.6705C100.651 93.7689 100.821 92.9792 101.162 92.3011C101.507 91.6231 101.991 91.0966 102.616 90.7216C103.241 90.3466 103.98 90.1591 104.832 90.1591C105.685 90.1591 106.423 90.3466 107.048 90.7216C107.673 91.0966 108.156 91.6231 108.497 92.3011C108.842 92.9792 109.014 93.7689 109.014 94.6705C109.014 95.572 108.842 96.3598 108.497 97.0341C108.156 97.7083 107.673 98.233 107.048 98.608C106.423 98.983 105.685 99.1705 104.832 99.1705ZM104.844 97.5227C105.306 97.5227 105.692 97.3958 106.003 97.142C106.313 96.8845 106.545 96.5398 106.696 96.108C106.851 95.6761 106.929 95.1951 106.929 94.6648C106.929 94.1307 106.851 93.6477 106.696 93.2159C106.545 92.7803 106.313 92.4337 106.003 92.1761C105.692 91.9186 105.306 91.7898 104.844 91.7898C104.37 91.7898 103.976 91.9186 103.662 92.1761C103.351 92.4337 103.118 92.7803 102.963 93.2159C102.812 93.6477 102.736 94.1307 102.736 94.6648C102.736 95.1951 102.812 95.6761 102.963 96.108C103.118 96.5398 103.351 96.8845 103.662 97.142C103.976 97.3958 104.37 97.5227 104.844 97.5227ZM112.817 93.8864V99H110.76V90.2727H112.726V91.7557H112.828C113.029 91.267 113.349 90.8788 113.788 90.5909C114.232 90.303 114.779 90.1591 115.43 90.1591C116.033 90.1591 116.557 90.2879 117.004 90.5455C117.455 90.803 117.804 91.1761 118.05 91.6648C118.3 92.1534 118.423 92.7462 118.419 93.4432V99H116.362V93.7614C116.362 93.178 116.211 92.7216 115.908 92.392C115.608 92.0625 115.194 91.8977 114.663 91.8977C114.304 91.8977 113.983 91.9773 113.703 92.1364C113.427 92.2917 113.209 92.517 113.05 92.8125C112.894 93.108 112.817 93.4659 112.817 93.8864Z" fill="#2563EB"/>
<path d="M307 128.5C311.694 128.5 315.5 132.306 315.5 137V177C315.5 181.694 311.694 185.5 307 185.5H9C4.30558 185.5 0.5 181.694 0.5 177V137C0.5 132.306 4.30558 128.5 9 128.5H307Z" fill="white"/>
<path d="M307 128.5C311.694 128.5 315.5 132.306 315.5 137V177C315.5 181.694 311.694 185.5 307 185.5H9C4.30558 185.5 0.5 181.694 0.5 177V137C0.5 132.306 4.30558 128.5 9 128.5H307Z" stroke="#E5E5E5"/>
<rect x="13" y="141" width="32" height="32" rx="16" fill="#1E40AF"/>
<path d="M29 162.45L32.7333 160.167C32.1778 159.778 31.5833 159.486 30.95 159.292C30.3167 159.097 29.6667 159 29 159C28.3333 159 27.6806 159.097 27.0417 159.292C26.4028 159.486 25.8 159.772 25.2333 160.15L29 162.45ZM30.65 156.983C31.1056 156.528 31.3333 155.978 31.3333 155.333C31.3333 154.689 31.1056 154.139 30.65 153.683C30.1944 153.228 29.6444 153 29 153C28.3556 153 27.8056 153.228 27.35 153.683C26.8944 154.139 26.6667 154.689 26.6667 155.333C26.6667 155.978 26.8944 156.528 27.35 156.983C27.8056 157.439 28.3556 157.667 29 157.667C29.6444 157.667 30.1944 157.439 30.65 156.983ZM29 164L23 160.333V153.667L29 150L35 153.667V160.333L29 164Z" fill="#EFF6FF"/>
<path d="M54.1477 163V151.364H58.5114C59.4053 151.364 60.1553 151.53 60.7614 151.864C61.3712 152.197 61.8314 152.655 62.142 153.239C62.4564 153.818 62.6136 154.477 62.6136 155.216C62.6136 155.962 62.4564 156.625 62.142 157.205C61.8277 157.784 61.3636 158.241 60.75 158.574C60.1364 158.903 59.3807 159.068 58.483 159.068H55.5909V157.335H58.1989C58.7216 157.335 59.1496 157.244 59.483 157.062C59.8163 156.881 60.0625 156.631 60.2216 156.312C60.3845 155.994 60.4659 155.629 60.4659 155.216C60.4659 154.803 60.3845 154.439 60.2216 154.125C60.0625 153.811 59.8144 153.566 59.4773 153.392C59.1439 153.214 58.714 153.125 58.1875 153.125H56.2557V163H54.1477ZM66.7088 163.176C66.1558 163.176 65.6577 163.078 65.2145 162.881C64.7751 162.68 64.4266 162.384 64.169 161.994C63.9152 161.604 63.7884 161.123 63.7884 160.551C63.7884 160.059 63.8793 159.652 64.0611 159.33C64.2429 159.008 64.491 158.75 64.8054 158.557C65.1198 158.364 65.474 158.218 65.8679 158.119C66.2656 158.017 66.6766 157.943 67.1009 157.898C67.6122 157.845 68.027 157.797 68.3452 157.756C68.6634 157.71 68.8944 157.642 69.0384 157.551C69.1861 157.456 69.2599 157.311 69.2599 157.114V157.08C69.2599 156.652 69.133 156.32 68.8793 156.085C68.6255 155.85 68.2599 155.733 67.7827 155.733C67.2789 155.733 66.8793 155.843 66.5838 156.062C66.2921 156.282 66.0952 156.542 65.9929 156.841L64.0724 156.568C64.224 156.038 64.474 155.595 64.8224 155.239C65.1709 154.879 65.5971 154.61 66.1009 154.432C66.6046 154.25 67.1615 154.159 67.7713 154.159C68.1918 154.159 68.6103 154.208 69.027 154.307C69.4437 154.405 69.8243 154.568 70.169 154.795C70.5137 155.019 70.7902 155.324 70.9986 155.71C71.2107 156.097 71.3168 156.58 71.3168 157.159V163H69.3395V161.801H69.2713C69.1463 162.044 68.9702 162.271 68.7429 162.483C68.5194 162.691 68.2372 162.86 67.8963 162.989C67.5592 163.114 67.1634 163.176 66.7088 163.176ZM67.2429 161.665C67.6558 161.665 68.0137 161.583 68.3168 161.42C68.6198 161.254 68.8527 161.034 69.0156 160.761C69.1823 160.489 69.2656 160.191 69.2656 159.869V158.841C69.2012 158.894 69.0914 158.943 68.9361 158.989C68.7846 159.034 68.6141 159.074 68.4247 159.108C68.2353 159.142 68.0478 159.172 67.8622 159.199C67.6766 159.225 67.5156 159.248 67.3793 159.267C67.0724 159.309 66.7978 159.377 66.5554 159.472C66.313 159.566 66.1217 159.699 65.9815 159.869C65.8414 160.036 65.7713 160.252 65.7713 160.517C65.7713 160.896 65.9096 161.182 66.1861 161.375C66.4626 161.568 66.8149 161.665 67.2429 161.665ZM74.3509 166.273C74.0705 166.273 73.8111 166.25 73.5724 166.205C73.3376 166.163 73.1501 166.114 73.0099 166.057L73.4872 164.455C73.7865 164.542 74.0535 164.583 74.2884 164.58C74.5232 164.576 74.7296 164.502 74.9077 164.358C75.0895 164.218 75.2429 163.983 75.3679 163.653L75.544 163.182L72.3793 154.273H74.5611L76.5724 160.864H76.6634L78.6804 154.273H80.8679L77.3736 164.057C77.2107 164.519 76.9948 164.915 76.7259 165.244C76.4569 165.578 76.1274 165.831 75.7372 166.006C75.3509 166.184 74.8887 166.273 74.3509 166.273ZM82.2912 163V154.273H84.2855V155.727H84.3764C84.5355 155.223 84.8082 154.835 85.1946 154.562C85.5848 154.286 86.0298 154.148 86.5298 154.148C86.6435 154.148 86.7704 154.153 86.9105 154.165C87.0545 154.172 87.1738 154.186 87.2685 154.205V156.097C87.1813 156.066 87.0431 156.04 86.8537 156.017C86.6681 155.991 86.4882 155.977 86.3139 155.977C85.9389 155.977 85.6018 156.059 85.3026 156.222C85.0071 156.381 84.7741 156.602 84.6037 156.886C84.4332 157.17 84.348 157.498 84.348 157.869V163H82.2912ZM92.0824 163.17C91.2301 163.17 90.4915 162.983 89.8665 162.608C89.2415 162.233 88.7566 161.708 88.4119 161.034C88.071 160.36 87.9006 159.572 87.9006 158.67C87.9006 157.769 88.071 156.979 88.4119 156.301C88.7566 155.623 89.2415 155.097 89.8665 154.722C90.4915 154.347 91.2301 154.159 92.0824 154.159C92.9347 154.159 93.6733 154.347 94.2983 154.722C94.9233 155.097 95.4063 155.623 95.7472 156.301C96.0919 156.979 96.2642 157.769 96.2642 158.67C96.2642 159.572 96.0919 160.36 95.7472 161.034C95.4063 161.708 94.9233 162.233 94.2983 162.608C93.6733 162.983 92.9347 163.17 92.0824 163.17ZM92.0938 161.523C92.5559 161.523 92.9422 161.396 93.2528 161.142C93.5634 160.884 93.7945 160.54 93.946 160.108C94.1013 159.676 94.179 159.195 94.179 158.665C94.179 158.131 94.1013 157.648 93.946 157.216C93.7945 156.78 93.5634 156.434 93.2528 156.176C92.9422 155.919 92.5559 155.79 92.0938 155.79C91.6203 155.79 91.2263 155.919 90.9119 156.176C90.6013 156.434 90.3684 156.78 90.2131 157.216C90.0616 157.648 89.9858 158.131 89.9858 158.665C89.9858 159.195 90.0616 159.676 90.2131 160.108C90.3684 160.54 90.6013 160.884 90.9119 161.142C91.2263 161.396 91.6203 161.523 92.0938 161.523ZM100.067 151.364V163H98.0099V151.364H100.067ZM104.239 151.364V163H102.182V151.364H104.239ZM113.8 163.17C113.004 163.17 112.321 163.027 111.749 162.739C111.177 162.451 110.735 162.062 110.425 161.574C110.118 161.081 109.964 160.527 109.964 159.909C109.964 159.443 110.059 159.03 110.249 158.67C110.442 158.311 110.707 157.977 111.044 157.67C111.385 157.364 111.779 157.059 112.226 156.756L114.288 155.352C114.591 155.155 114.821 154.947 114.976 154.727C115.135 154.508 115.214 154.25 115.214 153.955C115.214 153.705 115.108 153.468 114.896 153.244C114.688 153.021 114.4 152.909 114.033 152.909C113.786 152.909 113.569 152.968 113.379 153.085C113.194 153.199 113.048 153.348 112.942 153.534C112.839 153.72 112.788 153.917 112.788 154.125C112.788 154.379 112.858 154.636 112.999 154.898C113.143 155.159 113.328 155.43 113.555 155.71C113.786 155.991 114.033 156.288 114.294 156.602L119.754 163H117.527L112.993 157.807C112.656 157.413 112.33 157.025 112.016 156.642C111.705 156.259 111.449 155.862 111.249 155.449C111.052 155.032 110.953 154.581 110.953 154.097C110.953 153.547 111.08 153.057 111.334 152.625C111.588 152.189 111.942 151.847 112.396 151.597C112.855 151.347 113.391 151.222 114.004 151.222C114.618 151.222 115.144 151.343 115.584 151.585C116.023 151.828 116.362 152.15 116.601 152.551C116.839 152.953 116.959 153.39 116.959 153.864C116.959 154.413 116.822 154.905 116.55 155.341C116.277 155.773 115.898 156.165 115.413 156.517L113.061 158.239C112.675 158.519 112.398 158.803 112.232 159.091C112.065 159.375 111.982 159.617 111.982 159.818C111.982 160.125 112.059 160.403 112.214 160.653C112.37 160.903 112.588 161.104 112.868 161.256C113.152 161.403 113.483 161.477 113.862 161.477C114.279 161.477 114.69 161.384 115.095 161.199C115.5 161.009 115.87 160.741 116.203 160.392C116.536 160.044 116.802 159.627 116.999 159.142C117.196 158.653 117.294 158.112 117.294 157.517H119.061C119.061 158.252 118.98 158.892 118.817 159.438C118.654 159.979 118.444 160.438 118.186 160.812C117.929 161.184 117.656 161.481 117.368 161.705C117.277 161.769 117.19 161.833 117.107 161.898C117.023 161.962 116.936 162.027 116.845 162.091C116.436 162.462 115.957 162.735 115.408 162.909C114.862 163.083 114.326 163.17 113.8 163.17ZM126.486 163H124.236L128.332 151.364H130.935L135.037 163H132.787L129.679 153.75H129.588L126.486 163ZM126.56 158.438H132.696V160.131H126.56V158.438ZM139.452 163.153C138.766 163.153 138.152 162.977 137.611 162.625C137.069 162.273 136.641 161.761 136.327 161.091C136.012 160.42 135.855 159.606 135.855 158.648C135.855 157.678 136.014 156.86 136.332 156.193C136.654 155.523 137.088 155.017 137.634 154.676C138.179 154.331 138.787 154.159 139.457 154.159C139.969 154.159 140.389 154.246 140.719 154.42C141.048 154.591 141.31 154.797 141.503 155.04C141.696 155.278 141.846 155.504 141.952 155.716H142.037V151.364H144.099V163H142.077V161.625H141.952C141.846 161.837 141.692 162.062 141.491 162.301C141.291 162.536 141.026 162.737 140.696 162.903C140.366 163.07 139.952 163.153 139.452 163.153ZM140.026 161.466C140.461 161.466 140.832 161.348 141.139 161.114C141.446 160.875 141.679 160.544 141.838 160.119C141.997 159.695 142.077 159.201 142.077 158.636C142.077 158.072 141.997 157.581 141.838 157.165C141.683 156.748 141.452 156.424 141.145 156.193C140.842 155.962 140.469 155.847 140.026 155.847C139.567 155.847 139.185 155.966 138.878 156.205C138.571 156.443 138.34 156.773 138.185 157.193C138.029 157.614 137.952 158.095 137.952 158.636C137.952 159.182 138.029 159.669 138.185 160.097C138.344 160.521 138.577 160.856 138.884 161.102C139.194 161.345 139.575 161.466 140.026 161.466ZM146.291 163V154.273H148.257V155.756H148.359C148.541 155.256 148.842 154.866 149.263 154.585C149.683 154.301 150.185 154.159 150.768 154.159C151.359 154.159 151.857 154.303 152.263 154.591C152.672 154.875 152.96 155.263 153.126 155.756H153.217C153.411 155.271 153.736 154.884 154.195 154.597C154.657 154.305 155.204 154.159 155.837 154.159C156.64 154.159 157.295 154.413 157.803 154.92C158.31 155.428 158.564 156.169 158.564 157.142V163H156.501V157.46C156.501 156.919 156.357 156.523 156.07 156.273C155.782 156.019 155.429 155.892 155.013 155.892C154.517 155.892 154.128 156.047 153.848 156.358C153.571 156.665 153.433 157.064 153.433 157.557V163H151.416V157.375C151.416 156.924 151.28 156.564 151.007 156.295C150.738 156.027 150.386 155.892 149.95 155.892C149.655 155.892 149.386 155.968 149.143 156.119C148.901 156.267 148.708 156.477 148.564 156.75C148.42 157.019 148.348 157.333 148.348 157.693V163H146.291ZM160.651 163V154.273H162.707V163H160.651ZM161.685 153.034C161.359 153.034 161.079 152.926 160.844 152.71C160.609 152.491 160.491 152.227 160.491 151.92C160.491 151.61 160.609 151.347 160.844 151.131C161.079 150.911 161.359 150.801 161.685 150.801C162.014 150.801 162.295 150.911 162.526 151.131C162.76 151.347 162.878 151.61 162.878 151.92C162.878 152.227 162.76 152.491 162.526 152.71C162.295 152.926 162.014 153.034 161.685 153.034ZM166.879 157.886V163H164.822V154.273H166.788V155.756H166.891C167.091 155.267 167.411 154.879 167.851 154.591C168.294 154.303 168.841 154.159 169.493 154.159C170.095 154.159 170.62 154.288 171.067 154.545C171.518 154.803 171.866 155.176 172.112 155.665C172.362 156.153 172.485 156.746 172.482 157.443V163H170.425V157.761C170.425 157.178 170.273 156.722 169.97 156.392C169.671 156.062 169.256 155.898 168.726 155.898C168.366 155.898 168.046 155.977 167.766 156.136C167.489 156.292 167.271 156.517 167.112 156.812C166.957 157.108 166.879 157.466 166.879 157.886Z" fill="#2563EB"/>
<path d="M307 192.5C311.694 192.5 315.5 196.306 315.5 201V241C315.5 245.694 311.694 249.5 307 249.5H9C4.30558 249.5 0.5 245.694 0.5 241V201C0.5 196.306 4.30558 192.5 9 192.5H307Z" fill="white"/>
<path d="M307 192.5C311.694 192.5 315.5 196.306 315.5 201V241C315.5 245.694 311.694 249.5 307 249.5H9C4.30558 249.5 0.5 245.694 0.5 241V201C0.5 196.306 4.30558 192.5 9 192.5H307Z" stroke="#E5E5E5"/>
<rect x="13" y="205" width="32" height="32" rx="16" fill="#1E40AF"/>
<path d="M29 226.333C28.4667 225.911 27.8889 225.583 27.2667 225.35C26.6444 225.117 26 225 25.3333 225C24.8667 225 24.4083 225.061 23.9583 225.183C23.5083 225.306 23.0778 225.478 22.6667 225.7C22.4333 225.822 22.2083 225.817 21.9917 225.683C21.775 225.55 21.6667 225.356 21.6667 225.1V217.067C21.6667 216.945 21.6972 216.828 21.7583 216.717C21.8194 216.606 21.9111 216.522 22.0333 216.467C22.5444 216.2 23.0778 216 23.6333 215.867C24.1889 215.733 24.7555 215.667 25.3333 215.667C26.1555 215.667 26.8555 215.761 27.4333 215.95C28.0111 216.139 28.6333 216.428 29.3 216.817C29.4222 216.883 29.5139 216.961 29.575 217.05C29.6361 217.139 29.6667 217.256 29.6667 217.4V224.367C30.1555 224.133 30.6472 223.958 31.1417 223.842C31.6361 223.725 32.1444 223.667 32.6667 223.667C33.0667 223.667 33.4583 223.7 33.8417 223.767C34.225 223.833 34.6111 223.933 35 224.067V216.05C35.1667 216.106 35.3305 216.167 35.4917 216.233C35.6528 216.3 35.8111 216.378 35.9667 216.467C36.0889 216.522 36.1805 216.606 36.2417 216.717C36.3028 216.828 36.3333 216.945 36.3333 217.067V225.1C36.3333 225.356 36.225 225.55 36.0083 225.683C35.7917 225.817 35.5667 225.822 35.3333 225.7C34.9222 225.478 34.4917 225.306 34.0417 225.183C33.5917 225.061 33.1333 225 32.6667 225C32 225 31.3555 225.117 30.7333 225.35C30.1111 225.583 29.5333 225.911 29 226.333ZM31.3333 222.333V215L33.3333 214.333V221.667L31.3333 222.333Z" fill="#EFF6FF"/>
<path d="M54.1477 215.364H56.7273L60.1818 223.795H60.3182L63.7727 215.364H66.3523V227H64.3295V219.006H64.2216L61.0057 226.966H59.4943L56.2784 218.989H56.1705V227H54.1477V215.364ZM71.0682 227.176C70.5152 227.176 70.017 227.078 69.5739 226.881C69.1345 226.68 68.786 226.384 68.5284 225.994C68.2746 225.604 68.1477 225.123 68.1477 224.551C68.1477 224.059 68.2386 223.652 68.4205 223.33C68.6023 223.008 68.8504 222.75 69.1648 222.557C69.4792 222.364 69.8333 222.218 70.2273 222.119C70.625 222.017 71.036 221.943 71.4602 221.898C71.9716 221.845 72.3864 221.797 72.7045 221.756C73.0227 221.71 73.2538 221.642 73.3977 221.551C73.5455 221.456 73.6193 221.311 73.6193 221.114V221.08C73.6193 220.652 73.4924 220.32 73.2386 220.085C72.9848 219.85 72.6193 219.733 72.142 219.733C71.6383 219.733 71.2386 219.843 70.9432 220.062C70.6515 220.282 70.4545 220.542 70.3523 220.841L68.4318 220.568C68.5833 220.038 68.8333 219.595 69.1818 219.239C69.5303 218.879 69.9564 218.61 70.4602 218.432C70.964 218.25 71.5208 218.159 72.1307 218.159C72.5511 218.159 72.9697 218.208 73.3864 218.307C73.803 218.405 74.1837 218.568 74.5284 218.795C74.8731 219.019 75.1496 219.324 75.358 219.71C75.5701 220.097 75.6761 220.58 75.6761 221.159V227H73.6989V225.801H73.6307C73.5057 226.044 73.3295 226.271 73.1023 226.483C72.8788 226.691 72.5966 226.86 72.2557 226.989C71.9186 227.114 71.5227 227.176 71.0682 227.176ZM71.6023 225.665C72.0152 225.665 72.3731 225.583 72.6761 225.42C72.9792 225.254 73.2121 225.034 73.375 224.761C73.5417 224.489 73.625 224.191 73.625 223.869V222.841C73.5606 222.894 73.4508 222.943 73.2955 222.989C73.1439 223.034 72.9735 223.074 72.7841 223.108C72.5947 223.142 72.4072 223.172 72.2216 223.199C72.036 223.225 71.875 223.248 71.7386 223.267C71.4318 223.309 71.1572 223.377 70.9148 223.472C70.6723 223.566 70.4811 223.699 70.3409 223.869C70.2008 224.036 70.1307 224.252 70.1307 224.517C70.1307 224.896 70.2689 225.182 70.5455 225.375C70.822 225.568 71.1742 225.665 71.6023 225.665ZM79.8011 221.886V227H77.7443V218.273H79.7102V219.756H79.8125C80.0133 219.267 80.3333 218.879 80.7727 218.591C81.2159 218.303 81.7633 218.159 82.4148 218.159C83.017 218.159 83.5417 218.288 83.9886 218.545C84.4394 218.803 84.7879 219.176 85.0341 219.665C85.2841 220.153 85.4072 220.746 85.4034 221.443V227H83.3466V221.761C83.3466 221.178 83.1951 220.722 82.892 220.392C82.5928 220.062 82.178 219.898 81.6477 219.898C81.2879 219.898 80.9678 219.977 80.6875 220.136C80.411 220.292 80.1932 220.517 80.0341 220.812C79.8788 221.108 79.8011 221.466 79.8011 221.886ZM90.0057 227.176C89.4527 227.176 88.9545 227.078 88.5114 226.881C88.072 226.68 87.7235 226.384 87.4659 225.994C87.2121 225.604 87.0852 225.123 87.0852 224.551C87.0852 224.059 87.1761 223.652 87.358 223.33C87.5398 223.008 87.7879 222.75 88.1023 222.557C88.4167 222.364 88.7708 222.218 89.1648 222.119C89.5625 222.017 89.9735 221.943 90.3977 221.898C90.9091 221.845 91.3239 221.797 91.642 221.756C91.9602 221.71 92.1913 221.642 92.3352 221.551C92.483 221.456 92.5568 221.311 92.5568 221.114V221.08C92.5568 220.652 92.4299 220.32 92.1761 220.085C91.9223 219.85 91.5568 219.733 91.0795 219.733C90.5758 219.733 90.1761 219.843 89.8807 220.062C89.589 220.282 89.392 220.542 89.2898 220.841L87.3693 220.568C87.5208 220.038 87.7708 219.595 88.1193 219.239C88.4678 218.879 88.8939 218.61 89.3977 218.432C89.9015 218.25 90.4583 218.159 91.0682 218.159C91.4886 218.159 91.9072 218.208 92.3239 218.307C92.7405 218.405 93.1212 218.568 93.4659 218.795C93.8106 219.019 94.0871 219.324 94.2955 219.71C94.5076 220.097 94.6136 220.58 94.6136 221.159V227H92.6364V225.801H92.5682C92.4432 226.044 92.267 226.271 92.0398 226.483C91.8163 226.691 91.5341 226.86 91.1932 226.989C90.8561 227.114 90.4602 227.176 90.0057 227.176ZM90.5398 225.665C90.9527 225.665 91.3106 225.583 91.6136 225.42C91.9167 225.254 92.1496 225.034 92.3125 224.761C92.4792 224.489 92.5625 224.191 92.5625 223.869V222.841C92.4981 222.894 92.3883 222.943 92.233 222.989C92.0814 223.034 91.911 223.074 91.7216 223.108C91.5322 223.142 91.3447 223.172 91.1591 223.199C90.9735 223.225 90.8125 223.248 90.6761 223.267C90.3693 223.309 90.0947 223.377 89.8523 223.472C89.6098 223.566 89.4186 223.699 89.2784 223.869C89.1383 224.036 89.0682 224.252 89.0682 224.517C89.0682 224.896 89.2064 225.182 89.483 225.375C89.7595 225.568 90.1117 225.665 90.5398 225.665ZM100.477 230.455C99.7386 230.455 99.1042 230.354 98.5739 230.153C98.0436 229.956 97.6174 229.691 97.2955 229.358C96.9735 229.025 96.75 228.655 96.625 228.25L98.4773 227.801C98.5606 227.972 98.6818 228.14 98.8409 228.307C99 228.477 99.214 228.617 99.483 228.727C99.7557 228.841 100.098 228.898 100.511 228.898C101.095 228.898 101.578 228.756 101.96 228.472C102.343 228.191 102.534 227.729 102.534 227.085V225.432H102.432C102.326 225.644 102.17 225.862 101.966 226.085C101.765 226.309 101.498 226.496 101.165 226.648C100.835 226.799 100.42 226.875 99.9205 226.875C99.25 226.875 98.642 226.718 98.0966 226.403C97.5549 226.085 97.1231 225.612 96.8011 224.983C96.483 224.35 96.3239 223.559 96.3239 222.608C96.3239 221.65 96.483 220.841 96.8011 220.182C97.1231 219.519 97.5568 219.017 98.1023 218.676C98.6477 218.331 99.2557 218.159 99.9261 218.159C100.438 218.159 100.858 218.246 101.188 218.42C101.521 218.591 101.786 218.797 101.983 219.04C102.18 219.278 102.33 219.504 102.432 219.716H102.545V218.273H104.574V227.142C104.574 227.888 104.396 228.506 104.04 228.994C103.684 229.483 103.197 229.848 102.58 230.091C101.962 230.333 101.261 230.455 100.477 230.455ZM100.494 225.261C100.93 225.261 101.301 225.155 101.608 224.943C101.915 224.731 102.148 224.426 102.307 224.028C102.466 223.631 102.545 223.153 102.545 222.597C102.545 222.047 102.466 221.566 102.307 221.153C102.152 220.741 101.92 220.42 101.614 220.193C101.311 219.962 100.938 219.847 100.494 219.847C100.036 219.847 99.6534 219.966 99.3466 220.205C99.0398 220.443 98.8087 220.771 98.6534 221.188C98.4981 221.6 98.4205 222.07 98.4205 222.597C98.4205 223.131 98.4981 223.598 98.6534 224C98.8125 224.398 99.0455 224.708 99.3523 224.932C99.6629 225.152 100.044 225.261 100.494 225.261ZM110.545 227.17C109.67 227.17 108.915 226.989 108.278 226.625C107.646 226.258 107.159 225.739 106.818 225.068C106.477 224.394 106.307 223.6 106.307 222.688C106.307 221.79 106.477 221.002 106.818 220.324C107.163 219.642 107.644 219.112 108.261 218.733C108.879 218.35 109.604 218.159 110.438 218.159C110.975 218.159 111.483 218.246 111.96 218.42C112.441 218.591 112.866 218.856 113.233 219.216C113.604 219.576 113.896 220.034 114.108 220.591C114.32 221.144 114.426 221.803 114.426 222.568V223.199H107.273V221.812H112.455C112.451 221.419 112.366 221.068 112.199 220.761C112.032 220.451 111.799 220.206 111.5 220.028C111.205 219.85 110.86 219.761 110.466 219.761C110.045 219.761 109.676 219.864 109.358 220.068C109.04 220.269 108.792 220.534 108.614 220.864C108.439 221.189 108.35 221.547 108.347 221.938V223.148C108.347 223.655 108.439 224.091 108.625 224.455C108.811 224.814 109.07 225.091 109.403 225.284C109.737 225.473 110.127 225.568 110.574 225.568C110.873 225.568 111.144 225.527 111.386 225.443C111.629 225.356 111.839 225.229 112.017 225.062C112.195 224.896 112.33 224.689 112.42 224.443L114.341 224.659C114.22 225.167 113.989 225.61 113.648 225.989C113.311 226.364 112.879 226.655 112.352 226.864C111.826 227.068 111.223 227.17 110.545 227.17ZM116.166 227V218.273H118.132V219.756H118.234C118.416 219.256 118.717 218.866 119.138 218.585C119.558 218.301 120.06 218.159 120.643 218.159C121.234 218.159 121.732 218.303 122.138 218.591C122.547 218.875 122.835 219.263 123.001 219.756H123.092C123.286 219.271 123.611 218.884 124.07 218.597C124.532 218.305 125.079 218.159 125.712 218.159C126.515 218.159 127.17 218.413 127.678 218.92C128.185 219.428 128.439 220.169 128.439 221.142V227H126.376V221.46C126.376 220.919 126.232 220.523 125.945 220.273C125.657 220.019 125.304 219.892 124.888 219.892C124.392 219.892 124.003 220.047 123.723 220.358C123.446 220.665 123.308 221.064 123.308 221.557V227H121.291V221.375C121.291 220.924 121.155 220.564 120.882 220.295C120.613 220.027 120.261 219.892 119.825 219.892C119.53 219.892 119.261 219.968 119.018 220.119C118.776 220.267 118.583 220.477 118.439 220.75C118.295 221.019 118.223 221.333 118.223 221.693V227H116.166ZM134.389 227.17C133.514 227.17 132.759 226.989 132.122 226.625C131.49 226.258 131.003 225.739 130.662 225.068C130.321 224.394 130.151 223.6 130.151 222.688C130.151 221.79 130.321 221.002 130.662 220.324C131.007 219.642 131.488 219.112 132.105 218.733C132.723 218.35 133.448 218.159 134.281 218.159C134.819 218.159 135.327 218.246 135.804 218.42C136.285 218.591 136.709 218.856 137.077 219.216C137.448 219.576 137.74 220.034 137.952 220.591C138.164 221.144 138.27 221.803 138.27 222.568V223.199H131.116V221.812H136.298C136.295 221.419 136.209 221.068 136.043 220.761C135.876 220.451 135.643 220.206 135.344 220.028C135.048 219.85 134.704 219.761 134.31 219.761C133.889 219.761 133.52 219.864 133.202 220.068C132.884 220.269 132.635 220.534 132.457 220.864C132.283 221.189 132.194 221.547 132.19 221.938V223.148C132.19 223.655 132.283 224.091 132.469 224.455C132.654 224.814 132.914 225.091 133.247 225.284C133.58 225.473 133.971 225.568 134.418 225.568C134.717 225.568 134.988 225.527 135.23 225.443C135.473 225.356 135.683 225.229 135.861 225.062C136.039 224.896 136.173 224.689 136.264 224.443L138.185 224.659C138.063 225.167 137.832 225.61 137.491 225.989C137.154 226.364 136.723 226.655 136.196 226.864C135.67 227.068 135.067 227.17 134.389 227.17ZM142.067 221.886V227H140.01V218.273H141.976V219.756H142.078C142.279 219.267 142.599 218.879 143.038 218.591C143.482 218.303 144.029 218.159 144.68 218.159C145.283 218.159 145.807 218.288 146.254 218.545C146.705 218.803 147.054 219.176 147.3 219.665C147.55 220.153 147.673 220.746 147.669 221.443V227H145.612V221.761C145.612 221.178 145.461 220.722 145.158 220.392C144.858 220.062 144.444 219.898 143.913 219.898C143.554 219.898 143.233 219.977 142.953 220.136C142.677 220.292 142.459 220.517 142.3 220.812C142.144 221.108 142.067 221.466 142.067 221.886ZM154.118 218.273V219.864H149.101V218.273H154.118ZM150.339 216.182H152.396V224.375C152.396 224.652 152.438 224.864 152.521 225.011C152.608 225.155 152.722 225.254 152.862 225.307C153.002 225.36 153.158 225.386 153.328 225.386C153.457 225.386 153.574 225.377 153.68 225.358C153.79 225.339 153.874 225.322 153.93 225.307L154.277 226.915C154.167 226.953 154.01 226.994 153.805 227.04C153.605 227.085 153.358 227.112 153.067 227.119C152.552 227.134 152.088 227.057 151.675 226.886C151.262 226.712 150.934 226.443 150.692 226.08C150.453 225.716 150.336 225.261 150.339 224.716V216.182ZM161.392 227H159.142L163.239 215.364H165.841L169.943 227H167.693L164.585 217.75H164.494L161.392 227ZM161.466 222.438H167.602V224.131H161.466V222.438ZM174.926 227.17C174.055 227.17 173.307 226.979 172.682 226.597C172.061 226.214 171.581 225.686 171.244 225.011C170.911 224.333 170.744 223.553 170.744 222.67C170.744 221.784 170.915 221.002 171.256 220.324C171.597 219.642 172.078 219.112 172.699 218.733C173.324 218.35 174.063 218.159 174.915 218.159C175.623 218.159 176.25 218.29 176.795 218.551C177.345 218.809 177.782 219.174 178.108 219.648C178.434 220.117 178.619 220.667 178.665 221.295H176.699C176.619 220.875 176.43 220.525 176.131 220.244C175.835 219.96 175.439 219.818 174.943 219.818C174.523 219.818 174.153 219.932 173.835 220.159C173.517 220.383 173.269 220.705 173.091 221.125C172.917 221.545 172.83 222.049 172.83 222.636C172.83 223.231 172.917 223.742 173.091 224.17C173.265 224.595 173.509 224.922 173.824 225.153C174.142 225.381 174.515 225.494 174.943 225.494C175.246 225.494 175.517 225.437 175.756 225.324C175.998 225.206 176.201 225.038 176.364 224.818C176.527 224.598 176.638 224.331 176.699 224.017H178.665C178.616 224.634 178.434 225.182 178.119 225.659C177.805 226.133 177.377 226.504 176.835 226.773C176.294 227.038 175.657 227.17 174.926 227.17ZM184.161 227.17C183.289 227.17 182.541 226.979 181.916 226.597C181.295 226.214 180.816 225.686 180.479 225.011C180.145 224.333 179.979 223.553 179.979 222.67C179.979 221.784 180.149 221.002 180.49 220.324C180.831 219.642 181.312 219.112 181.933 218.733C182.558 218.35 183.297 218.159 184.149 218.159C184.857 218.159 185.484 218.29 186.03 218.551C186.579 218.809 187.017 219.174 187.342 219.648C187.668 220.117 187.854 220.667 187.899 221.295H185.933C185.854 220.875 185.664 220.525 185.365 220.244C185.07 219.96 184.674 219.818 184.178 219.818C183.757 219.818 183.388 219.932 183.07 220.159C182.751 220.383 182.503 220.705 182.325 221.125C182.151 221.545 182.064 222.049 182.064 222.636C182.064 223.231 182.151 223.742 182.325 224.17C182.5 224.595 182.744 224.922 183.058 225.153C183.376 225.381 183.75 225.494 184.178 225.494C184.481 225.494 184.751 225.437 184.99 225.324C185.232 225.206 185.435 225.038 185.598 224.818C185.761 224.598 185.873 224.331 185.933 224.017H187.899C187.85 224.634 187.668 225.182 187.354 225.659C187.039 226.133 186.611 226.504 186.07 226.773C185.528 227.038 184.892 227.17 184.161 227.17ZM193.395 227.17C192.543 227.17 191.804 226.983 191.179 226.608C190.554 226.233 190.069 225.708 189.724 225.034C189.384 224.36 189.213 223.572 189.213 222.67C189.213 221.769 189.384 220.979 189.724 220.301C190.069 219.623 190.554 219.097 191.179 218.722C191.804 218.347 192.543 218.159 193.395 218.159C194.247 218.159 194.986 218.347 195.611 218.722C196.236 219.097 196.719 219.623 197.06 220.301C197.404 220.979 197.577 221.769 197.577 222.67C197.577 223.572 197.404 224.36 197.06 225.034C196.719 225.708 196.236 226.233 195.611 226.608C194.986 226.983 194.247 227.17 193.395 227.17ZM193.406 225.523C193.868 225.523 194.255 225.396 194.565 225.142C194.876 224.884 195.107 224.54 195.259 224.108C195.414 223.676 195.491 223.195 195.491 222.665C195.491 222.131 195.414 221.648 195.259 221.216C195.107 220.78 194.876 220.434 194.565 220.176C194.255 219.919 193.868 219.79 193.406 219.79C192.933 219.79 192.539 219.919 192.224 220.176C191.914 220.434 191.681 220.78 191.526 221.216C191.374 221.648 191.298 222.131 191.298 222.665C191.298 223.195 191.374 223.676 191.526 224.108C191.681 224.54 191.914 224.884 192.224 225.142C192.539 225.396 192.933 225.523 193.406 225.523ZM204.885 223.33V218.273H206.942V227H204.947V225.449H204.857C204.66 225.937 204.336 226.337 203.885 226.648C203.438 226.958 202.887 227.114 202.232 227.114C201.66 227.114 201.154 226.987 200.714 226.733C200.279 226.475 199.938 226.102 199.692 225.614C199.446 225.121 199.322 224.527 199.322 223.83V218.273H201.379V223.511C201.379 224.064 201.531 224.504 201.834 224.83C202.137 225.155 202.535 225.318 203.027 225.318C203.33 225.318 203.624 225.244 203.908 225.097C204.192 224.949 204.425 224.729 204.607 224.438C204.792 224.142 204.885 223.773 204.885 223.33ZM211.114 221.886V227H209.057V218.273H211.023V219.756H211.125C211.326 219.267 211.646 218.879 212.085 218.591C212.528 218.303 213.076 218.159 213.727 218.159C214.33 218.159 214.854 218.288 215.301 218.545C215.752 218.803 216.1 219.176 216.347 219.665C216.597 220.153 216.72 220.746 216.716 221.443V227H214.659V221.761C214.659 221.178 214.508 220.722 214.205 220.392C213.905 220.062 213.491 219.898 212.96 219.898C212.6 219.898 212.28 219.977 212 220.136C211.723 220.292 211.506 220.517 211.347 220.812C211.191 221.108 211.114 221.466 211.114 221.886ZM223.165 218.273V219.864H218.148V218.273H223.165ZM219.386 216.182H221.443V224.375C221.443 224.652 221.485 224.864 221.568 225.011C221.655 225.155 221.769 225.254 221.909 225.307C222.049 225.36 222.205 225.386 222.375 225.386C222.504 225.386 222.621 225.377 222.727 225.358C222.837 225.339 222.92 225.322 222.977 225.307L223.324 226.915C223.214 226.953 223.057 226.994 222.852 227.04C222.652 227.085 222.405 227.112 222.114 227.119C221.598 227.134 221.134 227.057 220.722 226.886C220.309 226.712 219.981 226.443 219.739 226.08C219.5 225.716 219.383 225.261 219.386 224.716V216.182ZM224.885 227V218.273H226.942V227H224.885ZM225.919 217.034C225.593 217.034 225.313 216.926 225.078 216.71C224.843 216.491 224.726 216.227 224.726 215.92C224.726 215.61 224.843 215.347 225.078 215.131C225.313 214.911 225.593 214.801 225.919 214.801C226.249 214.801 226.529 214.911 226.76 215.131C226.995 215.347 227.112 215.61 227.112 215.92C227.112 216.227 226.995 216.491 226.76 216.71C226.529 216.926 226.249 217.034 225.919 217.034ZM231.114 221.886V227H229.057V218.273H231.023V219.756H231.125C231.326 219.267 231.646 218.879 232.085 218.591C232.528 218.303 233.076 218.159 233.727 218.159C234.33 218.159 234.854 218.288 235.301 218.545C235.752 218.803 236.1 219.176 236.347 219.665C236.597 220.153 236.72 220.746 236.716 221.443V227H234.659V221.761C234.659 221.178 234.508 220.722 234.205 220.392C233.905 220.062 233.491 219.898 232.96 219.898C232.6 219.898 232.28 219.977 232 220.136C231.723 220.292 231.506 220.517 231.347 220.812C231.191 221.108 231.114 221.466 231.114 221.886ZM242.602 230.455C241.864 230.455 241.229 230.354 240.699 230.153C240.169 229.956 239.742 229.691 239.42 229.358C239.098 229.025 238.875 228.655 238.75 228.25L240.602 227.801C240.686 227.972 240.807 228.14 240.966 228.307C241.125 228.477 241.339 228.617 241.608 228.727C241.881 228.841 242.223 228.898 242.636 228.898C243.22 228.898 243.703 228.756 244.085 228.472C244.468 228.191 244.659 227.729 244.659 227.085V225.432H244.557C244.451 225.644 244.295 225.862 244.091 226.085C243.89 226.309 243.623 226.496 243.29 226.648C242.96 226.799 242.545 226.875 242.045 226.875C241.375 226.875 240.767 226.718 240.222 226.403C239.68 226.085 239.248 225.612 238.926 224.983C238.608 224.35 238.449 223.559 238.449 222.608C238.449 221.65 238.608 220.841 238.926 220.182C239.248 219.519 239.682 219.017 240.227 218.676C240.773 218.331 241.381 218.159 242.051 218.159C242.563 218.159 242.983 218.246 243.312 218.42C243.646 218.591 243.911 218.797 244.108 219.04C244.305 219.278 244.455 219.504 244.557 219.716H244.67V218.273H246.699V227.142C246.699 227.888 246.521 228.506 246.165 228.994C245.809 229.483 245.322 229.848 244.705 230.091C244.087 230.333 243.386 230.455 242.602 230.455ZM242.619 225.261C243.055 225.261 243.426 225.155 243.733 224.943C244.04 224.731 244.273 224.426 244.432 224.028C244.591 223.631 244.67 223.153 244.67 222.597C244.67 222.047 244.591 221.566 244.432 221.153C244.277 220.741 244.045 220.42 243.739 220.193C243.436 219.962 243.063 219.847 242.619 219.847C242.161 219.847 241.778 219.966 241.472 220.205C241.165 220.443 240.934 220.771 240.778 221.188C240.623 221.6 240.545 222.07 240.545 222.597C240.545 223.131 240.623 223.598 240.778 224C240.938 224.398 241.17 224.708 241.477 224.932C241.788 225.152 242.169 225.261 242.619 225.261Z" fill="#2563EB"/>
</svg>
