<svg width="316" height="250" viewBox="0 0 316 250" fill="none" xmlns="http://www.w3.org/2000/svg">
<path d="M307 0.5C311.694 0.5 315.5 4.30558 315.5 9V49C315.5 53.6944 311.694 57.5 307 57.5H9C4.30558 57.5 0.5 53.6944 0.5 49V9C0.5 4.30558 4.30558 0.5 9 0.5H307Z" fill="white"/>
<path d="M307 0.5C311.694 0.5 315.5 4.30558 315.5 9V49C315.5 53.6944 311.694 57.5 307 57.5H9C4.30558 57.5 0.5 53.6944 0.5 49V9C0.5 4.30558 4.30558 0.5 9 0.5H307Z" stroke="#E5E5E5"/>
<rect x="13" y="13" width="32" height="32" rx="16" fill="#1E40AF"/>
<path d="M22.3333 33.6668V24.3335H35.6667V26.3335H34.3333L31 29.6668H25V31.0002H29.6667L27 33.6668H22.3333ZM25 28.3335H29V27.0002H25V28.3335ZM29.6667 35.0002V33.8335L34.1 29.4002L35.2667 30.5668L30.8333 35.0002H29.6667ZM35.6667 30.1668L34.5 29.0002L35.1 28.4002C35.1556 28.3446 35.2167 28.3168 35.2833 28.3168C35.35 28.3168 35.4111 28.3446 35.4667 28.4002L36.2667 29.2002C36.3222 29.2557 36.35 29.3168 36.35 29.3835C36.35 29.4502 36.3222 29.5113 36.2667 29.5668L35.6667 30.1668Z" fill="#EFF6FF"/>
<text x="54" y="35" font-family="Inter, sans-serif" font-size="16" font-weight="600" fill="#2563EB">Data, Analytics &amp; Cloud</text>
<text x="54" y="50" font-family="Inter, sans-serif" font-size="16" font-weight="600" fill="#2563EB">Architecture</text>
<path d="M307 64.5C311.694 64.5 315.5 68.3056 315.5 73V113C315.5 117.694 311.694 121.5 307 121.5H9C4.30558 121.5 0.5 117.694 0.5 113V73C0.5 68.3056 4.30558 64.5 9 64.5H307Z" fill="white"/>
<path d="M307 64.5C311.694 64.5 315.5 68.3056 315.5 73V113C315.5 117.694 311.694 121.5 307 121.5H9C4.30558 121.5 0.5 117.694 0.5 113V73C0.5 68.3056 4.30558 64.5 9 64.5H307Z" stroke="#E5E5E5"/>
<rect x="13" y="77" width="32" height="32" rx="16" fill="#1E40AF"/>
<path d="M22.3333 97.6668V88.3335H35.6667V90.3335H34.3333L31 93.6668H25V95.0002H29.6667L27 97.6668H22.3333ZM25 92.3335H29V91.0002H25V92.3335ZM29.6667 99.0002V97.8335L34.1 93.4002L35.2667 94.5668L30.8333 99.0002H29.6667ZM35.6667 94.1668L34.5 93.0002L35.1 92.4002C35.1556 92.3446 35.2167 92.3168 35.2833 92.3168C35.35 92.3168 35.4111 92.3446 35.4667 92.4002L36.2667 93.2002C36.3222 93.2557 36.35 93.3168 36.35 93.3835C36.35 93.4502 36.3222 93.5113 36.2667 93.5668L35.6667 94.1668Z" fill="#EFF6FF"/>
<text x="54" y="99" font-family="Inter, sans-serif" font-size="16" font-weight="600" fill="#2563EB">Tailored Industry ERP Solutions</text>
<path d="M307 128.5C311.694 128.5 315.5 132.306 315.5 137V177C315.5 181.694 311.694 185.5 307 185.5H9C4.30558 185.5 0.5 181.694 0.5 177V137C0.5 132.306 4.30558 128.5 9 128.5H307Z" fill="white"/>
<path d="M307 128.5C311.694 128.5 315.5 132.306 315.5 137V177C315.5 181.694 311.694 185.5 307 185.5H9C4.30558 185.5 0.5 181.694 0.5 177V137C0.5 132.306 4.30558 128.5 9 128.5H307Z" stroke="#E5E5E5"/>
<rect x="13" y="141" width="32" height="32" rx="16" fill="#1E40AF"/>
<path d="M22.3333 161.667V152.334H35.6667V154.334H34.3333L31 157.667H25V159H29.6667L27 161.667H22.3333ZM25 156.334H29V155H25V156.334ZM29.6667 163V161.834L34.1 157.4L35.2667 158.567L30.8333 163H29.6667ZM35.6667 158.167L34.5 157L35.1 156.4C35.1556 156.345 35.2167 156.317 35.2833 156.317C35.35 156.317 35.4111 156.345 35.4667 156.4L36.2667 157.2C36.3222 157.256 36.35 157.317 36.35 157.384C36.35 157.45 36.3222 157.511 36.2667 157.567L35.6667 158.167Z" fill="#EFF6FF"/>
<text x="54" y="153" font-family="Inter, sans-serif" font-size="16" font-weight="600" fill="#2563EB">Secure IT Infrastructure,</text>
<text x="54" y="168" font-family="Inter, sans-serif" font-size="16" font-weight="600" fill="#2563EB">Cybersecurity &amp; Managed</text>
<text x="54" y="183" font-family="Inter, sans-serif" font-size="16" font-weight="600" fill="#2563EB">Operations</text>
<path d="M307 192.5C311.694 192.5 315.5 196.306 315.5 201V241C315.5 245.694 311.694 249.5 307 249.5H9C4.30558 249.5 0.5 245.694 0.5 241V201C0.5 196.306 4.30558 192.5 9 192.5H307Z" fill="white"/>
<path d="M307 192.5C311.694 192.5 315.5 196.306 315.5 201V241C315.5 245.694 311.694 249.5 307 249.5H9C4.30558 249.5 0.5 245.694 0.5 241V201C0.5 196.306 4.30558 192.5 9 192.5H307Z" stroke="#E5E5E5"/>
<rect x="13" y="205" width="32" height="32" rx="16" fill="#1E40AF"/>
<path d="M22.3333 225.667V216.334H35.6667V218.334H34.3333L31 221.667H25V223H29.6667L27 225.667H22.3333ZM25 220.334H29V219H25V220.334ZM29.6667 227V225.834L34.1 221.4L35.2667 222.567L30.8333 227H29.6667ZM35.6667 222.167L34.5 221L35.1 220.4C35.1556 220.345 35.2167 220.317 35.2833 220.317C35.35 220.317 35.4111 220.345 35.4667 220.4L36.2667 221.2C36.3222 221.256 36.35 221.317 36.35 221.384C36.35 221.45 36.3222 221.511 36.2667 221.567L35.6667 222.167Z" fill="#EFF6FF"/>
<text x="54" y="217" font-family="Inter, sans-serif" font-size="16" font-weight="600" fill="#2563EB">Software Engineering,</text>
<text x="54" y="232" font-family="Inter, sans-serif" font-size="16" font-weight="600" fill="#2563EB">Automation &amp; Digital</text>
<text x="54" y="247" font-family="Inter, sans-serif" font-size="16" font-weight="600" fill="#2563EB">Transformation</text>
</svg>
