<svg width="139" height="32" viewBox="0 0 139 32" fill="none" xmlns="http://www.w3.org/2000/svg">
<path d="M25.7012 18.2739C25.5455 17.8313 25.3607 17.4033 25.1467 16.9898C24.9716 16.6445 24.7722 16.3089 24.5581 15.9878C24.383 15.7252 24.1933 15.4723 23.9939 15.2291C24.3247 14.7524 24.6165 14.2417 24.8597 13.7066C24.9618 13.4732 25.0591 13.2348 25.1467 12.9965C25.3315 12.4907 25.4726 11.9653 25.565 11.4206C25.6623 10.8661 25.7158 10.2921 25.7158 9.70847C25.7158 9.51877 25.7109 9.32908 25.7012 9.13938C25.6574 8.34656 25.5163 7.58291 25.2877 6.85332C25.244 6.7074 25.1953 6.56635 25.1467 6.42043C24.9132 5.76866 24.6068 5.14607 24.2468 4.56726C23.8529 3.93494 23.3859 3.35127 22.8606 2.83083C22.6709 2.64113 22.4666 2.4563 22.2624 2.2812C21.7419 1.84344 21.1777 1.45919 20.5746 1.13817C19.8596 0.758778 19.0959 0.462076 18.2885 0.272382C17.5589 0.0924153 16.7904 0 16.0024 0H0V32H16.0024C16.7904 32 17.554 31.9124 18.2885 31.7422C19.091 31.5622 19.8596 31.285 20.5746 30.9299C21.2506 30.5943 21.8878 30.1857 22.4715 29.7139C22.6028 29.6069 22.7342 29.4951 22.8606 29.3832C23.5027 28.8092 24.0766 28.1526 24.5581 27.4327C24.7722 27.1117 24.9716 26.7761 25.1467 26.4308C25.3607 26.0173 25.5455 25.5893 25.7012 25.1418C25.959 24.4171 26.1341 23.6486 26.2216 22.8558C26.2654 22.4812 26.2848 22.097 26.2848 21.7127C26.2848 21.3285 26.2654 20.9442 26.2216 20.5697C26.1341 19.7769 25.959 19.0132 25.7012 18.2836V18.2739ZM23.9161 22.846C23.8042 23.6534 23.5659 24.4171 23.2303 25.1321C23.1184 25.3704 22.9919 25.6039 22.8558 25.8276C22.5055 26.4113 22.0824 26.9463 21.596 27.4181C21.2798 27.7294 20.9345 28.0116 20.5697 28.2693C19.879 28.7509 19.1105 29.1254 18.2836 29.3735C17.5589 29.5875 16.7953 29.7042 15.9976 29.7042H2.28606V2.27633H16.0024C16.8001 2.27633 17.5686 2.4028 18.2885 2.63627C19.1251 2.90865 19.8985 3.32209 20.5746 3.85226C20.8567 4.07114 21.1145 4.30947 21.3625 4.56726C21.9948 5.22389 22.5055 5.99726 22.8606 6.84846C23.1573 7.56346 23.347 8.33196 23.4102 9.13452C23.4248 9.32421 23.4297 9.51391 23.4297 9.7036C23.4297 10.2921 23.3616 10.8661 23.2303 11.4157C23.1379 11.8097 23.0114 12.194 22.8558 12.5636C22.705 12.9187 22.5299 13.264 22.3304 13.5948C21.7857 13.1716 21.1971 12.7971 20.5697 12.4858C20.5065 12.4566 20.4432 12.4226 20.38 12.3934C20.4481 12.2864 20.5113 12.1745 20.5697 12.0578C20.6767 11.8535 20.7691 11.6395 20.8469 11.4157C21.0366 10.8807 21.1388 10.3019 21.1388 9.7036C21.1388 9.50904 21.129 9.31935 21.1047 9.13452C21.0366 8.49734 20.8469 7.89907 20.5648 7.35431C20.4773 7.17921 20.3751 7.01383 20.2681 6.84846C19.772 6.10427 19.0862 5.50114 18.2788 5.10229C17.5929 4.75695 16.8147 4.56726 15.9927 4.56726H4.57212V13.7115H16.0024C16.7953 13.7115 17.5638 13.8282 18.2885 14.0423C18.3955 14.0714 18.5025 14.1104 18.6095 14.1444C19.3148 14.3876 19.9763 14.7281 20.5746 15.1464C20.667 15.2096 20.7594 15.2777 20.8469 15.3458C21.1096 15.5452 21.3625 15.7641 21.6009 15.9976C21.9121 16.2991 22.1943 16.6299 22.452 16.9752C22.598 17.1746 22.7342 17.3789 22.8606 17.5881C22.9968 17.8118 23.1184 18.0453 23.2351 18.2836C23.5708 18.9938 23.8091 19.7623 23.921 20.5697C23.9745 20.9442 24.0036 21.3236 24.0036 21.7127C24.0036 22.1018 23.9745 22.4812 23.921 22.8558L23.9161 22.846ZM18.8576 9.7036C18.8576 10.3456 18.6436 10.939 18.2885 11.4157C18.2301 11.4935 18.1718 11.5665 18.1085 11.6346C17.4324 11.4935 16.7272 11.4157 16.0024 11.4157H6.85819V6.84359H16.0024C16.9363 6.84359 17.7632 7.29108 18.2885 7.98662C18.5366 8.31737 18.7165 8.70649 18.8041 9.12965C18.843 9.31449 18.8624 9.50418 18.8624 9.69874L18.8576 9.7036Z" fill="white"/>
<path d="M20.5746 18.2782C20.0687 17.6022 19.4121 17.0379 18.6582 16.644C18.5366 16.5807 18.415 16.5224 18.2885 16.4689C17.5881 16.1624 16.8147 15.9922 16.0025 15.9922H4.57214V27.4225H16.0025C16.8147 27.4225 17.5881 27.2523 18.2885 26.9458C19.1981 26.5518 19.986 25.9244 20.5746 25.1364C21.0756 24.4701 21.4306 23.6967 21.6057 22.8504C21.6787 22.4807 21.7176 22.0965 21.7176 21.7073C21.7176 21.3182 21.6787 20.934 21.6057 20.5643C21.4355 19.7228 21.0756 18.9446 20.5746 18.2831V18.2782ZM19.2321 22.8455C19.0376 23.3951 18.7117 23.8767 18.2836 24.2561C17.6757 24.8008 16.878 25.1316 15.9976 25.1316H6.85821V18.2734H16.0025C16.878 18.2734 17.6805 18.5993 18.2836 19.144C18.7068 19.5234 19.0376 20.0098 19.2321 20.5594C19.3586 20.9145 19.4267 21.3036 19.4267 21.7025C19.4267 22.1013 19.3586 22.4856 19.2321 22.8455Z" fill="white"/>
<path d="M40.4584 22.6611H36.2997V22.9335C36.7423 22.9724 36.9904 23.0308 37.0536 23.1135C37.1169 23.1962 37.146 23.3178 37.146 23.4783V26.9171C36.8299 27.063 36.4845 27.1311 36.11 27.1311C35.7355 27.1311 35.3756 27.0436 35.0545 26.8636C34.7335 26.6885 34.4563 26.4064 34.2277 26.0221C33.9991 25.6379 33.8191 25.1369 33.6975 24.5094C33.571 23.8868 33.5127 23.1524 33.5127 22.3061C33.5127 21.4597 33.5808 20.7593 33.7218 20.1416C33.8629 19.5239 34.0526 19.018 34.2958 18.6289C34.539 18.2398 34.8259 17.9528 35.1615 17.7631C35.4923 17.5783 35.8522 17.481 36.2316 17.481C36.7326 17.481 37.1801 17.6026 37.5789 17.8458C37.9778 18.089 38.3085 18.4198 38.5712 18.8332C38.8338 19.2466 39.0235 19.6892 39.1403 20.1562H39.4126L39.2667 17.982C38.3474 17.408 37.3309 17.1162 36.2316 17.1162C35.4826 17.1162 34.7822 17.2427 34.1207 17.4956C33.464 17.7485 32.8901 18.1085 32.3988 18.5754C31.9076 19.0423 31.5282 19.5968 31.2606 20.2389C30.9931 20.8809 30.8569 21.5667 30.8569 22.2963C30.8569 23.0259 30.9785 23.7215 31.2217 24.3635C31.4649 25.0007 31.82 25.5552 32.2772 26.0173C32.7393 26.4842 33.2889 26.8441 33.9261 27.0971C34.5633 27.35 35.254 27.4764 35.9933 27.4764C36.5672 27.4764 37.1266 27.3986 37.6616 27.2381C38.1967 27.0776 38.649 26.8928 39.0138 26.669L39.4029 27.4035H39.6607V23.4588C39.6607 23.2205 39.7239 23.0746 39.8553 23.0259C39.9866 22.9773 40.186 22.9384 40.4535 22.9092V22.6368L40.4584 22.6611Z" fill="white"/>
<path d="M46.9274 26.4741C46.5383 26.8486 46.0324 27.0335 45.4098 27.0335H43.7853V18.0935C43.7853 17.9281 43.8145 17.8065 43.8777 17.7287C43.9409 17.646 44.1939 17.5877 44.6316 17.5487V17.2764H40.4146V17.5487C40.8572 17.5877 41.1101 17.646 41.1685 17.7287C41.2317 17.8114 41.2609 17.933 41.2609 18.0935V26.5276C41.2609 26.693 41.2317 26.8146 41.1685 26.8924C41.1052 26.9751 40.8523 27.0335 40.4146 27.0724V27.3448H47.9829L48.1288 24.869H47.8564C47.6278 25.5597 47.3165 26.0947 46.9274 26.4644V26.4741Z" fill="white"/>
<path d="M56.5192 18.6047C56.0279 18.1329 55.4637 17.7729 54.8216 17.52C54.1796 17.2671 53.5181 17.1406 52.8371 17.1406C52.1562 17.1406 51.4947 17.2671 50.8527 17.52C50.2106 17.7729 49.6415 18.1377 49.1551 18.6047C48.6639 19.0765 48.2796 19.631 47.9975 20.2682C47.7154 20.9053 47.5743 21.5911 47.5743 22.3207C47.5743 23.0503 47.7154 23.7313 47.9975 24.3733C48.2796 25.0105 48.6687 25.565 49.1551 26.0368C49.6464 26.5086 50.2106 26.8685 50.8527 27.1215C51.4947 27.3744 52.1562 27.5009 52.8371 27.5009C53.5181 27.5009 54.1796 27.3744 54.8216 27.1215C55.4637 26.8685 56.0328 26.5037 56.5192 26.0368C57.0104 25.565 57.3947 25.0105 57.6768 24.3733C57.9589 23.7362 58.1 23.0503 58.1 22.3207C58.1 21.5911 57.9589 20.9102 57.6768 20.2682C57.3947 19.631 57.0056 19.0765 56.5192 18.6047ZM55.3032 24.2517C55.201 24.8403 55.0454 25.351 54.8362 25.7839C54.6271 26.2168 54.3498 26.5475 54.0094 26.7859C53.6689 27.0193 53.2798 27.1409 52.8371 27.1409C52.5015 27.1409 52.1708 27.0631 51.8498 26.9026C51.5287 26.7421 51.2466 26.4746 51.0083 26.0903C50.77 25.7061 50.5754 25.2051 50.4344 24.5873C50.2884 23.9696 50.2203 23.2108 50.2203 22.3207C50.2203 21.6203 50.269 20.9734 50.3711 20.3849C50.4733 19.7963 50.6289 19.2856 50.8381 18.8527C51.0472 18.4198 51.3245 18.0891 51.6649 17.8508C52.0054 17.6173 52.3945 17.4957 52.8371 17.4957C53.1728 17.4957 53.5035 17.5735 53.8245 17.734C54.1456 17.8945 54.4277 18.1621 54.666 18.5463C54.9043 18.9306 55.0989 19.4316 55.2399 20.0493C55.3859 20.667 55.454 21.4258 55.454 22.3159C55.454 23.0163 55.4053 23.6632 55.3032 24.2517Z" fill="white"/>
<path d="M63.2996 22.1462V22.117C63.9222 22.0392 64.4475 21.8981 64.8755 21.6938C65.3035 21.4896 65.6294 21.222 65.8629 20.8961C66.0915 20.5703 66.2082 20.1811 66.2082 19.7288C66.2082 18.9895 65.9164 18.3961 65.3376 17.9535C64.7588 17.506 63.9416 17.2822 62.8959 17.2822H58.2313V17.5546C58.6739 17.5935 58.9269 17.6519 58.9852 17.7346C59.0485 17.8173 59.0777 17.9389 59.0777 18.0994V26.5335C59.0777 26.6989 59.0485 26.8205 58.9852 26.8983C58.922 26.981 58.6691 27.0393 58.2313 27.0782V27.3506H63.3288C64.3842 27.3506 65.2014 27.1074 65.7753 26.6259C66.3493 26.1395 66.6411 25.4975 66.6411 24.69C66.6411 23.2017 65.5273 22.3553 63.3044 22.1413L63.2996 22.1462ZM61.602 17.5984H62.4241C63.2607 17.5984 63.6741 18.3572 63.6741 19.8699C63.6741 20.5119 63.5671 21.0226 63.3579 21.402C63.1488 21.7814 62.818 21.9711 62.3657 21.9711H61.602V17.5935V17.5984ZM62.5067 27.0393H61.602V22.331H62.3949C62.9202 22.331 63.319 22.5304 63.5914 22.9293C63.8589 23.3281 63.9951 23.8923 63.9951 24.6219C63.9951 26.2319 63.499 27.0393 62.5116 27.0393H62.5067Z" fill="white"/>
<path d="M82.303 26.4748C81.9139 26.8493 81.408 27.0341 80.7854 27.0341H79.1609V18.0942C79.1609 17.9288 79.19 17.8072 79.2533 17.7294C79.3165 17.6467 79.5694 17.5883 80.0072 17.5494V17.277H75.7901V17.5494C76.2328 17.5883 76.4857 17.6467 76.544 17.7294C76.6073 17.8121 76.6365 17.9337 76.6365 18.0942V26.5283C76.6365 26.6937 76.6073 26.8153 76.544 26.8931C76.4857 26.9709 76.2522 27.0244 75.8582 27.0633C75.5421 26.9904 75.3378 26.9028 75.2551 26.8055C75.1675 26.7034 75.0897 26.5672 75.0265 26.397L71.5731 17.1992H70.0166L67.2539 26.2802C67.1663 26.5478 67.0447 26.7277 66.8891 26.8201C66.7286 26.9125 66.4416 26.9952 66.0184 27.0731V27.3454H69.3551V27.0731C68.4991 26.9952 68.0127 26.9271 67.8862 26.8736C67.7597 26.8153 67.677 26.7374 67.6333 26.645C67.5895 26.5478 67.6089 26.3726 67.6819 26.1149L68.285 24.1158H71.5828L72.3173 26.1586C72.4145 26.4067 72.4243 26.611 72.3513 26.7618C72.2784 26.9174 71.9962 27.0196 71.5098 27.0779V27.3503H83.3536L83.4995 24.8745H83.2271C82.9985 25.5652 82.6872 26.1003 82.2981 26.4699L82.303 26.4748ZM68.4066 23.7558L69.8026 19.1934H69.8318L71.4563 23.7558H68.4066Z" fill="white"/>
<path d="M38.4496 13.9694C39.0284 13.483 39.3202 12.8312 39.3202 12.019C39.3202 10.5209 38.2015 9.66966 35.9592 9.45565V9.42646C36.5867 9.34864 37.1169 9.20758 37.5449 8.99843C37.9729 8.78928 38.3037 8.52177 38.5371 8.19588C38.7706 7.86999 38.8825 7.47601 38.8825 7.02366C38.8825 6.27948 38.5906 5.68608 38.007 5.23373C37.4233 4.78624 36.6061 4.5625 35.5507 4.5625H30.8569V4.83975C31.2996 4.87866 31.5525 4.93703 31.6157 5.01971C31.6789 5.1024 31.7081 5.224 31.7081 5.38937V13.877C31.7081 14.0424 31.6789 14.164 31.6157 14.2466C31.5525 14.3293 31.2996 14.3877 30.8569 14.4266V14.7039H35.9836C37.0439 14.7039 37.8659 14.4607 38.4447 13.9743L38.4496 13.9694ZM34.2471 4.87866H35.074C35.9155 4.87866 36.3338 5.6423 36.3338 7.16958C36.3338 7.81649 36.2267 8.33207 36.0127 8.71146C35.7987 9.09085 35.468 9.28541 35.0156 9.28541H34.2471V4.88352V4.87866ZM34.2471 14.3828V9.64534H35.0448C35.575 9.64534 35.9787 9.84476 36.2462 10.2485C36.5186 10.6473 36.6499 11.2164 36.6499 11.9509C36.6499 13.5754 36.1538 14.3828 35.1567 14.3828H34.2423H34.2471Z" fill="white"/>
<path d="M43.5907 14.4263C43.1481 14.3874 42.8952 14.3291 42.8319 14.2464C42.7687 14.1637 42.7395 14.0421 42.7395 13.8767V10.112H43.3913C43.5664 10.2287 43.722 10.4087 43.8631 10.6471C44.0042 10.8902 44.1452 11.1675 44.2911 11.4885L44.9429 12.9526C45.1958 13.5508 45.4925 14.1345 45.8427 14.7036H52.1172V14.4263C51.2563 14.3485 50.7651 14.2804 50.6386 14.2221C50.5121 14.1637 50.4294 14.0859 50.3857 13.9886C50.3419 13.8913 50.3565 13.7113 50.4343 13.4536L51.0423 11.4399H54.3595L55.0989 13.4973C55.1961 13.7503 55.2059 13.9497 55.1329 14.1053C55.0599 14.261 54.7778 14.368 54.2866 14.4215V14.6987H61.7479V14.4215C61.2955 14.402 60.9599 14.3777 60.7508 14.3485C60.5368 14.3193 60.386 14.2707 60.2887 14.2026C60.1914 14.1345 60.1428 14.0226 60.1428 13.867V6.07979L66.5583 14.7717H67.108V5.38911C67.108 5.14591 67.215 5.00486 67.4339 4.95622C67.6527 4.90758 67.9786 4.86867 68.4115 4.83948V4.56224H65.1235V4.83948C65.5758 4.85894 65.9114 4.88326 66.1206 4.91244C66.3346 4.94162 66.4854 4.99026 66.5827 5.05836C66.6799 5.12646 66.7286 5.23833 66.7286 5.39397V10.8416L62.137 4.5671H58.4599V4.84435C58.8733 4.87353 59.1943 4.96108 59.4229 5.11186C59.6515 5.26265 59.7634 5.51071 59.7634 5.85605V13.8816C59.7634 14.1248 59.6564 14.2658 59.4375 14.3145C59.2527 14.3534 58.9803 14.3874 58.6398 14.4166C58.3334 14.3437 58.1388 14.2561 58.0561 14.1637C57.9686 14.0616 57.8908 13.9254 57.8227 13.7503L54.3449 4.49414H52.7787L49.9966 13.6335C49.909 13.9059 49.7874 14.0859 49.6269 14.1783C49.4858 14.261 49.2329 14.3339 48.8827 14.4069C48.6882 14.3534 48.5276 14.261 48.4012 14.1199C48.2553 13.9594 48.1191 13.76 47.9975 13.5168L47.0685 11.7512C46.7961 11.2405 46.4507 10.8611 46.0324 10.613C45.6141 10.3649 45.0888 10.185 44.4614 10.0682C45.0888 9.99042 45.6093 9.83963 46.0178 9.62075C46.4264 9.39701 46.7426 9.15868 46.9663 8.89602C47.1901 8.63337 47.3408 8.36585 47.4235 8.09347C47.5062 7.81623 47.5451 7.55844 47.5451 7.3201C47.5451 6.92612 47.4576 6.537 47.2776 6.15275C47.0976 5.77336 46.8253 5.4572 46.4507 5.20914C46.0811 4.96108 45.692 4.79571 45.2834 4.70329C44.8797 4.61088 44.4808 4.5671 44.0966 4.5671H39.3445V4.84435C39.7871 4.88326 40.04 4.94163 40.1033 5.02431C40.1665 5.107 40.1957 5.2286 40.1957 5.39397V13.8816C40.1957 14.047 40.1665 14.1686 40.1033 14.2512C40.04 14.3339 39.7871 14.3923 39.3445 14.4312V14.7085H43.5907V14.4312V14.4263ZM52.5599 6.48836H52.5891L54.2282 11.0799H51.159L52.5647 6.48836H52.5599ZM42.7395 4.87839H43.4788C43.8534 4.87839 44.1501 5.01945 44.3641 5.29669C44.5781 5.5788 44.7143 5.91442 44.7824 6.30353C44.8505 6.69265 44.8845 7.05258 44.8845 7.38333C44.8845 8.27344 44.7532 8.8863 44.4954 9.23164C44.2328 9.57212 43.8291 9.74722 43.2794 9.74722H42.7444V4.87839H42.7395Z" fill="white"/>
<path d="M68.5818 11.7022C68.8542 12.3491 69.2336 12.9085 69.7249 13.3754C70.2161 13.8423 70.7949 14.2071 71.4564 14.4601C72.1179 14.7178 72.8232 14.8443 73.5771 14.8443C74.6861 14.8443 75.7075 14.5525 76.6317 13.9737L76.7922 11.7849H76.515C76.3982 12.2567 76.2085 12.7042 75.9507 13.1176C75.6881 13.531 75.3573 13.8618 74.9585 14.1099C74.5596 14.3579 74.0976 14.4795 73.5771 14.4795C73.0859 14.4795 72.6627 14.3531 72.3076 14.0953C71.9526 13.8375 71.6656 13.4873 71.4467 13.0446C71.223 12.602 71.0673 12.0767 70.9749 11.4736C70.8825 10.8705 70.8387 10.2527 70.8387 9.62528C70.8387 8.79354 70.9068 8.06881 71.0479 7.44623C71.1889 6.82364 71.3786 6.31779 71.6267 5.92381C71.8747 5.53469 72.1617 5.24285 72.4973 5.05316C72.8281 4.86346 73.188 4.77105 73.5771 4.77105C74.0781 4.77105 74.5305 4.89265 74.9293 5.14071C75.3281 5.38877 75.6638 5.71952 75.9313 6.13296C76.1988 6.54639 76.3885 6.99388 76.5052 7.46568H76.7825L76.6365 5.2769C75.7075 4.69809 74.691 4.40625 73.582 4.40625C72.8281 4.40625 72.1228 4.53271 71.4613 4.7905C70.7998 5.04829 70.221 5.40823 69.7297 5.87517C69.2385 6.34211 68.8542 6.90146 68.5867 7.54837C68.3143 8.19528 68.183 8.88596 68.183 9.62042C68.183 10.3549 68.3192 11.0456 68.5867 11.6925L68.5818 11.7022Z" fill="white"/>
<path d="M102.07 4.83486V4.55762H98.7091V4.83486C99.249 4.8835 99.6527 4.9516 99.9105 5.04401C100.173 5.13643 100.339 5.26776 100.412 5.44286C100.484 5.61796 100.47 5.88061 100.377 6.24055L98.5535 12.6415H98.5243L96.7879 6.00708C96.7003 5.64228 96.7149 5.36017 96.8316 5.17534C96.9484 4.98565 97.177 4.87377 97.5272 4.83486V4.55762H93.1837V4.83486C93.4658 4.89323 93.6749 4.99537 93.816 5.14616C93.957 5.29694 94.064 5.50123 94.1419 5.76388L94.8666 8.37096L93.5339 12.5151H93.5047L91.3013 6.01194C91.0581 5.3164 91.2916 4.92728 91.9968 4.83973V4.56248H83.3925V4.83973C83.8351 4.87864 84.088 4.93701 84.1513 5.01969C84.2145 5.10238 84.2437 5.22398 84.2437 5.38935V9.31457H80.406V5.38935C80.406 5.22398 80.4352 5.10238 80.4984 5.01969C80.5617 4.93701 80.8146 4.87864 81.2572 4.83973V4.56248H77.011V4.83973C77.4536 4.87864 77.7065 4.93701 77.7698 5.01969C77.833 5.10238 77.8622 5.22398 77.8622 5.38935V13.877C77.8622 14.0423 77.833 14.1639 77.7698 14.2466C77.7065 14.3293 77.4536 14.3877 77.011 14.4266V14.7038H81.2572V14.4266C80.8146 14.3877 80.5617 14.3293 80.4984 14.2466C80.4352 14.1639 80.406 14.0423 80.406 13.877V9.6745H84.2437V13.877C84.2437 14.0423 84.2145 14.1639 84.1513 14.2466C84.088 14.3293 83.8351 14.3877 83.3925 14.4266V14.7038H87.6387V14.4266C87.1961 14.3877 86.9432 14.3293 86.88 14.2466C86.8167 14.1639 86.7875 14.0423 86.7875 13.877V5.38935C86.7875 5.22398 86.8167 5.10238 86.88 5.01969C86.9432 4.94187 87.1864 4.87864 87.6096 4.84459C87.8187 4.89323 88.0035 4.97592 88.1689 5.09265C88.3392 5.21425 88.4802 5.43799 88.5969 5.76388L91.6515 14.7719H93.2177L95.0563 9.02273L96.6663 14.7719H98.3443L100.893 5.87575C101.01 5.4915 101.165 5.22884 101.365 5.10238C101.564 4.97105 101.803 4.8835 102.08 4.83486H102.07Z" fill="white"/>
<path d="M110.315 5.89466C109.823 5.42286 109.254 5.05806 108.607 4.80027C107.96 4.54248 107.294 4.41602 106.608 4.41602C105.922 4.41602 105.256 4.54248 104.609 4.80027C103.962 5.05806 103.393 5.42286 102.902 5.89466C102.411 6.36646 102.022 6.92582 101.735 7.56786C101.448 8.2099 101.307 8.90059 101.307 9.63018C101.307 10.3598 101.448 11.0505 101.735 11.6925C102.022 12.3345 102.406 12.8939 102.902 13.3657C103.393 13.8375 103.962 14.2023 104.609 14.4601C105.256 14.7179 105.922 14.8443 106.608 14.8443C107.294 14.8443 107.96 14.7179 108.607 14.4601C109.254 14.2023 109.823 13.8375 110.315 13.3657C110.806 12.8939 111.195 12.3345 111.482 11.6925C111.769 11.0505 111.91 10.3646 111.91 9.63018C111.91 8.89572 111.769 8.2099 111.482 7.56786C111.195 6.92582 110.811 6.36646 110.315 5.89466ZM109.089 11.5806C108.987 12.174 108.831 12.6896 108.617 13.1225C108.403 13.5554 108.126 13.891 107.785 14.1293C107.44 14.3677 107.051 14.4844 106.603 14.4844C106.263 14.4844 105.932 14.4066 105.611 14.2461C105.285 14.0856 105.003 13.8132 104.765 13.4289C104.522 13.0447 104.332 12.5388 104.186 11.9162C104.04 11.2937 103.967 10.5349 103.967 9.63505C103.967 8.92977 104.016 8.28286 104.118 7.6846C104.22 7.09119 104.376 6.57561 104.59 6.14272C104.804 5.70983 105.081 5.37422 105.421 5.13588C105.762 4.89755 106.156 4.78081 106.603 4.78081C106.939 4.78081 107.27 4.85864 107.596 5.01915C107.917 5.17966 108.204 5.45204 108.442 5.83629C108.685 6.22055 108.875 6.7264 109.021 7.34898C109.167 7.97157 109.24 8.73035 109.24 9.63018C109.24 10.3355 109.191 10.9824 109.089 11.5806Z" fill="white"/>
<path d="M120.684 13.5122L119.755 11.7466C119.483 11.2359 119.138 10.8565 118.719 10.6084C118.301 10.3603 117.776 10.1804 117.148 10.0636C117.776 9.98582 118.296 9.83503 118.705 9.61616C119.113 9.39241 119.43 9.15408 119.653 8.89143C119.877 8.62877 120.028 8.36125 120.111 8.08887C120.193 7.81163 120.232 7.55384 120.232 7.3155C120.232 6.92152 120.145 6.5324 119.965 6.14815C119.785 5.76876 119.512 5.45261 119.138 5.20454C118.768 4.95648 118.379 4.79111 117.97 4.69869C117.567 4.60628 117.168 4.5625 116.784 4.5625H112.031V4.83975C112.474 4.87866 112.727 4.93703 112.79 5.01971C112.854 5.1024 112.883 5.224 112.883 5.38937V13.877C112.883 14.0424 112.854 14.164 112.79 14.2466C112.727 14.3293 112.474 14.3877 112.031 14.4266V14.7039H116.278V14.4266C115.835 14.3877 115.582 14.3293 115.519 14.2466C115.456 14.164 115.427 14.0424 115.427 13.877V10.1123H116.078C116.253 10.229 116.409 10.409 116.55 10.6473C116.691 10.8905 116.832 11.1678 116.978 11.4888L117.63 12.9528C117.883 13.5511 118.18 14.1348 118.53 14.7039H121.672V14.4266C121.429 14.378 121.239 14.2758 121.093 14.1153C120.947 13.9548 120.811 13.7554 120.689 13.5122H120.684ZM115.962 9.74748H115.427V4.87866H116.166C116.54 4.87866 116.837 5.01971 117.051 5.29696C117.265 5.57907 117.401 5.91468 117.469 6.3038C117.537 6.69291 117.572 7.05285 117.572 7.3836C117.572 8.2737 117.44 8.88656 117.182 9.2319C116.92 9.57238 116.516 9.74748 115.966 9.74748H115.962Z" fill="white"/>
<path d="M130.622 13.3273L128.856 10.6765C128.623 10.3311 128.345 9.97121 128.015 9.60641C127.684 9.24161 127.372 8.94005 127.071 8.70658L129.303 5.92439C129.639 5.52068 129.955 5.2483 130.247 5.11211C130.539 4.97592 130.85 4.8835 131.191 4.83486V4.55762H127.324V4.83486C127.737 4.85432 128.068 4.90782 128.316 4.99537C128.564 5.08292 128.73 5.18993 128.817 5.31639C128.905 5.44286 128.934 5.57419 128.905 5.71524C128.875 5.85629 128.817 5.97789 128.73 6.0849L126.614 8.73576C126.351 9.07624 126.103 9.31457 125.86 9.46049C125.617 9.60641 125.359 9.6891 125.077 9.70855V5.39422C125.077 5.22884 125.106 5.10724 125.169 5.02456C125.232 4.94187 125.485 4.8835 125.928 4.84459V4.56734H121.682V4.84459C122.124 4.8835 122.377 4.94187 122.44 5.02456C122.504 5.10724 122.533 5.22884 122.533 5.39422V13.8818C122.533 14.0472 122.504 14.1688 122.44 14.2515C122.377 14.3342 122.124 14.3925 121.682 14.4315V14.7087H125.928V14.4315C125.485 14.3925 125.232 14.3342 125.169 14.2515C125.106 14.1688 125.077 14.0472 125.077 13.8818V10.0879C125.388 10.1366 125.68 10.3895 125.962 10.8419L127.105 12.768C127.27 13.089 127.475 13.4295 127.723 13.7943C127.971 14.1591 128.199 14.4655 128.408 14.7087H131.842V14.4315C131.628 14.3828 131.439 14.2758 131.264 14.1153C131.089 13.9499 130.879 13.6921 130.626 13.3322L130.622 13.3273Z" fill="white"/>
<path d="M138.472 10.3793C138.278 10.0193 138.01 9.68857 137.67 9.40159C137.329 9.10976 136.813 8.77414 136.128 8.38989C135.442 8.00564 134.975 7.70894 134.722 7.49979C134.469 7.29064 134.279 7.07662 134.148 6.85288C134.017 6.62914 133.953 6.38594 133.953 6.11356C133.953 5.68066 134.104 5.34991 134.401 5.13104C134.703 4.90729 135.058 4.79542 135.471 4.79542C136.599 4.79542 137.456 5.73903 138.034 7.62138H138.312L138.166 5.07267C137.791 4.86838 137.339 4.71274 136.818 4.596C136.298 4.47927 135.811 4.4209 135.354 4.4209C134.727 4.4209 134.182 4.50845 133.715 4.68842C133.253 4.86838 132.874 5.09699 132.577 5.37423C132.28 5.65634 132.076 5.96764 131.954 6.31784C131.833 6.66318 131.774 7.00853 131.774 7.34414C131.774 7.62625 131.813 7.8889 131.891 8.1321C131.969 8.38016 132.086 8.60877 132.236 8.82765C132.392 9.04653 132.611 9.27027 132.903 9.5086C133.195 9.74694 133.681 10.0485 134.367 10.423C135.053 10.7927 135.51 11.0748 135.743 11.2645C135.977 11.4542 136.152 11.6342 136.274 11.8093C136.395 11.9844 136.478 12.1595 136.522 12.3297C136.565 12.5048 136.585 12.6653 136.585 12.8064C136.585 13.3463 136.419 13.7597 136.094 14.0467C135.763 14.3337 135.379 14.4747 134.936 14.4747C134.24 14.4747 133.647 14.2072 133.161 13.677C132.674 13.1468 132.309 12.3978 132.066 11.4299H131.789L131.935 14.1245C132.319 14.3385 132.806 14.5088 133.389 14.6449C133.973 14.7811 134.523 14.8492 135.033 14.8492C135.661 14.8492 136.215 14.7568 136.692 14.572C137.169 14.3872 137.567 14.1488 137.879 13.8473C138.19 13.5457 138.419 13.2003 138.55 12.8112C138.686 12.4221 138.754 12.0281 138.754 11.6293C138.754 11.1575 138.657 10.7392 138.462 10.3744L138.472 10.3793Z" fill="white"/>
</svg>
