<svg width="48" height="48" viewBox="0 0 48 48" fill="none" xmlns="http://www.w3.org/2000/svg">
<path d="M12.7591 29.7929C11.9848 29.6802 11.3075 29.3524 10.7902 28.8401C10.3588 28.4127 10.0791 27.9428 9.87291 27.2989C9.55097 26.2935 9.55087 25.001 9.87259 24.0161C10.1844 23.0617 10.8865 22.2309 11.7457 21.7996C12.9357 21.2023 14.6105 21.2398 15.7126 21.8885C16.7044 22.4723 17.3052 23.5096 17.4724 24.9269C17.5234 25.3596 17.4903 26.2736 17.4099 26.6509C17.0809 28.1951 16.1228 29.2738 14.719 29.6804C14.5677 29.7242 14.3331 29.7754 14.1977 29.7943C13.9112 29.8341 13.0365 29.8333 12.7591 29.7929ZM14.4351 29.6737C15.0018 29.5414 15.4536 29.3395 15.8574 29.0379C16.8396 28.3044 17.3777 27.1796 17.4274 25.7567C17.4764 24.3539 17.0533 23.1581 16.2353 22.3871C15.5712 21.7613 14.7344 21.4613 13.6527 21.4613C12.5061 21.4613 11.5826 21.8168 10.8722 22.5318C10.1112 23.2976 9.7086 24.3661 9.7086 25.62C9.7086 26.9209 10.0723 27.971 10.7776 28.7067C11.1665 29.1123 11.545 29.3556 12.0878 29.5487C12.2798 29.617 12.421 29.6498 12.9342 29.7452C12.9781 29.7533 13.2727 29.7548 13.5888 29.7485C14.0169 29.74 14.2331 29.7209 14.4351 29.6737ZM13.2234 29.2198C12.6988 28.9819 12.3268 28.2585 12.1404 27.1139C12.0222 26.3884 12.011 24.7749 12.1187 23.9842C12.27 22.8739 12.5894 22.218 13.0869 21.9964C13.4279 21.8445 13.9004 21.9344 14.2042 22.2089C14.879 22.8185 15.2195 24.552 15.0726 26.6289C14.9671 28.1193 14.6437 28.9276 14.0404 29.2085C13.8217 29.3104 13.4348 29.3157 13.2234 29.2198ZM13.9177 29.1728C14.1439 29.1056 14.4229 28.844 14.5717 28.5595C14.8788 27.9722 15.016 27.1038 15.0194 25.7247C15.0237 23.9965 14.7527 22.8967 14.1809 22.3209C13.9407 22.0791 13.7705 22.004 13.4634 22.0045C12.782 22.0056 12.3495 22.7169 12.1787 24.1177C12.1001 24.7616 12.0997 26.2955 12.1779 26.8584C12.4199 28.6007 13.0449 29.432 13.9177 29.1728ZM26.4751 29.7925C26.1583 29.7604 25.1901 29.5993 24.8519 29.5224L24.6179 29.4692L24.6362 28.2197C24.6801 25.2115 24.6856 23.5693 24.6572 21.9722C24.6293 20.4077 24.6212 20.2423 24.5609 20.0109C24.4844 19.7177 24.3741 19.5131 24.2414 19.4186C24.1898 19.382 24.0497 19.3299 23.9301 19.303C23.5325 19.2137 23.5541 19.228 23.5435 19.0466C23.5374 18.9421 23.5487 18.8731 23.5754 18.8519C23.6112 18.8235 26.8728 18.2014 26.9767 18.2031C27.0066 18.2036 27.0108 18.6207 26.9955 20.0561C26.9846 21.0749 26.9832 21.9084 26.9924 21.9084C27.0015 21.9084 27.1207 21.8568 27.2572 21.7937C27.6687 21.6036 28.048 21.5211 28.5989 21.5019C28.9656 21.4891 29.1355 21.4971 29.3236 21.536C30.5539 21.7906 31.4644 22.7976 31.7825 24.2557C31.8655 24.636 31.8964 25.5814 31.8413 26.0549C31.7943 26.4585 31.6603 27.0022 31.5209 27.3551C30.9947 28.6867 29.8658 29.5554 28.3681 29.7811C28.0231 29.8331 26.9398 29.8396 26.4751 29.7925ZM28.2795 29.7164C29.2496 29.5709 29.9612 29.2377 30.5639 28.6469C31.4349 27.7928 31.8545 26.5875 31.7978 25.102C31.7686 24.3372 31.6437 23.8376 31.3267 23.2177C30.8973 22.3781 30.1628 21.7891 29.3289 21.6156C28.7033 21.4855 27.8984 21.5874 27.2864 21.8742C27.1339 21.9457 26.9879 22.0042 26.962 22.0042C26.9209 22.0042 26.9164 21.7677 26.9269 20.1414L26.9389 18.2786L26.8108 18.3043C26.7403 18.3184 26.0216 18.4524 25.2136 18.6019C24.4056 18.7515 23.713 18.8812 23.6745 18.8902C23.616 18.904 23.6057 18.9263 23.612 19.0263C23.619 19.1377 23.6281 19.1478 23.7458 19.1737C24.1507 19.2628 24.2228 19.2945 24.3733 19.45C24.5577 19.6405 24.641 19.8837 24.6957 20.3914C24.7392 20.7959 24.7489 27.7651 24.7073 28.7938L24.6827 29.4037L25.012 29.4742C26.259 29.7408 27.5021 29.833 28.2795 29.7164ZM27.1402 29.2305C27.0757 29.2237 27.0066 29.1986 26.9868 29.1747C26.932 29.1087 26.8727 24.7735 26.9092 23.5052L26.9381 22.4992L27.1936 22.4255C27.5706 22.3169 27.9764 22.3337 28.2641 22.4701C28.8418 22.7439 29.2214 23.4202 29.4184 24.5271C29.4827 24.8877 29.4731 26.14 29.4028 26.5857C29.256 27.5162 28.9889 28.2343 28.617 28.6983C28.4367 28.9232 28.1373 29.136 27.9032 29.2055C27.7522 29.2504 27.4284 29.261 27.1402 29.2305ZM27.755 29.1574C27.9871 29.1134 28.1673 29.021 28.3608 28.847C28.8458 28.411 29.2105 27.5108 29.3539 26.3954C29.4123 25.9411 29.4044 24.9059 29.3397 24.5267C29.1646 23.5012 28.7883 22.8272 28.2393 22.5558C28.0116 22.4432 27.9765 22.4353 27.7064 22.4353C27.5132 22.4353 27.347 22.456 27.2057 22.4976L26.9942 22.5599L26.9786 23.7272C26.9586 25.2223 27.0072 28.9656 27.0481 29.073C27.0741 29.1415 27.1028 29.1561 27.2321 29.1663C27.5364 29.1902 27.5868 29.1893 27.755 29.1574ZM35.6567 29.7767C34.0724 29.491 32.9393 28.3674 32.569 26.715C32.5214 26.5025 32.5004 26.2646 32.4884 25.8046C32.4695 25.0767 32.5287 24.6249 32.7166 24.0635C33.0773 22.9857 33.7236 22.2219 34.6626 21.7641C35.6537 21.281 37.0087 21.2493 37.8858 21.6889C38.8733 22.1837 39.4544 23.1719 39.6018 24.607C39.6216 24.8002 39.6331 25.0301 39.6274 25.1179L39.6169 25.2776L37.2536 25.2858L34.8903 25.294L34.8993 25.5732C34.9202 26.2201 35.0592 26.7922 35.3165 27.2896C35.4334 27.5157 35.5264 27.6389 35.7525 27.8672C36.2633 28.3829 36.7714 28.5825 37.5729 28.5825C38.154 28.5825 38.572 28.4665 39.0091 28.184C39.1315 28.1048 39.2556 28.0401 39.2847 28.0401C39.3514 28.0401 39.505 28.2378 39.505 28.3237C39.505 28.4645 39.0468 28.9182 38.5999 29.2201C38.2339 29.4674 37.6534 29.6913 37.15 29.7793C36.7975 29.8411 36.0056 29.8396 35.6567 29.7767ZM37.077 29.7153C37.817 29.5954 38.5457 29.2402 39.0694 28.7443C39.3563 28.4726 39.4514 28.3415 39.4115 28.2728C39.3051 28.0896 39.3097 28.0898 39.0379 28.2567C38.605 28.5226 38.3881 28.5959 37.8796 28.6481C37.2856 28.709 36.7378 28.6098 36.2316 28.3495C35.8957 28.1768 35.4933 27.7796 35.2921 27.4224C35.0176 26.9349 34.8687 26.3654 34.8243 25.6336C34.8056 25.3263 34.8097 25.2498 34.8458 25.2269C34.8704 25.2114 35.9353 25.1985 37.2296 25.1983L39.5689 25.1978V25.1054C39.5689 24.8953 39.5 24.3307 39.4382 24.0347C39.1897 22.8445 38.5336 21.9958 37.5981 21.6544C37.2258 21.5185 36.8736 21.4613 36.4093 21.4613C35.3094 21.4613 34.411 21.8221 33.7161 22.543C33.162 23.1177 32.8333 23.7634 32.6327 24.6709C32.5722 24.9444 32.5621 25.0865 32.5621 25.6609C32.5621 26.231 32.5724 26.3781 32.631 26.6418C33.0034 28.3168 34.1054 29.4199 35.6886 29.7025C36.0899 29.7741 36.6811 29.7796 37.077 29.7153ZM34.8311 24.6624C34.807 24.6235 34.8666 24.0551 34.9256 23.7607C35.0678 23.0509 35.2954 22.5385 35.6086 22.2229C35.7771 22.0532 35.854 22.0002 35.9914 21.9594C36.0859 21.9314 36.193 21.9085 36.2294 21.9086C36.3759 21.9089 36.5488 21.9837 36.6775 22.1023C37.0229 22.4207 37.2206 23.1045 37.2597 24.1166L37.2791 24.6161L36.9469 24.6347C36.2802 24.6718 34.8485 24.6906 34.8311 24.6624ZM36.6595 24.5712L37.2151 24.5518L37.1951 24.1571C37.1246 22.7654 36.784 22.0048 36.2316 22.0054C35.6312 22.0061 35.1514 22.7779 34.9519 24.0641C34.9274 24.2222 34.9071 24.4096 34.9068 24.4807L34.9062 24.6099L35.505 24.6002C35.8344 24.5948 36.3539 24.5818 36.6595 24.5712ZM42.044 29.8077C41.475 29.7467 40.5695 29.5485 40.268 29.4188L40.1207 29.3556L40.1006 28.626C40.0896 28.2248 40.0769 27.6882 40.0723 27.4337L40.0641 26.9711L40.1524 26.9288C40.2009 26.9055 40.2989 26.8838 40.3701 26.8804L40.4995 26.8744L40.6098 27.1459C41.0401 28.2049 41.5447 28.7759 42.2038 28.9495C42.4552 29.0158 42.9267 29.0164 43.1128 28.9507C43.6342 28.7666 43.9201 28.3718 43.9226 27.8325C43.9255 27.1938 43.5744 26.8869 42.2481 26.3688C41.4264 26.0478 41.1397 25.8827 40.7984 25.5333C40.4302 25.1564 40.2535 24.7275 40.2204 24.13C40.1803 23.408 40.4062 22.7994 40.9069 22.2808C41.4108 21.7589 42.0649 21.476 42.956 21.3947C43.7406 21.3231 44.9451 21.4895 45.5762 21.7567L45.6913 21.8054L45.7119 22.4557C45.7232 22.8134 45.7349 23.2928 45.7378 23.5211L45.7433 23.9363L45.5886 23.9937C45.3442 24.0845 45.3281 24.0731 45.1921 23.7128C44.8109 22.7028 44.3681 22.225 43.678 22.079C43.2575 21.99 42.9062 22.0857 42.6508 22.3587C42.4516 22.5716 42.3739 22.7607 42.3551 23.0783C42.3346 23.4224 42.3962 23.6084 42.6064 23.8384C42.8655 24.1219 43.29 24.3667 44.1357 24.7201C45.1715 25.1529 45.6657 25.5204 45.9344 26.0574C46.1089 26.4062 46.1583 26.6848 46.1408 27.221C46.1276 27.6234 46.1147 27.7061 46.0231 27.9763C45.7247 28.8571 45.0509 29.437 44.0101 29.7089C43.6575 29.8009 43.6072 29.8057 42.9062 29.8134C42.5022 29.8177 42.1142 29.8152 42.044 29.8077ZM43.5609 29.7182C44.9178 29.5122 45.7938 28.7846 46.0236 27.6728C46.1346 27.136 46.0828 26.5391 45.8906 26.1399C45.6216 25.581 45.1667 25.2436 44.04 24.7673C43.2032 24.4135 42.7015 24.1136 42.4961 23.8442C42.3263 23.6217 42.2712 23.4507 42.2734 23.1539C42.2768 22.7063 42.4465 22.3635 42.7704 22.1497C43.0416 21.9708 43.3814 21.9271 43.7771 22.0204C44.2552 22.1332 44.6148 22.4266 44.9395 22.9692C45.0428 23.1418 45.2553 23.6265 45.3587 23.9256C45.3748 23.972 45.3933 23.974 45.5048 23.941C45.575 23.9203 45.6423 23.8935 45.6544 23.8814C45.6665 23.8694 45.6657 23.4118 45.6526 22.8647L45.629 21.87L45.5131 21.8209C45.3175 21.7381 44.8072 21.5993 44.4711 21.5374C44.2181 21.4909 43.9956 21.4788 43.4012 21.4795C42.6917 21.4803 42.6338 21.4849 42.3407 21.5644C41.4895 21.7954 40.8585 22.2757 40.5287 22.9437C40.3534 23.2987 40.2928 23.5724 40.2949 24.0002C40.2977 24.6078 40.4632 25.0562 40.8293 25.448C41.1443 25.7852 41.5539 26.0257 42.2515 26.2833C42.8004 26.486 43.3671 26.769 43.5819 26.9478C43.7081 27.0528 43.8073 27.1725 43.8813 27.309C43.9865 27.5032 43.9919 27.5289 43.9919 27.8326C43.9919 28.1252 43.9835 28.1699 43.8906 28.3659C43.6479 28.8782 43.1625 29.1325 42.5266 29.0805C41.6626 29.0098 41.0544 28.4385 40.5591 27.2323C40.43 26.9177 40.4211 26.9112 40.2247 26.9858L40.1346 27.0201L40.1571 28.1449C40.1771 29.1432 40.1857 29.2743 40.2332 29.3108C40.3752 29.4196 41.2945 29.6378 41.9321 29.714C42.4272 29.7731 43.1866 29.7751 43.5609 29.7182ZM1.76449 29.6158C1.73795 29.605 1.72457 29.5254 1.72457 29.3781C1.72457 29.1135 1.70774 29.1253 2.21958 29.0304C2.6122 28.9575 2.75262 28.883 2.92601 28.6558C3.26213 28.215 3.33479 27.3665 3.33556 23.8725C3.33626 20.5912 3.27302 19.9009 2.9254 19.3937C2.77115 19.1687 2.51122 19.0466 2.07583 18.9944L1.7405 18.9543L1.73131 18.6925L1.72205 18.4307L1.82712 18.412C1.88492 18.4017 3.915 18.3974 6.33848 18.4023L10.7448 18.4114L10.7654 18.5391C10.7768 18.6094 10.7955 19.3301 10.8069 20.1406L10.8276 21.6143L10.6005 21.6833C10.2585 21.7872 10.2606 21.7885 10.1067 21.3814C9.72885 20.3816 9.29554 19.8054 8.70261 19.5145C8.29367 19.3138 8.10461 19.2896 6.94977 19.2896H5.94474L5.9274 19.4573C5.89488 19.7717 5.84363 21.7942 5.84398 22.7467L5.84433 23.6968L6.13974 23.6951C6.30223 23.6942 6.62261 23.6822 6.85172 23.6685C7.19609 23.6479 7.29845 23.6297 7.44254 23.5629C7.79655 23.399 8.03738 23.0384 8.18496 22.451L8.26113 22.1478L8.52179 22.1386L8.78245 22.1293V25.9668L8.5217 25.9575L8.26094 25.9482L8.18691 25.6448C8.04786 25.0748 7.7802 24.6667 7.44947 24.5204C7.29672 24.4528 6.91879 24.4144 6.18764 24.3922L5.84433 24.3817V25.1026C5.84433 25.8881 5.88754 26.9508 5.94288 27.5275C6.02004 28.3315 6.22552 28.7757 6.59448 28.9365C6.66493 28.9672 6.88788 29.0171 7.08984 29.0473C7.29183 29.0776 7.48227 29.1153 7.51299 29.1312C7.59095 29.1715 7.59555 29.5879 7.51839 29.6175C7.45797 29.6407 1.82204 29.6389 1.76449 29.6158ZM7.50501 29.3654C7.50501 29.2688 7.49639 29.1898 7.48585 29.1898C7.33364 29.1898 6.62456 29.0369 6.51058 28.9795C6.10506 28.7753 5.91759 28.29 5.84484 27.256C5.79314 26.5209 5.74169 24.3615 5.77506 24.3281C5.80534 24.2978 7.1556 24.3516 7.31336 24.3894C7.74967 24.4938 8.08599 24.9231 8.25439 25.5903L8.32861 25.8844L8.52358 25.894L8.71852 25.9034V22.1958H8.51093C8.31689 22.1958 8.30335 22.2005 8.30335 22.2678C8.30335 22.3888 8.18221 22.7717 8.06753 23.0132C7.88792 23.3913 7.63499 23.6196 7.31333 23.6938C7.23429 23.712 6.86121 23.7412 6.4842 23.7587C5.95253 23.7833 5.79298 23.7817 5.77295 23.7516C5.73587 23.696 5.82035 19.4912 5.86247 19.2958L5.87834 19.2222L7.05094 19.232L8.22354 19.2418L8.49643 19.3395C9.12845 19.5658 9.58322 20.0281 9.9632 20.8303C10.0486 21.0105 10.158 21.2729 10.2064 21.4134C10.2547 21.554 10.2975 21.6734 10.3015 21.6789C10.3054 21.6843 10.4103 21.6579 10.5346 21.6202L10.7605 21.5515L10.7446 20.5084C10.7359 19.9347 10.7204 19.2462 10.7103 18.9783L10.6919 18.4913H1.78541L1.79492 18.6908L1.80441 18.8902L2.09183 18.9262C2.47529 18.9741 2.61584 19.0159 2.77025 19.1277C3.00431 19.2973 3.14825 19.5463 3.23888 19.9386C3.37969 20.5481 3.43037 21.9225 3.40693 24.4953C3.38212 27.2138 3.34782 27.7791 3.17453 28.3276C3.032 28.7787 2.76668 29.0178 2.32851 29.0902C2.20792 29.1101 2.03706 29.1419 1.94886 29.1608L1.78847 29.1952V29.5412H7.50504L7.50501 29.3654ZM17.5074 29.6097C17.4783 29.5912 17.4688 29.5175 17.4755 29.3626L17.4851 29.1419L17.5969 29.1181C17.6583 29.105 17.7904 29.079 17.8903 29.0604C18.1995 29.0026 18.3772 28.8348 18.4772 28.506C18.5587 28.2382 18.5946 27.3814 18.5965 25.6609C18.5988 23.5566 18.5549 23.0597 18.3422 22.778C18.2268 22.6253 18.1437 22.5819 17.8639 22.5282C17.7258 22.5017 17.5805 22.4732 17.541 22.465C17.477 22.4517 17.4691 22.4308 17.4691 22.2743C17.4691 22.1221 17.4787 22.0946 17.541 22.069C17.6365 22.0297 20.8003 21.3973 20.9014 21.3973H20.9802L20.9648 21.8684C20.9563 22.1275 20.9427 22.5047 20.9346 22.7067L20.9198 23.074L21.0344 22.8673C21.4013 22.2057 21.8128 21.7949 22.36 21.5442C22.6603 21.4065 22.8608 21.3654 23.2318 21.3654C23.6719 21.3654 24.1119 21.509 24.1119 21.6526C24.1119 21.7492 23.3365 23.798 23.2938 23.8144C23.2729 23.8224 23.1215 23.7645 22.9573 23.6857C22.6149 23.5214 22.2937 23.441 21.9818 23.4417C21.5935 23.4425 21.1597 23.5856 20.9885 23.7693C20.9152 23.8478 20.9149 23.8526 20.8967 25.0259C20.8786 26.1879 20.9174 27.6053 20.9827 28.1754C21.0384 28.661 21.1674 28.9001 21.4339 29.0115C21.5228 29.0486 22.0854 29.1257 22.2689 29.1259C22.2828 29.1259 22.29 29.2373 22.2849 29.3734L22.2756 29.6209L19.9123 29.6285C18.6124 29.6327 17.5303 29.6243 17.5074 29.6097ZM22.2276 29.3682V29.1953L21.9801 29.1743C21.4092 29.1262 21.2528 29.0689 21.1029 28.853C20.8856 28.5401 20.8384 27.9628 20.8384 25.6236V23.7978L20.9175 23.7135C21.0174 23.6072 21.3297 23.4588 21.5505 23.4128C21.9989 23.3193 22.5721 23.4001 23.0204 23.6199C23.149 23.683 23.2597 23.7293 23.2663 23.7227C23.2795 23.7094 24.0158 21.7637 24.0387 21.6816C24.049 21.6443 24.0066 21.6119 23.8828 21.5623C23.6177 21.4562 23.3878 21.4199 23.0913 21.4371C22.2981 21.4831 21.5942 22.01 21.0872 22.9373C21.003 23.0912 20.9159 23.2173 20.8935 23.2175C20.861 23.2177 20.8572 23.0409 20.8747 22.3376L20.8965 21.4575L20.8196 21.4757C20.7772 21.4856 20.139 21.6149 19.4013 21.763C17.819 22.0805 17.5991 22.1268 17.5614 22.1501C17.5458 22.1598 17.533 22.2168 17.533 22.277C17.533 22.3976 17.5189 22.3906 17.8784 22.4484C18.3727 22.5279 18.5472 22.7688 18.6209 23.4733C18.717 24.3918 18.6786 27.9724 18.5674 28.4612C18.5105 28.7112 18.3636 28.9519 18.2158 29.0374C18.161 29.0691 17.9885 29.12 17.8325 29.1504L17.549 29.2058L17.5393 29.3735L17.5296 29.5411H22.2276V29.3682Z" fill="#171717"/>
<path d="M7.50501 29.3654C7.50501 29.2688 7.49639 29.1898 7.48585 29.1898C7.33364 29.1898 6.62456 29.0369 6.51058 28.9795C6.10506 28.7753 5.91759 28.29 5.84484 27.256C5.79314 26.5209 5.74169 24.3615 5.77506 24.3281C5.80534 24.2978 7.1556 24.3516 7.31336 24.3894C7.74967 24.4938 8.08599 24.9231 8.25439 25.5903L8.32861 25.8844L8.52358 25.894L8.71852 25.9034V22.1958H8.51093C8.31689 22.1958 8.30335 22.2005 8.30335 22.2678C8.30335 22.3888 8.18221 22.7717 8.06753 23.0132C7.88792 23.3913 7.63499 23.6196 7.31333 23.6938C7.23429 23.712 6.86121 23.7412 6.4842 23.7587C5.95253 23.7833 5.79298 23.7817 5.77295 23.7516C5.73587 23.696 5.82035 19.4912 5.86247 19.2958L5.87834 19.2222L7.05094 19.232L8.22354 19.2418L8.49643 19.3395C9.12845 19.5658 9.58322 20.0281 9.9632 20.8303C10.0486 21.0105 10.158 21.2729 10.2064 21.4134C10.2547 21.554 10.2975 21.6734 10.3015 21.6789C10.3054 21.6843 10.4103 21.6579 10.5346 21.6202L10.7605 21.5515L10.7446 20.5084C10.7359 19.9347 10.7204 19.2462 10.7103 18.9783L10.6919 18.4913H1.78541L1.79492 18.6908L1.80441 18.8902L2.09183 18.9262C2.47529 18.9741 2.61584 19.0159 2.77025 19.1277C3.00431 19.2973 3.14825 19.5463 3.23888 19.9386C3.37969 20.5481 3.43037 21.9225 3.40693 24.4953C3.38212 27.2138 3.34782 27.7791 3.17453 28.3276C3.032 28.7787 2.76668 29.0178 2.32851 29.0902C2.20792 29.1101 2.03706 29.1419 1.94886 29.1608L1.78847 29.1952V29.5412H7.50504L7.50501 29.3654Z" fill="#171717"/>
<path fill-rule="evenodd" clip-rule="evenodd" d="M14.4351 29.6737C15.0018 29.5414 15.4536 29.3395 15.8574 29.0379C16.8396 28.3044 17.3777 27.1796 17.4274 25.7567C17.4764 24.3539 17.0533 23.1581 16.2353 22.3871C15.5712 21.7613 14.7344 21.4613 13.6527 21.4613C12.5061 21.4613 11.5826 21.8168 10.8722 22.5318C10.1112 23.2976 9.7086 24.3661 9.7086 25.62C9.7086 26.9209 10.0723 27.971 10.7776 28.7067C11.1665 29.1123 11.545 29.3556 12.0878 29.5487C12.2798 29.617 12.421 29.6498 12.9342 29.7452C12.9781 29.7533 13.2727 29.7548 13.5888 29.7485C14.0169 29.74 14.2331 29.7209 14.4351 29.6737ZM12.1404 27.1139C12.3268 28.2585 12.6988 28.9819 13.2234 29.2198C13.4348 29.3157 13.8217 29.3104 14.0404 29.2085C14.6437 28.9276 14.9671 28.1193 15.0726 26.6289C15.2195 24.552 14.879 22.8185 14.2042 22.2089C13.9004 21.9344 13.4279 21.8445 13.0869 21.9964C12.5894 22.218 12.27 22.8739 12.1187 23.9842C12.011 24.7749 12.0222 26.3884 12.1404 27.1139Z" fill="#171717"/>
<path d="M22.2276 29.3682V29.1953L21.9801 29.1743C21.4092 29.1262 21.2528 29.0689 21.1029 28.853C20.8856 28.5401 20.8384 27.9628 20.8384 25.6236V23.7978L20.9175 23.7135C21.0174 23.6072 21.3297 23.4588 21.5505 23.4128C21.9989 23.3193 22.5721 23.4001 23.0204 23.6199C23.149 23.683 23.2597 23.7293 23.2663 23.7227C23.2795 23.7094 24.0158 21.7637 24.0387 21.6816C24.049 21.6443 24.0066 21.6119 23.8828 21.5623C23.6177 21.4562 23.3878 21.4199 23.0913 21.4371C22.2981 21.4831 21.5942 22.01 21.0872 22.9373C21.003 23.0912 20.9159 23.2173 20.8935 23.2175C20.861 23.2177 20.8572 23.0409 20.8747 22.3376L20.8965 21.4575L20.8196 21.4757C20.7772 21.4856 20.139 21.6149 19.4013 21.763C17.819 22.0805 17.5991 22.1268 17.5614 22.1501C17.5458 22.1598 17.533 22.2168 17.533 22.277C17.533 22.3976 17.5189 22.3906 17.8784 22.4484C18.3727 22.5279 18.5472 22.7688 18.6209 23.4733C18.717 24.3918 18.6786 27.9724 18.5674 28.4612C18.5105 28.7112 18.3636 28.9519 18.2158 29.0374C18.161 29.0691 17.9885 29.12 17.8325 29.1504L17.549 29.2058L17.5393 29.3735L17.5296 29.5411H22.2276V29.3682Z" fill="#171717"/>
<path fill-rule="evenodd" clip-rule="evenodd" d="M28.2795 29.7164C29.2496 29.5709 29.9612 29.2377 30.5639 28.6469C31.4349 27.7928 31.8545 26.5875 31.7978 25.102C31.7686 24.3372 31.6437 23.8376 31.3267 23.2177C30.8973 22.3781 30.1628 21.7891 29.3289 21.6156C28.7033 21.4855 27.8984 21.5874 27.2864 21.8742C27.1339 21.9457 26.9879 22.0042 26.962 22.0042C26.9209 22.0042 26.9164 21.7677 26.9269 20.1414L26.9389 18.2786L26.8108 18.3043C26.7403 18.3184 26.0216 18.4524 25.2136 18.6019C24.4056 18.7515 23.713 18.8812 23.6745 18.8902C23.616 18.904 23.6057 18.9263 23.612 19.0263C23.619 19.1377 23.6281 19.1478 23.7458 19.1737C24.1507 19.2628 24.2228 19.2945 24.3733 19.45C24.5577 19.6405 24.641 19.8837 24.6957 20.3914C24.7392 20.7959 24.7489 27.7651 24.7073 28.7938L24.6827 29.4037L25.012 29.4742C26.259 29.7408 27.5021 29.833 28.2795 29.7164ZM26.9868 29.1747C27.0066 29.1986 27.0757 29.2237 27.1402 29.2305C27.4284 29.261 27.7522 29.2504 27.9032 29.2055C28.1373 29.136 28.4367 28.9232 28.617 28.6983C28.9889 28.2343 29.256 27.5162 29.4028 26.5857C29.4731 26.14 29.4827 24.8877 29.4184 24.5271C29.2214 23.4202 28.8418 22.7439 28.2641 22.4701C27.9764 22.3337 27.5706 22.3169 27.1936 22.4255L26.9381 22.4992L26.9092 23.5052C26.8727 24.7735 26.932 29.1087 26.9868 29.1747Z" fill="#171717"/>
<path fill-rule="evenodd" clip-rule="evenodd" d="M37.077 29.7153C37.817 29.5954 38.5457 29.2402 39.0694 28.7443C39.3563 28.4726 39.4514 28.3415 39.4115 28.2728C39.3051 28.0896 39.3097 28.0898 39.0379 28.2567C38.605 28.5226 38.3881 28.5959 37.8796 28.6481C37.2856 28.709 36.7378 28.6098 36.2316 28.3495C35.8957 28.1768 35.4933 27.7796 35.2921 27.4224C35.0176 26.9349 34.8687 26.3654 34.8243 25.6336C34.8056 25.3263 34.8097 25.2498 34.8458 25.2269C34.8704 25.2114 35.9353 25.1985 37.2296 25.1983L39.5689 25.1978V25.1054C39.5689 24.8953 39.5 24.3307 39.4382 24.0347C39.1897 22.8445 38.5336 21.9958 37.5981 21.6544C37.2258 21.5185 36.8736 21.4613 36.4093 21.4613C35.3094 21.4613 34.411 21.8221 33.7161 22.543C33.162 23.1177 32.8333 23.7634 32.6327 24.6709C32.5722 24.9444 32.5621 25.0865 32.5621 25.6609C32.5621 26.231 32.5724 26.3781 32.631 26.6418C33.0034 28.3168 34.1054 29.4199 35.6886 29.7025C36.0899 29.7741 36.6811 29.7796 37.077 29.7153ZM34.9256 23.7607C34.8666 24.0551 34.807 24.6235 34.8311 24.6624C34.8485 24.6906 36.2802 24.6718 36.9469 24.6347L37.2791 24.6161L37.2597 24.1166C37.2206 23.1045 37.0229 22.4207 36.6775 22.1023C36.5488 21.9837 36.3759 21.9089 36.2294 21.9086C36.193 21.9085 36.0859 21.9314 35.9914 21.9594C35.854 22.0002 35.7771 22.0532 35.6086 22.2229C35.2954 22.5385 35.0678 23.0509 34.9256 23.7607Z" fill="#171717"/>
<path d="M43.5609 29.7182C44.9178 29.5122 45.7938 28.7846 46.0236 27.6728C46.1346 27.136 46.0828 26.5391 45.8906 26.1399C45.6216 25.581 45.1667 25.2436 44.04 24.7673C43.2032 24.4135 42.7015 24.1136 42.4961 23.8442C42.3263 23.6217 42.2712 23.4507 42.2734 23.1539C42.2768 22.7063 42.4465 22.3635 42.7704 22.1497C43.0416 21.9708 43.3814 21.9271 43.7771 22.0204C44.2552 22.1332 44.6148 22.4266 44.9395 22.9692C45.0428 23.1418 45.2553 23.6265 45.3587 23.9256C45.3748 23.972 45.3933 23.974 45.5048 23.941C45.575 23.9203 45.6423 23.8935 45.6544 23.8814C45.6665 23.8694 45.6657 23.4118 45.6526 22.8647L45.629 21.87L45.5131 21.8209C45.3175 21.7381 44.8072 21.5993 44.4711 21.5374C44.2181 21.4909 43.9956 21.4788 43.4012 21.4795C42.6917 21.4803 42.6338 21.4849 42.3407 21.5644C41.4895 21.7954 40.8585 22.2757 40.5287 22.9437C40.3534 23.2987 40.2928 23.5724 40.2949 24.0002C40.2977 24.6078 40.4632 25.0562 40.8293 25.448C41.1443 25.7852 41.5539 26.0257 42.2515 26.2833C42.8004 26.486 43.3671 26.769 43.5819 26.9478C43.7081 27.0528 43.8073 27.1725 43.8813 27.309C43.9865 27.5032 43.9919 27.5289 43.9919 27.8326C43.9919 28.1252 43.9835 28.1699 43.8906 28.3659C43.6479 28.8782 43.1625 29.1325 42.5266 29.0805C41.6626 29.0098 41.0544 28.4385 40.5591 27.2323C40.43 26.9177 40.4211 26.9112 40.2247 26.9858L40.1346 27.0201L40.1571 28.1449C40.1771 29.1432 40.1857 29.2743 40.2332 29.3108C40.3752 29.4196 41.2945 29.6378 41.9321 29.714C42.4272 29.7731 43.1866 29.7751 43.5609 29.7182Z" fill="#171717"/>
</svg>
