<svg width="64" height="64" viewBox="0 0 64 64" fill="none" xmlns="http://www.w3.org/2000/svg">
<g clip-path="url(#clip0_164_466)">
<path d="M7.88195 21.5571H8.45107C10.4269 21.6001 12.3705 22.3947 13.7665 23.8014C13.2511 24.3276 12.7249 24.8323 12.2202 25.3585C11.4363 24.6497 10.4913 24.1021 9.46047 23.9088C7.93564 23.5867 6.29269 23.8766 5.01483 24.7464C3.61886 25.6591 2.67389 27.2055 2.46987 28.8591C2.24436 30.4914 2.70611 32.2095 3.7692 33.4766C4.78933 34.7115 6.34638 35.4846 7.95711 35.5383C9.46047 35.6242 11.0283 35.1625 12.1236 34.1102C12.9826 33.3692 13.3799 32.2417 13.5088 31.1464C11.7262 31.1464 9.94369 31.1571 8.16114 31.1464V28.9343H15.6672C16.0538 31.3075 15.4954 33.9813 13.6913 35.6779C12.4887 36.8806 10.8242 37.5893 9.12758 37.7289C7.48463 37.89 5.78799 37.5786 4.32759 36.784C2.57725 35.8497 1.18128 34.2712 0.494028 32.4135C-0.150267 30.7061 -0.161005 28.7732 0.440337 27.0551C0.987988 25.4873 2.04034 24.1021 3.39336 23.1357C4.69269 22.1799 6.27121 21.6538 7.88195 21.5571Z" fill="#050505"/>
<path d="M50.9424 22.1152H53.2404V37.4495C52.478 37.4495 51.7048 37.4602 50.9424 37.4387C50.9531 32.3381 50.9424 27.2266 50.9424 22.1152Z" fill="#050505"/>
<path d="M20.7786 27.4312C22.196 27.1627 23.7316 27.4634 24.9021 28.3117C25.9651 29.0634 26.7061 30.2446 26.9316 31.5332C27.2215 33.0258 26.8564 34.658 25.89 35.8392C24.8484 37.1601 23.141 37.8688 21.4766 37.7614C19.9517 37.6755 18.4698 36.9131 17.5678 35.6674C16.5477 34.2929 16.3007 32.403 16.8591 30.7923C17.4175 29.0634 18.996 27.7426 20.7786 27.4312ZM21.1007 29.4715C20.5208 29.6218 19.9839 29.9547 19.5974 30.4272C18.5557 31.6728 18.6202 33.7023 19.7692 34.8621C20.4242 35.5278 21.4121 35.8392 22.3249 35.6567C23.1732 35.5064 23.9141 34.9372 24.3222 34.1856C25.0309 32.9077 24.8269 31.1466 23.7423 30.148C23.0443 29.5037 22.0242 29.2352 21.1007 29.4715Z" fill="#050505"/>
<path d="M32.1609 27.431C33.7824 27.1196 35.5542 27.5706 36.7676 28.7089C38.7435 30.4807 38.9582 33.7988 37.2723 35.8391C36.2522 37.1277 34.5985 37.8364 32.9663 37.7612C31.4093 37.7183 29.8737 36.9451 28.9502 35.6672C27.9086 34.2605 27.6831 32.3277 28.2737 30.6847C28.8643 29.0095 30.4106 27.7317 32.1609 27.431ZM32.4831 29.4713C31.9032 29.6216 31.3663 29.9545 30.9797 30.4162C29.9489 31.6404 29.9918 33.6377 31.0978 34.8082C31.7529 35.5062 32.773 35.8498 33.718 35.6565C34.5556 35.4954 35.3072 34.937 35.7153 34.1854C36.4133 32.8968 36.2093 31.1357 35.114 30.137C34.416 29.4928 33.3958 29.235 32.4831 29.4713Z" fill="#050505"/>
<path d="M41.8148 28.0537C43.0497 27.2805 44.6926 27.0658 46.0242 27.7315C46.443 27.9141 46.7866 28.2255 47.1195 28.5369C47.1302 28.247 47.1195 27.9463 47.1302 27.6456C47.8497 27.6564 48.5691 27.6456 49.2993 27.6564V37.1275C49.2886 38.5557 48.9235 40.0698 47.8926 41.1114C46.7651 42.2604 45.0362 42.6147 43.4792 42.3785C41.8148 42.1315 40.3651 40.9181 39.7208 39.3825C40.3651 39.0711 41.0416 38.8241 41.7074 38.5342C42.0832 39.4147 42.8456 40.1664 43.8013 40.3382C44.757 40.51 45.8631 40.2738 46.4859 39.4792C47.1517 38.6631 47.1517 37.5463 47.1195 36.5476C46.6255 37.0309 46.0564 37.4604 45.3691 37.6215C43.8765 38.0403 42.2336 37.5248 41.0846 36.5154C39.9248 35.506 39.2376 33.949 39.302 32.4027C39.3342 30.6523 40.3221 28.9664 41.8148 28.0537ZM44.0376 29.4282C43.3826 29.5356 42.7705 29.9007 42.3517 30.4054C41.3423 31.608 41.3423 33.5302 42.3624 34.7114C42.9423 35.4094 43.8765 35.796 44.7785 35.6993C45.6268 35.6134 46.4107 35.0765 46.8295 34.3356C47.5383 33.0792 47.4201 31.3718 46.4644 30.2765C45.8738 29.6 44.9289 29.2671 44.0376 29.4282Z" fill="#050505"/>
<path d="M56 28.6017C57.2886 27.399 59.2751 26.9909 60.9288 27.6245C62.4966 28.2151 63.4953 29.7077 64 31.2433C61.6698 32.2097 59.3503 33.1654 57.0201 34.1319C57.3422 34.744 57.8362 35.3024 58.502 35.5279C59.4362 35.8607 60.553 35.7426 61.3369 35.1198C61.6483 34.8836 61.8953 34.5721 62.1315 34.2715C62.7221 34.6688 63.3127 35.0554 63.9033 35.4527C63.0657 36.7091 61.659 37.5896 60.1449 37.7292C58.4698 37.9332 56.6872 37.2889 55.6026 35.9789C53.8201 33.9171 53.9919 30.4594 56 28.6017ZM57.149 30.5883C56.7839 31.1144 56.6335 31.7587 56.6443 32.3923C58.2013 31.748 59.7584 31.1037 61.3154 30.4487C61.0577 29.8473 60.4349 29.4822 59.8013 29.3856C58.7812 29.203 57.7181 29.7507 57.149 30.5883Z" fill="#050505"/>
</g>
<defs>
<clipPath id="clip0_164_466">
<rect width="64" height="64" fill="white"/>
</clipPath>
</defs>
</svg>
