<svg width="48" height="48" viewBox="0 0 48 48" fill="none" xmlns="http://www.w3.org/2000/svg">
<path d="M30.9228 17.399C30.8902 17.2987 30.8268 17.2112 30.7417 17.1489C30.6565 17.0866 30.5539 17.0528 30.4484 17.0521H25.7082L24.2434 12.5439C24.1777 12.3439 23.9885 12.2 23.7666 12.2C23.5448 12.2 23.3561 12.344 23.2899 12.5444L21.8246 17.0521H17.0854C16.8747 17.0531 16.6792 17.1879 16.6106 17.399C16.5779 17.4994 16.5777 17.6076 16.61 17.7081C16.6423 17.8086 16.7055 17.8964 16.7906 17.9589L20.625 20.745L19.1602 25.2527C19.1286 25.3534 19.1292 25.4614 19.1621 25.5617C19.195 25.6619 19.2585 25.7494 19.3436 25.8117C19.5236 25.9426 19.7611 25.9363 19.9322 25.8136L23.7666 23.0276L27.6011 25.8136C27.7723 25.9363 28.0097 25.9426 28.1897 25.8117C28.275 25.7495 28.3386 25.6621 28.3716 25.5618C28.4045 25.4615 28.405 25.3533 28.3731 25.2527L26.9083 20.745L30.7427 17.9589C30.8278 17.8964 30.891 17.8086 30.9233 17.7081C30.9556 17.6076 30.9554 17.4994 30.9228 17.399Z" fill="#050505"/>
<path d="M30.9228 17.1107C30.8902 17.0103 30.8269 16.9228 30.7417 16.8606C30.6566 16.7983 30.554 16.7644 30.4485 16.7638H25.7082L24.2434 12.2555C24.1777 12.0556 23.9885 11.9116 23.7666 11.9116C23.5448 11.9116 23.3561 12.0556 23.2899 12.256L21.8246 16.7638H17.0854C16.8747 16.7648 16.6792 16.8995 16.6106 17.1106C16.5779 17.211 16.5777 17.3192 16.61 17.4197C16.6423 17.5202 16.7055 17.608 16.7906 17.6706L20.625 20.4566L19.1602 24.9644C19.1286 25.0651 19.1292 25.1731 19.1621 25.2733C19.195 25.3736 19.2585 25.461 19.3436 25.5233C19.5236 25.6542 19.7611 25.6479 19.9322 25.5253L23.7666 22.7392L27.6011 25.5253C27.7723 25.6479 28.0097 25.6542 28.1897 25.5233C28.275 25.4612 28.3387 25.3737 28.3716 25.2734C28.4045 25.1731 28.405 25.0649 28.3731 24.9643L26.9083 20.4566L30.7427 17.6706C30.8278 17.608 30.891 17.5202 30.9233 17.4197C30.9556 17.3192 30.9554 17.211 30.9227 17.1106" fill="white"/>
<path d="M19.781 25.0822C19.7646 25.0941 19.7449 25.1006 19.7246 25.1006C19.7043 25.1006 19.6845 25.0941 19.6681 25.0822C19.6331 25.0569 19.619 25.0175 19.6317 24.9791L21.1553 20.2879L17.1681 17.3914C17.1518 17.3796 17.1397 17.3629 17.1336 17.3437C17.1275 17.3246 17.1277 17.3039 17.1341 17.2849C17.1399 17.2656 17.1518 17.2486 17.168 17.2366C17.1843 17.2246 17.2039 17.2182 17.2241 17.2182H22.1526L23.6753 12.532C23.6816 12.5126 23.6938 12.4957 23.7102 12.4838C23.7266 12.4718 23.7464 12.4653 23.7668 12.4653C23.8095 12.4653 23.8451 12.4935 23.8582 12.532L25.3804 17.2182H30.3095C30.3498 17.2182 30.3878 17.244 30.4009 17.2849C30.4072 17.3041 30.4072 17.3247 30.4009 17.3439C30.3946 17.3631 30.3823 17.3797 30.3659 17.3914L26.3777 20.2879L27.9014 24.9771C27.9136 25.0161 27.8999 25.0569 27.8654 25.0822C27.849 25.0942 27.8292 25.1007 27.8089 25.1007C27.7886 25.1007 27.7689 25.0942 27.7525 25.0822L23.7668 22.1848L19.781 25.0822Z" fill="#050505"/>
<path d="M12.4223 24.5833V23.659H12.2409V23.3607H12.9429V23.659H12.7531V24.5833H12.4223ZM13.6708 23.9266C13.7579 23.9266 13.8051 23.8502 13.8051 23.7709C13.8051 23.6639 13.7404 23.6182 13.6499 23.6235V23.9251L13.6708 23.9266ZM13.8314 24.5834L13.648 24.0745L13.6446 24.0774C13.6466 24.1373 13.6499 24.1976 13.6499 24.2574V24.5834H13.3191V23.3608H13.6383C13.9253 23.3608 14.1325 23.445 14.1325 23.7675C14.1325 23.9023 14.0746 24.0219 13.9433 24.0745L14.1895 24.5834H13.8314ZM14.9596 24.1667L14.9241 23.8831C14.9144 23.8067 14.908 23.7289 14.9003 23.6525H14.8964C14.8871 23.7289 14.8789 23.8067 14.8657 23.8831L14.8205 24.1667H14.9596ZM15.0228 24.5831L14.9985 24.426H14.7767L14.7489 24.5831H14.4084L14.7018 23.3606H15.1056L15.3648 24.5831H15.0228ZM15.9992 24.2883C16.15 24.2868 16.1758 24.0985 16.1758 23.9832C16.1758 23.8504 16.15 23.6655 15.9992 23.6655V24.2883ZM15.6684 23.361H15.9345C16.3106 23.361 16.513 23.5974 16.513 23.9672C16.513 24.5315 16.1583 24.583 15.9569 24.583H15.6684V23.361ZM16.8827 23.3608H17.4972V23.6493H17.2135V23.8196H17.4679V24.108H17.2135V24.2944H17.4972V24.5833H16.8827V23.3608ZM30.8024 24.5833L30.7717 23.8146H30.7683C30.7537 23.9036 30.7426 23.9931 30.7265 24.0822L30.6326 24.5833H30.3631L30.2479 23.8146H30.2449C30.243 23.9056 30.2449 23.9946 30.24 24.0855L30.2123 24.5832H29.8571L29.9997 23.3607H30.4117L30.5061 24.0106H30.509C30.5188 23.9347 30.5271 23.8598 30.5411 23.7839L30.6209 23.3607H31.0276L31.1464 24.5832H30.8024V24.5833ZM31.9131 24.1667L31.8775 23.8831C31.8678 23.8067 31.8615 23.7289 31.8532 23.6525H31.8498C31.8401 23.7289 31.8323 23.8067 31.8192 23.8831L31.774 24.1667H31.9131ZM31.9763 24.5831L31.952 24.426H31.7302L31.7025 24.5831H31.3619L31.6557 23.3606H32.059L32.3183 24.5831H31.9763ZM32.9573 23.9266C33.0449 23.9266 33.0921 23.8502 33.0921 23.7709C33.0921 23.6639 33.027 23.6182 32.9364 23.6235V23.9251L32.9573 23.9266ZM33.1179 24.5834L32.9345 24.0745L32.9315 24.0774C32.933 24.1373 32.9364 24.1976 32.9364 24.2574V24.5834H32.6056V23.3608H32.9248C33.2123 23.3608 33.4196 23.445 33.4196 23.7675C33.4196 23.9023 33.3611 24.0219 33.2298 24.0745L33.476 24.5834H33.1179ZM34.6742 23.3608L34.41 23.9509L34.7048 24.5833H34.3502L34.1444 24.0219H34.1425V24.5833H33.8117V23.3608H34.1425V23.8813H34.1444L34.3254 23.3608H34.6742ZM9.21127 32.7459C9.07846 32.3785 9.1845 31.2563 9.80284 31.0447C10.4533 30.8214 10.8531 31.1565 11.0472 31.8123C11.1197 32.0556 11.1036 32.3124 11.0244 32.4083C10.9091 32.5484 10.7033 32.6316 10.5179 32.6944L10.031 32.8554C9.55231 33.0183 9.32365 33.0509 9.21127 32.7459ZM12.2834 34.1071C11.9672 34.4238 11.5566 34.738 11.1523 34.8665C10.7714 34.989 9.68555 35.0839 9.36593 34.1873C9.29684 33.9928 9.35282 33.9329 9.52891 33.8808C9.79063 33.803 10.4659 33.6045 11.1781 33.3374C11.8246 33.0962 12.4011 32.7999 12.5821 32.6792C12.9056 32.4671 12.9532 32.1684 12.8112 31.8468C12.3578 30.8268 11.3309 29.7589 9.62429 30.0834C8.26794 30.3422 7.29646 31.5633 7.29646 32.9599C7.29646 34.6898 8.339 35.7007 9.66513 36.0145C10.8916 36.3059 12.333 35.7115 12.9498 34.7122C13.1945 34.3274 12.5057 33.8707 12.2834 34.1071ZM25.0971 32.7459C25.0183 32.526 25.0236 32.0366 25.173 31.6334C25.2746 31.3623 25.4245 31.1502 25.6886 31.0447C25.9859 30.925 26.2403 30.9576 26.4393 31.0724C26.6669 31.2033 26.8294 31.4626 26.933 31.8123C27.005 32.0555 26.9895 32.3124 26.9101 32.4083C26.7939 32.5484 26.6144 32.6184 26.4032 32.6943C26.2421 32.7517 26.0799 32.8062 25.9168 32.8578C25.4352 33.0086 25.2095 33.0509 25.0971 32.7459ZM28.1682 34.1071C27.853 34.4238 27.4419 34.738 27.0386 34.8665C26.6572 34.989 25.5709 35.0839 25.2518 34.1873C25.1827 33.9928 25.2391 33.9329 25.4148 33.8808C25.6765 33.803 26.3518 33.6045 27.0639 33.3374C27.7105 33.0962 28.2875 32.7999 28.4675 32.6792C28.7915 32.4671 28.8391 32.1684 28.6971 31.8468C28.2432 30.8268 27.2172 29.7589 25.5101 30.0834C24.1538 30.3422 23.1823 31.5633 23.1823 32.9599C23.1823 34.6898 24.2244 35.7007 25.551 36.0145C26.777 36.3059 28.2189 35.7115 28.8357 34.7122C29.0804 34.3274 28.3915 33.8707 28.1682 34.1071ZM37.2073 32.7459C37.1276 32.526 37.1339 32.0366 37.2832 31.6334C37.3849 31.3623 37.5347 31.1502 37.7988 31.0447C38.0961 30.925 38.3505 30.9576 38.5495 31.0724C38.7771 31.2033 38.9392 31.4626 39.0432 31.8123C39.1147 32.0555 39.0997 32.3124 39.0199 32.4083C38.9047 32.5484 38.7251 32.6184 38.5135 32.6943C38.3522 32.7517 38.1898 32.8061 38.0265 32.8578C37.5445 33.0086 37.3197 33.0509 37.2073 32.7459ZM40.2785 34.1071C39.9637 34.4238 39.5522 34.738 39.1479 34.8665C38.7675 34.989 37.6812 35.0839 37.3616 34.1873C37.2929 33.9928 37.3494 33.9329 37.525 33.8808C37.7867 33.803 38.4614 33.6045 39.1741 33.3374C39.8202 33.0962 40.3977 32.7999 40.5777 32.6792C40.9011 32.4671 40.9488 32.1684 40.8072 31.8468C40.3534 30.8268 39.3269 29.7589 37.6203 30.0834C36.2635 30.3422 35.2925 31.5633 35.2925 32.9599C35.2925 34.6898 36.3346 35.7007 37.6612 36.0145C38.8871 36.3059 40.3286 35.7115 40.9455 34.7122C41.1902 34.3274 40.5017 33.8707 40.2785 34.1071ZM2.86883 32.2913C2.82302 32.2913 2.7791 32.3095 2.74672 32.3419C2.71433 32.3743 2.69614 32.4183 2.69614 32.4641L2.69663 34.4231C2.69855 34.7271 2.79003 34.9305 2.95589 35.0039C3.04541 35.0438 3.24048 35.1338 3.3509 35.1834C3.42681 35.218 3.42969 35.2953 3.4185 35.3946C3.40879 35.4831 3.38299 35.7357 3.37329 35.8285C3.3631 35.9297 3.28425 35.9725 3.13103 35.9725H0.295328C0.151809 35.9725 0.0627755 35.9473 0.0506193 35.8285C0.0408656 35.7356 0.0145833 35.469 0.00487759 35.3805C-0.00780709 35.2681 0.0150638 35.2102 0.0846373 35.1781C0.179532 35.1338 0.386235 35.0418 0.475797 35.0001C0.651893 34.9184 0.726799 34.68 0.726799 34.4294L0.726319 29.5855C0.725839 29.315 0.649923 29.0967 0.452926 29.0052C0.363412 28.9638 0.176601 28.8792 0.0856464 28.8359C0.010259 28.7999 -0.0102095 28.7303 0.00439711 28.6316C0.0170337 28.543 0.0379827 28.3918 0.0506193 28.2988C0.0666674 28.1811 0.151809 28.1554 0.295328 28.1554H2.99918C3.14318 28.1554 3.22539 28.1811 3.24192 28.2988C3.25456 28.3918 3.27551 28.543 3.28814 28.6316C3.30275 28.7303 3.28329 28.7985 3.20983 28.8379C3.11349 28.8899 2.97828 28.9658 2.89165 29.013C2.7749 29.0767 2.6985 29.2086 2.69658 29.5209L2.6961 30.9327C2.69605 30.9554 2.70049 30.9779 2.70914 30.9989C2.7178 31.0199 2.73051 31.039 2.74655 31.0551C2.76258 31.0711 2.78164 31.0839 2.80261 31.0926C2.82358 31.1013 2.84607 31.1058 2.86878 31.1058H4.38273C4.40545 31.1059 4.42796 31.1014 4.44895 31.0927C4.46995 31.084 4.48901 31.0712 4.50506 31.0552C4.52111 31.0391 4.53382 31.02 4.54246 30.9989C4.5511 30.9779 4.5555 30.9554 4.55541 30.9327L4.55493 29.5209C4.55296 29.2086 4.47661 29.0767 4.36034 29.013C4.27327 28.9658 4.1385 28.8899 4.04216 28.8379C3.9687 28.7985 3.94876 28.7303 3.96332 28.6316C3.976 28.543 3.9969 28.3918 4.00954 28.2988C4.02607 28.1811 4.10876 28.1554 4.25228 28.1554H6.95613C7.09965 28.1554 7.18479 28.1811 7.20132 28.2988C7.21396 28.3918 7.23438 28.543 7.24754 28.6316C7.26162 28.7303 7.24168 28.7999 7.16629 28.8359C7.07481 28.8792 6.888 28.9638 6.79849 29.0052C6.60197 29.0967 6.52605 29.315 6.52557 29.5855L6.52509 34.4294C6.52509 34.68 6.59952 34.9184 6.77562 35.0001C6.86513 35.0418 7.07236 35.1338 7.16721 35.1781C7.23678 35.2102 7.25917 35.2681 7.24702 35.3805C7.23726 35.469 7.21055 35.7357 7.20127 35.8285C7.18912 35.9473 7.0996 35.9725 6.95608 35.9725H4.12053C3.9673 35.9725 3.88846 35.9297 3.87827 35.8285C3.86852 35.7356 3.84276 35.4831 3.83301 35.3946C3.82229 35.2953 3.82475 35.218 3.90109 35.1834C4.01108 35.1338 4.20615 35.0438 4.29614 35.0039C4.46153 34.9305 4.55301 34.7271 4.55493 34.4231L4.55541 32.4641C4.55545 32.4414 4.55101 32.4189 4.54235 32.3979C4.53368 32.377 4.52097 32.3579 4.50492 32.3418C4.48888 32.3258 4.46983 32.3131 4.44886 32.3044C4.42789 32.2957 4.40542 32.2913 4.38273 32.2913H2.86883Z" fill="#050505"/>
<path d="M33.2611 32.135C33.2611 32.135 34.2881 33.9929 34.5683 34.5032C34.7814 34.8909 35.0207 34.9984 35.3452 35.1832C35.4288 35.2304 35.4542 35.2616 35.4391 35.4187C35.4279 35.5398 35.4089 35.7252 35.3997 35.8216C35.3866 35.9558 35.2912 35.9724 35.1579 35.9724H33.644C33.4523 35.9724 33.3774 35.9325 33.3092 35.8089C33.2363 35.6766 31.9705 33.3736 31.9705 33.3736L31.4932 33.8293V34.4648C31.4957 34.7561 31.6299 34.9449 31.7608 35.0179C31.8455 35.0651 31.9739 35.1366 32.077 35.1935C32.1563 35.2373 32.1621 35.2927 32.1514 35.4173C32.1437 35.5053 32.1193 35.7354 32.1101 35.8288C32.0994 35.9319 32.0293 35.9723 31.8673 35.9723H29.3474C29.2034 35.9723 29.1134 35.9474 29.1012 35.8288C29.0915 35.7354 29.0677 35.4883 29.058 35.4002C29.0458 35.2892 29.0652 35.2329 29.1382 35.192C29.2441 35.1321 29.3503 35.0728 29.4569 35.0139C29.5809 34.9453 29.6816 34.7595 29.6816 34.4555V29.5353C29.6806 29.1947 29.5517 29.0401 29.4515 28.984C29.381 28.9442 29.1766 28.8308 29.13 28.804C29.0594 28.7642 29.0458 28.6873 29.0594 28.5929C29.0721 28.5053 29.0877 28.3915 29.1008 28.2986C29.1178 28.175 29.1985 28.1551 29.3455 28.1551H31.1654C31.3201 28.1551 31.4928 28.2694 31.4928 28.4854L31.4933 32.2449C31.4933 32.2449 32.5144 31.325 32.6652 31.1897C32.7727 31.093 32.7421 30.9898 32.6818 30.9616C32.5772 30.913 32.4604 30.8614 32.3948 30.8317C32.3222 30.7986 32.2853 30.7597 32.2975 30.6401C32.3096 30.5268 32.3296 30.3437 32.3379 30.2567C32.3486 30.1438 32.387 30.0976 32.5728 30.0976H34.797C34.9366 30.0976 34.9839 30.1458 34.9931 30.2372C35.0028 30.3414 35.0281 30.5573 35.0379 30.6615C35.0456 30.7446 34.9878 30.7928 34.8651 30.8375C34.5431 30.9553 34.4035 31.0385 33.9686 31.4588C33.6965 31.7215 33.2611 32.135 33.2611 32.135ZM15.6592 34.4738C15.6617 34.7652 15.7585 34.9447 15.8898 35.0177C15.995 35.0766 16.1004 35.1352 16.206 35.1933C16.2848 35.2371 16.2912 35.293 16.28 35.4171C16.2727 35.5056 16.2483 35.7357 16.2391 35.8286C16.2284 35.9322 16.1578 35.9726 15.9963 35.9726H13.4759C13.3324 35.9726 13.2433 35.9473 13.2312 35.8286C13.2169 35.6857 13.2021 35.5428 13.1869 35.4C13.1748 35.2895 13.1947 35.2331 13.2672 35.1917C13.373 35.1322 13.479 35.073 13.5853 35.0142C13.7094 34.9451 13.8106 34.7598 13.8106 34.4553L13.8101 31.6978C13.8096 31.3276 13.7006 31.1545 13.581 31.0868C13.5099 31.0469 13.4102 30.9896 13.363 30.9628C13.2886 30.9205 13.2764 30.8489 13.29 30.7551C13.3027 30.6675 13.3221 30.5196 13.3352 30.4267C13.3513 30.309 13.4364 30.2833 13.58 30.2833H15.4899C15.5121 30.2832 15.5341 30.2876 15.5546 30.2961C15.5751 30.3046 15.5937 30.3171 15.6094 30.3328C15.6251 30.3485 15.6375 30.3672 15.646 30.3878C15.6544 30.4083 15.6587 30.4303 15.6587 30.4525L15.6592 34.4738ZM14.587 27.997C14.028 27.997 13.5756 28.4338 13.5756 28.9729C13.5756 29.5119 14.028 29.9488 14.587 29.9488C15.145 29.9488 15.5979 29.5119 15.5979 28.9729C15.5979 28.4338 15.145 27.997 14.587 27.997ZM22.2307 31.7002C22.2307 30.6879 21.772 30.3016 21.2407 30.1318C20.6273 29.9367 19.8869 30.2577 19.5069 30.4334C19.4065 30.4798 19.3071 30.5283 19.2087 30.5788C19.1105 30.3483 19.0584 30.2831 18.9129 30.2831H17.1164C16.9729 30.2831 16.8877 30.3089 16.8717 30.4265C16.8586 30.5195 16.8391 30.6674 16.8264 30.7549C16.8128 30.8488 16.8245 30.9203 16.8994 30.9627C16.9461 30.9894 17.0463 31.0473 17.1169 31.0872C17.237 31.1543 17.3455 31.3275 17.3465 31.6977L17.347 34.4551C17.347 34.7597 17.2458 34.945 17.1217 35.0141C17.0152 35.0726 16.9091 35.132 16.8035 35.1921C16.7306 35.2331 16.7106 35.2894 16.7233 35.4004C16.733 35.4884 16.7578 35.7356 16.7675 35.8285C16.7792 35.9472 16.8687 35.9724 17.0122 35.9724H19.5322C19.6937 35.9724 19.7643 35.9321 19.7749 35.8285C19.7842 35.7356 19.8085 35.5055 19.8163 35.4169C19.827 35.2928 19.8212 35.2374 19.7418 35.1931C19.636 35.1353 19.5306 35.0768 19.4256 35.0175C19.2626 34.9251 19.1945 34.6847 19.1945 34.4664L19.1955 32.2747C19.1955 31.7021 19.4748 31.3806 19.8581 31.3334C20.113 31.3013 20.4399 31.4584 20.4399 31.9094V34.8618C20.4399 35.7024 21.1545 36.025 21.7154 36.025C22.3095 36.025 22.8164 35.7521 23.0431 35.2773C23.1151 35.1269 23.027 35.0126 22.9536 34.9314C22.8694 34.8384 22.7936 34.7558 22.6563 34.8259C22.5211 34.8954 22.379 35.0297 22.2973 34.9845C22.2364 34.9514 22.2306 34.8979 22.2306 34.7665V31.7002H22.2307ZM46.6994 31.7002C46.6994 30.6879 46.2406 30.3016 45.7094 30.1318C45.096 29.9367 44.3555 30.2577 43.9756 30.4334C43.8214 30.5045 43.6774 30.5788 43.6774 30.5788C43.5796 30.3483 43.5271 30.2831 43.3816 30.2831H41.585C41.4415 30.2831 41.3564 30.3089 41.3398 30.4265C41.3272 30.5195 41.3077 30.6674 41.295 30.7549C41.281 30.8488 41.2931 30.9203 41.3675 30.9627C41.4147 30.9894 41.5145 31.0473 41.586 31.0872C41.7056 31.1543 41.8146 31.3275 41.8151 31.6977L41.8156 34.4551C41.8156 34.7597 41.7144 34.945 41.5899 35.0141C41.4836 35.0727 41.3777 35.1321 41.2723 35.1921C41.1993 35.2331 41.1793 35.2894 41.192 35.4004C41.2012 35.4884 41.2265 35.7356 41.2363 35.8285C41.2484 35.9472 41.3374 35.9724 41.481 35.9724H44.0009C44.1629 35.9724 44.233 35.9321 44.2437 35.8285C44.2529 35.7356 44.2772 35.5055 44.2855 35.4169C44.2957 35.2928 44.2899 35.2374 44.2106 35.1931C44.1048 35.1353 43.9994 35.0768 43.8944 35.0175C43.7309 34.9251 43.6633 34.6847 43.6633 34.4664L43.6643 32.2747C43.6643 31.7021 43.9435 31.3806 44.3269 31.3334C44.5818 31.3013 44.9087 31.4584 44.9087 31.9094V34.8618C44.9087 35.7024 45.6233 36.025 46.1842 36.025C46.7782 36.025 47.2851 35.7521 47.5124 35.2773C47.5834 35.1269 47.4958 35.0126 47.4218 34.9314C47.3382 34.8384 47.2623 34.7558 47.1256 34.8259C46.9893 34.8954 46.8473 35.0297 46.7661 34.9845C46.7058 34.9514 46.6994 34.8979 46.6994 34.7665L46.6994 31.7002ZM47.0815 28.2843C47.0815 28.1875 46.9803 28.1535 46.8961 28.1535H46.702V28.4293H46.9229C47.0172 28.4293 47.0815 28.3671 47.0815 28.2843ZM47.3485 28.8428C47.368 28.9732 47.4263 29.0671 47.4584 29.1357C47.3247 29.1357 47.2746 29.1352 47.1597 29.1352C47.1028 29.0073 47.0902 28.9211 47.0615 28.8326C47.0225 28.7037 46.9423 28.6657 46.8032 28.6657H46.7001V29.1351H46.4252V27.934H46.9997C47.1334 27.934 47.3646 28.0133 47.3646 28.2687C47.3646 28.4293 47.2755 28.5402 47.1855 28.5742C47.2848 28.6395 47.3286 28.714 47.3485 28.8428ZM47.7727 28.5767C47.7727 28.0844 47.3762 27.6875 46.8864 27.6875C46.393 27.6875 45.9932 28.0844 45.9932 28.5767C45.9932 29.0675 46.393 29.4665 46.8864 29.4665C47.3763 29.4665 47.7727 29.0675 47.7727 28.5767ZM47.9999 28.5767C47.9999 29.1921 47.4998 29.6908 46.8864 29.6908C46.2695 29.6908 45.7684 29.1921 45.7684 28.5767C45.7684 27.9593 46.2695 27.4607 46.8864 27.4622C47.4998 27.4608 47.9999 27.9594 47.9999 28.5767Z" fill="#050505"/>
</svg>
