<svg width="64" height="64" viewBox="0 0 64 64" fill="none" xmlns="http://www.w3.org/2000/svg">
<g clip-path="url(#clip0_164_456)">
<path d="M47.1545 24.7388C47.1545 24.0684 47.7121 23.5244 48.3996 23.5244H62.7547C63.4424 23.5244 63.9998 24.0684 63.9998 24.7388V39.2622C63.9998 39.9328 63.4424 40.4764 62.7547 40.4764H48.3996C47.7121 40.4764 47.1545 39.9328 47.1545 39.2625V24.7388Z" fill="#050505"/>
<path d="M-0.000244141 37.724H7.02972V35.4159H2.54428V26.6106H-0.000244141V37.724ZM10.5889 37.724V30.0693H8.04464V37.724H10.5889ZM9.31701 29.0244C10.2041 29.0244 10.7564 28.4366 10.7564 27.7016C10.7399 26.9506 10.2041 26.3794 9.33391 26.3794C8.4635 26.3794 7.89434 26.9508 7.89434 27.7016C7.89434 28.4366 8.4466 29.0244 9.30034 29.0244H9.31701ZM11.7702 37.724H14.3145V33.4492C14.3145 33.2204 14.3309 32.9916 14.3983 32.8286C14.5819 32.3715 15.0006 31.898 15.7036 31.898C16.6244 31.898 16.9928 32.6001 16.9928 33.6286V37.7238H19.5367V33.3349C19.5367 30.9836 18.2814 29.8895 16.6073 29.8895C15.2349 29.8895 14.6322 30.6567 14.2973 31.1794H14.3145V30.0693H11.7702C11.8037 30.7877 11.7702 37.724 11.7702 37.724ZM23.1261 26.6106H20.5818V37.724H23.1261V35.2422L23.762 34.4416L25.754 37.724H28.884L25.5366 32.9723L28.4655 29.7396H25.4028C25.4028 29.7396 23.3105 32.6317 23.1261 32.9749V26.6106Z" fill="black"/>
<path d="M35.6879 34.531C35.7214 34.3344 35.7717 33.9574 35.7717 33.5309C35.7717 31.5522 34.7672 29.5433 32.1226 29.5433C29.2938 29.5433 27.988 31.7806 27.988 33.8097C27.988 36.3193 29.5783 37.8865 32.3568 37.8865C33.4617 37.8865 34.4824 37.7238 35.3197 37.3807L34.9849 35.7004C34.2983 35.9281 33.5953 36.0421 32.7251 36.0421C31.5368 36.0421 30.4992 35.5541 30.4154 34.5145L35.6879 34.5305V34.531ZM30.3987 32.8097C30.4656 32.1565 30.9012 31.1927 31.989 31.1927C33.1438 31.1927 33.4119 32.2216 33.4119 32.8097H30.3987ZM42.0517 26.6106V30.4577H42.0182C41.6498 29.9192 40.8799 29.56 39.8594 29.56C37.9007 29.56 36.1768 31.1274 36.1932 33.8051C36.1932 36.2871 37.7502 37.9036 39.6915 37.9036C40.7462 37.9036 41.7503 37.4461 42.2527 36.5644H42.3027L42.4035 37.724H44.663C44.6296 37.1851 44.5958 36.2544 44.5958 35.34V26.6104H42.0515L42.0517 26.6106ZM42.0517 34.1808C42.0517 34.3764 42.0351 34.5727 42.0013 34.7355C41.8512 35.438 41.2485 35.9274 40.5119 35.9274C39.4576 35.9274 38.7711 35.0785 38.7711 33.7397C38.7711 32.4827 39.3574 31.4702 40.5288 31.4702C41.3154 31.4702 41.8677 32.0089 42.0184 32.6781C42.0517 32.8255 42.0517 32.9889 42.0517 33.1356V34.1808Z" fill="black"/>
<path d="M52.261 37.7148V30.0601H49.7167V37.7148H52.261ZM50.9893 29.0151C51.8764 29.0151 52.4287 28.4273 52.4287 27.6927C52.412 26.9415 51.8764 26.3701 51.0062 26.3701C50.1354 26.3701 49.5667 26.9415 49.5667 27.6927C49.5667 28.4273 50.1187 29.0151 50.9726 29.0151H50.9891H50.9893ZM53.6692 37.7148H56.2133V33.4405C56.2133 33.212 56.23 32.983 56.2971 32.8198C56.481 32.3625 56.8996 31.8891 57.6026 31.8891C58.5231 31.8891 58.8915 32.591 58.8915 33.6202V37.7148H61.4355V33.3258C61.4355 30.9747 60.1805 29.8807 58.5066 29.8807C57.1342 29.8807 56.5315 30.6477 56.1966 31.1701H56.2135V30.0603H53.6695C53.7026 30.7784 53.6692 37.7148 53.6692 37.7148Z" fill="white"/>
</g>
<defs>
<clipPath id="clip0_164_456">
<rect width="64" height="64" fill="white"/>
</clipPath>
</defs>
</svg>
