<svg width="32" height="32" viewBox="0 0 32 32" fill="none" xmlns="http://www.w3.org/2000/svg">
<circle cx="16" cy="16" r="16" fill="#172554"/>
<path d="M12.6667 19.3333H14V16H12.6667V19.3333ZM18 19.3333H19.3333V12.6667H18V19.3333ZM15.3333 19.3333H16.6667V17.3333H15.3333V19.3333ZM15.3333 16H16.6667V14.6667H15.3333V16ZM11.3333 22C10.9667 22 10.6528 21.8694 10.3917 21.6083C10.1306 21.3472 10 21.0333 10 20.6667V11.3333C10 10.9667 10.1306 10.6528 10.3917 10.3917C10.6528 10.1306 10.9667 10 11.3333 10H20.6667C21.0333 10 21.3472 10.1306 21.6083 10.3917C21.8694 10.6528 22 10.9667 22 11.3333V20.6667C22 21.0333 21.8694 21.3472 21.6083 21.6083C21.3472 21.8694 21.0333 22 20.6667 22H11.3333Z" fill="white"/>
</svg>
