<svg width="111" height="28" viewBox="0 0 111 28" fill="none" xmlns="http://www.w3.org/2000/svg">
<g clip-path="url(#clip0_168_1711)">
<path d="M29.0723 6.58398H40.2734V8.67383H35.8691V20.4219H33.4473V8.67383H29.0625V6.58398H29.0723ZM39.7949 10.4023H41.8652V12.3359H41.9043C41.9727 12.0625 42.0996 11.7988 42.2852 11.5449C42.4707 11.291 42.6953 11.0469 42.959 10.8418C43.2227 10.627 43.5156 10.4609 43.8379 10.3242C44.1602 10.1973 44.4922 10.1289 44.8242 10.1289C45.0781 10.1289 45.2637 10.1387 45.3613 10.1484C45.459 10.1582 45.5566 10.1777 45.6641 10.1875V12.3164C45.5078 12.2871 45.3516 12.2676 45.1855 12.248C45.0195 12.2285 44.8633 12.2188 44.707 12.2188C44.3359 12.2188 43.9844 12.2969 43.6523 12.4434C43.3203 12.5898 43.0371 12.8145 42.793 13.0977C42.5488 13.3906 42.3535 13.7422 42.207 14.1719C42.0605 14.6016 41.9922 15.0898 41.9922 15.6465V20.4121H39.7852V10.4023H39.7949ZM55.8105 20.4219H53.6426V19.0254H53.6035C53.3301 19.5332 52.9297 19.9336 52.3926 20.2363C51.8555 20.5391 51.3086 20.6953 50.752 20.6953C49.4336 20.6953 48.4766 20.373 47.8906 19.7188C47.3047 19.0645 47.0117 18.0781 47.0117 16.7598V10.4023H49.2188V16.5449C49.2188 17.4238 49.3848 18.0488 49.7266 18.4102C50.0586 18.7715 50.5371 18.957 51.1426 18.957C51.6113 18.957 51.9922 18.8887 52.3047 18.7422C52.6172 18.5957 52.8711 18.4102 53.0566 18.166C53.252 17.9316 53.3887 17.6387 53.4766 17.3066C53.5644 16.9746 53.6035 16.6133 53.6035 16.2227V10.4121H55.8105V20.4219ZM59.5703 17.209C59.6387 17.8535 59.8828 18.3027 60.3027 18.5664C60.7324 18.8203 61.2402 18.957 61.8359 18.957C62.041 18.957 62.2754 18.9375 62.5391 18.9082C62.8027 18.8789 63.0566 18.8105 63.2812 18.7227C63.5156 18.6348 63.7012 18.498 63.8574 18.3223C64.0039 18.1465 64.0723 17.9219 64.0625 17.6387C64.0527 17.3555 63.9453 17.1211 63.75 16.9453C63.5547 16.7598 63.3105 16.623 63.0078 16.5059C62.7051 16.3984 62.3633 16.3008 61.9727 16.2227C61.582 16.1445 61.1914 16.0566 60.791 15.9688C60.3809 15.8809 59.9805 15.7637 59.5996 15.6367C59.2187 15.5098 58.877 15.334 58.5742 15.1094C58.2715 14.8945 58.0273 14.6113 57.8516 14.2695C57.666 13.9277 57.5781 13.5078 57.5781 13C57.5781 12.4531 57.7148 12.0039 57.9785 11.6328C58.2422 11.2617 58.584 10.9688 58.9844 10.7441C59.3945 10.5195 59.8438 10.3633 60.3418 10.2656C60.8398 10.1777 61.3184 10.1289 61.7676 10.1289C62.2852 10.1289 62.7832 10.1875 63.252 10.2949C63.7207 10.4023 64.1504 10.5781 64.5312 10.832C64.9121 11.0762 65.2246 11.3984 65.4785 11.7891C65.7324 12.1797 65.8887 12.6582 65.957 13.2148H63.6523C63.5449 12.6875 63.3105 12.3262 62.9297 12.1504C62.5488 11.9648 62.1094 11.877 61.6211 11.877C61.4648 11.877 61.2793 11.8867 61.0645 11.916C60.8496 11.9453 60.6543 11.9941 60.459 12.0625C60.2734 12.1309 60.1172 12.2383 59.9805 12.375C59.8535 12.5117 59.7852 12.6875 59.7852 12.9121C59.7852 13.1855 59.8828 13.4004 60.0684 13.5664C60.2539 13.7324 60.498 13.8691 60.8008 13.9863C61.1035 14.0937 61.4453 14.1914 61.8359 14.2695C62.2266 14.3477 62.627 14.4355 63.0371 14.5234C63.4375 14.6113 63.8281 14.7285 64.2187 14.8555C64.6094 14.9824 64.9512 15.1582 65.2539 15.3828C65.5566 15.6074 65.8008 15.8809 65.9863 16.2129C66.1719 16.5449 66.2695 16.9648 66.2695 17.4531C66.2695 18.0488 66.1328 18.5469 65.8594 18.9668C65.5859 19.377 65.2344 19.7188 64.8047 19.9727C64.375 20.2266 63.8867 20.4219 63.3594 20.5391C62.832 20.6562 62.3047 20.7148 61.7871 20.7148C61.1523 20.7148 60.5664 20.6465 60.0293 20.5C59.4922 20.3535 59.0234 20.1387 58.6328 19.8555C58.2422 19.5625 57.9297 19.2012 57.7051 18.7715C57.4805 18.3418 57.3633 17.8242 57.3438 17.2285H59.5703V17.209ZM66.8555 10.4023H68.5254V7.39453H70.7324V10.4023H72.7246V12.0527H70.7324V17.4043C70.7324 17.6387 70.7422 17.834 70.7617 18.0098C70.7812 18.1758 70.8301 18.3223 70.8984 18.4395C70.9668 18.5566 71.0742 18.6445 71.2207 18.7031C71.3672 18.7617 71.5527 18.791 71.8066 18.791C71.9629 18.791 72.1191 18.791 72.2754 18.7812C72.4316 18.7715 72.5879 18.752 72.7441 18.7129V20.4219C72.5 20.4512 72.2559 20.4707 72.0312 20.5C71.7969 20.5293 71.5625 20.5391 71.3184 20.5391C70.7324 20.5391 70.2637 20.4805 69.9121 20.373C69.5605 20.2656 69.2773 20.0996 69.082 19.8848C68.877 19.6699 68.75 19.4062 68.6719 19.084C68.6035 18.7617 68.5547 18.3906 68.5449 17.9805V12.0723H66.875V10.4023H66.8555ZM74.2871 10.4023H76.3769V11.7598H76.416C76.7285 11.1738 77.1582 10.7637 77.7148 10.5098C78.2715 10.2559 78.8672 10.1289 79.5215 10.1289C80.3125 10.1289 80.9961 10.2656 81.582 10.5488C82.168 10.8223 82.6563 11.2031 83.0469 11.6914C83.4375 12.1797 83.7207 12.7461 83.916 13.3906C84.1113 14.0352 84.209 14.7285 84.209 15.4609C84.209 16.1348 84.1211 16.7891 83.9453 17.4141C83.7695 18.0488 83.5059 18.6055 83.1543 19.0938C82.8027 19.582 82.3535 19.9629 81.8066 20.2559C81.2598 20.5488 80.625 20.6953 79.8828 20.6953C79.5606 20.6953 79.2383 20.666 78.916 20.6074C78.5937 20.5488 78.2812 20.4512 77.9883 20.3242C77.6953 20.1973 77.4121 20.0313 77.168 19.8262C76.9141 19.6211 76.709 19.3867 76.5332 19.123H76.4941V24.123H74.2871V10.4023ZM82.0019 15.4219C82.0019 14.9727 81.9434 14.5332 81.8262 14.1035C81.709 13.6738 81.5332 13.3027 81.2988 12.9707C81.0645 12.6387 80.7715 12.375 80.4297 12.1797C80.0781 11.9844 79.6777 11.877 79.2285 11.877C78.3008 11.877 77.5977 12.1992 77.1289 12.8438C76.6602 13.4883 76.4258 14.3477 76.4258 15.4219C76.4258 15.9297 76.4844 16.3984 76.6113 16.8281C76.7383 17.2578 76.9141 17.6289 77.168 17.9414C77.4121 18.2539 77.7051 18.498 78.0469 18.6738C78.3887 18.8594 78.7891 18.9473 79.2383 18.9473C79.7461 18.9473 80.166 18.8398 80.5176 18.6348C80.8691 18.4297 81.1523 18.1562 81.3769 17.834C81.6016 17.502 81.7676 17.1309 81.8652 16.7109C81.9531 16.291 82.0019 15.8613 82.0019 15.4219ZM85.8984 6.58398H88.1055V8.67383H85.8984V6.58398ZM85.8984 10.4023H88.1055V20.4219H85.8984V10.4023ZM90.0781 6.58398H92.2852V20.4219H90.0781V6.58398ZM99.0527 20.6953C98.2519 20.6953 97.5391 20.5586 96.9141 20.2949C96.2891 20.0312 95.7617 19.6602 95.3223 19.2012C94.8926 18.7324 94.5605 18.1758 94.3359 17.5312C94.1113 16.8867 93.9941 16.1738 93.9941 15.4023C93.9941 14.6406 94.1113 13.9375 94.3359 13.293C94.5605 12.6484 94.8926 12.0918 95.3223 11.623C95.752 11.1543 96.2891 10.793 96.9141 10.5293C97.5391 10.2656 98.2519 10.1289 99.0527 10.1289C99.8535 10.1289 100.566 10.2656 101.191 10.5293C101.816 10.793 102.344 11.1641 102.783 11.623C103.213 12.0918 103.545 12.6484 103.77 13.293C103.994 13.9375 104.111 14.6406 104.111 15.4023C104.111 16.1738 103.994 16.8867 103.77 17.5312C103.545 18.1758 103.213 18.7324 102.783 19.2012C102.354 19.6699 101.816 20.0312 101.191 20.2949C100.566 20.5586 99.8535 20.6953 99.0527 20.6953ZM99.0527 18.9473C99.541 18.9473 99.9707 18.8398 100.332 18.6348C100.693 18.4297 100.986 18.1562 101.221 17.8242C101.455 17.4922 101.621 17.1113 101.738 16.6914C101.846 16.2715 101.904 15.8418 101.904 15.4023C101.904 14.9727 101.846 14.5527 101.738 14.123C101.631 13.6934 101.455 13.3223 101.221 12.9902C100.986 12.6582 100.693 12.3945 100.332 12.1895C99.9707 11.9844 99.541 11.877 99.0527 11.877C98.5644 11.877 98.1348 11.9844 97.7734 12.1895C97.4121 12.3945 97.1191 12.668 96.8848 12.9902C96.6504 13.3223 96.4844 13.6934 96.3672 14.123C96.2598 14.5527 96.2012 14.9727 96.2012 15.4023C96.2012 15.8418 96.2598 16.2715 96.3672 16.6914C96.4746 17.1113 96.6504 17.4922 96.8848 17.8242C97.1191 18.1562 97.4121 18.4297 97.7734 18.6348C98.1348 18.8496 98.5644 18.9473 99.0527 18.9473ZM104.756 10.4023H106.426V7.39453H108.633V10.4023H110.625V12.0527H108.633V17.4043C108.633 17.6387 108.643 17.834 108.662 18.0098C108.682 18.1758 108.73 18.3223 108.799 18.4395C108.867 18.5566 108.975 18.6445 109.121 18.7031C109.268 18.7617 109.453 18.791 109.707 18.791C109.863 18.791 110.02 18.791 110.176 18.7812C110.332 18.7715 110.488 18.752 110.645 18.7129V20.4219C110.4 20.4512 110.156 20.4707 109.932 20.5C109.697 20.5293 109.463 20.5391 109.219 20.5391C108.633 20.5391 108.164 20.4805 107.812 20.373C107.461 20.2656 107.178 20.0996 106.982 19.8848C106.777 19.6699 106.65 19.4062 106.572 19.084C106.504 18.7617 106.455 18.3906 106.445 17.9805V12.0723H104.775V10.4023H104.756Z" fill="#191919"/>
<path d="M26.4941 9.62891H16.377L13.252 0L10.1172 9.62891L0 9.61914L8.19336 15.5762L5.05859 25.1953L13.252 19.248L21.4355 25.1953L18.3105 15.5762L26.4941 9.62891Z" fill="#00B67A"/>
<path d="M19.0137 17.7539L18.3105 15.5762L13.252 19.248L19.0137 17.7539Z" fill="#005128"/>
</g>
<defs>
<clipPath id="clip0_168_1711">
<rect width="110.625" height="27.168" fill="white"/>
</clipPath>
</defs>
</svg>
